RosaSans-Regular.ufo
<glyph name="exclam" format="2">
  <advance width="660"/>
  <unicode hex="0021"/>
  <outline>
    <contour>
      <point x="215" y="488" type="line"/>
      <point x="446" y="488" type="line"/>
      <point x="487" y="1440" type="line"/>
      <point x="173" y="1440" type="line"/>
    </contour>
    <contour>
      <point x="330" y="-30" type="curve" smooth="yes"/>
      <point x="394" y="-30"/>
      <point x="448" y="-2"/>
      <point x="479" y="47" type="curve" smooth="yes"/>
      <point x="495" y="71"/>
      <point x="502" y="100"/>
      <point x="502" y="133" type="curve" smooth="yes"/>
      <point x="502" y="184"/>
      <point x="487" y="224"/>
      <point x="452" y="253" type="curve"/>
      <point x="419" y="282"/>
      <point x="378" y="297"/>
      <point x="330" y="297" type="curve" smooth="yes"/>
      <point x="266" y="297"/>
      <point x="213" y="269"/>
      <point x="182" y="220" type="curve" smooth="yes"/>
      <point x="166" y="196"/>
      <point x="158" y="166"/>
      <point x="158" y="133" type="curve" smooth="yes"/>
      <point x="158" y="82"/>
      <point x="176" y="44"/>
      <point x="209" y="15" type="curve"/>
      <point x="244" y="-14"/>
      <point x="283" y="-30"/>
    </contour>
  </outline>
</glyph>
<glyph name="quotedbl" format="2">
  <advance width="848"/>
  <unicode hex="0022"/>
  <outline>
    <contour>
      <point x="142" y="847" type="line"/>
      <point x="117" y="1400" type="line"/>
      <point x="352" y="1400" type="line"/>
      <point x="327" y="847" type="line"/>
    </contour>
    <contour>
      <point x="522" y="847" type="line"/>
      <point x="497" y="1400" type="line"/>
      <point x="732" y="1400" type="line"/>
      <point x="707" y="847" type="line"/>
    </contour>
  </outline>
</glyph>
<glyph name="numbersign" format="2">
  <advance width="1262"/>
  <unicode hex="0023"/>
  <outline>
    <contour>
      <point x="170" y="50" type="line"/>
      <point x="253" y="392" type="line"/>
      <point x="81" y="392" type="line"/>
      <point x="115" y="540" type="line"/>
      <point x="287" y="540" type="line"/>
      <point x="362" y="858" type="line"/>
      <point x="189" y="858" type="line"/>
      <point x="224" y="1006" type="line"/>
      <point x="396" y="1006" type="line"/>
      <point x="480" y="1350" type="line"/>
      <point x="632" y="1350" type="line"/>
      <point x="550" y="1006" type="line"/>
      <point x="857" y="1006" type="line"/>
      <point x="939" y="1352" type="line"/>
      <point x="1093" y="1352" type="line"/>
      <point x="1010" y="1006" type="line"/>
      <point x="1181" y="1006" type="line"/>
      <point x="1148" y="857" type="line"/>
      <point x="975" y="857" type="line"/>
      <point x="904" y="541" type="line"/>
      <point x="1075" y="541" type="line"/>
      <point x="1040" y="392" type="line"/>
      <point x="868" y="392" type="line"/>
      <point x="784" y="49" type="line"/>
      <point x="631" y="49" type="line"/>
      <point x="714" y="392" type="line"/>
      <point x="407" y="392" type="line"/>
      <point x="324" y="50" type="line"/>
    </contour>
    <contour>
      <point x="441" y="540" type="line"/>
      <point x="750" y="541" type="line"/>
      <point x="821" y="857" type="line"/>
      <point x="512" y="858" type="line"/>
    </contour>
  </outline>
</glyph>
<glyph name="dollar" format="2">
  <advance width="1296"/>
  <unicode hex="0024"/>
  <outline>
    <contour>
      <point x="663" y="-30" type="qcurve" smooth="yes"/>
      <point x="593" y="-30"/>
      <point x="457" y="-9"/>
      <point x="390" y="11" type="qcurve" smooth="yes"/>
      <point x="323" y="31"/>
      <point x="211" y="90"/>
      <point x="165" y="129" type="qcurve"/>
      <point x="273" y="299" type="line"/>
      <point x="297" y="278"/>
      <point x="353" y="240"/>
      <point x="385" y="224" type="qcurve" smooth="yes"/>
      <point x="450" y="193"/>
      <point x="592" y="160"/>
      <point x="663" y="160" type="qcurve" smooth="yes"/>
      <point x="732" y="160"/>
      <point x="841" y="187"/>
      <point x="882" y="214" type="qcurve" smooth="yes"/>
      <point x="923" y="240"/>
      <point x="963" y="316"/>
      <point x="963" y="367" type="qcurve" smooth="yes"/>
      <point x="963" y="409"/>
      <point x="934" y="478"/>
      <point x="904" y="505" type="qcurve"/>
      <point x="873" y="531"/>
      <point x="771" y="577"/>
      <point x="697" y="597" type="qcurve"/>
      <point x="553" y="632" type="line"/>
      <point x="461" y="658"/>
      <point x="324" y="732"/>
      <point x="278" y="780" type="qcurve" smooth="yes"/>
      <point x="232" y="827"/>
      <point x="186" y="946"/>
      <point x="186" y="1019" type="qcurve" smooth="yes"/>
      <point x="186" y="1081"/>
      <point x="218" y="1188"/>
      <point x="250" y="1235" type="qcurve" smooth="yes"/>
      <point x="281" y="1281"/>
      <point x="367" y="1353"/>
      <point x="423" y="1378" type="qcurve" smooth="yes"/>
      <point x="478" y="1404"/>
      <point x="603" y="1429"/>
      <point x="674" y="1429" type="qcurve" smooth="yes"/>
      <point x="743" y="1429"/>
      <point x="869" y="1409"/>
      <point x="928" y="1389" type="qcurve" smooth="yes"/>
      <point x="987" y="1368"/>
      <point x="1082" y="1313"/>
      <point x="1119" y="1279" type="qcurve"/>
      <point x="1008" y="1116" type="line"/>
      <point x="977" y="1145"/>
      <point x="902" y="1190"/>
      <point x="856" y="1207" type="qcurve" smooth="yes"/>
      <point x="810" y="1224"/>
      <point x="715" y="1240"/>
      <point x="666" y="1240" type="qcurve" smooth="yes"/>
      <point x="623" y="1240"/>
      <point x="549" y="1228"/>
      <point x="518" y="1216" type="qcurve" smooth="yes"/>
      <point x="454" y="1191"/>
      <point x="386" y="1099"/>
      <point x="386" y="1031" type="qcurve" smooth="yes"/>
      <point x="386" y="989"/>
      <point x="415" y="923"/>
      <point x="444" y="899" type="qcurve" smooth="yes"/>
      <point x="473" y="875"/>
      <point x="575" y="830"/>
      <point x="650" y="810" type="qcurve"/>
      <point x="805" y="775" type="line"/>
      <point x="893" y="750"/>
      <point x="1027" y="680"/>
      <point x="1073" y="634" type="qcurve" smooth="yes"/>
      <point x="1119" y="589"/>
      <point x="1164" y="467"/>
      <point x="1164" y="389" type="qcurve" smooth="yes"/>
      <point x="1164" y="327"/>
      <point x="1134" y="218"/>
      <point x="1105" y="170" type="qcurve"/>
      <point x="1045" y="75"/>
      <point x="822" y="-30"/>
    </contour>
    <contour>
      <point x="585" y="-160" type="line"/>
      <point x="585" y="1560" type="line"/>
      <point x="766" y="1560" type="line"/>
      <point x="766" y="-160" type="line"/>
    </contour>
  </outline>
</glyph>
<glyph name="percent" format="2">
  <advance width="2071"/>
  <unicode hex="0025"/>
  <outline>
    <contour>
      <point x="716" y="-35" type="line"/>
      <point x="1493" y="1358" type="line"/>
      <point x="1355" y="1435" type="line"/>
      <point x="578" y="47" type="line"/>
    </contour>
    <contour>
      <point x="455" y="658" type="curve" smooth="yes"/>
      <point x="600" y="658"/>
      <point x="722" y="731"/>
      <point x="791" y="848" type="curve"/>
      <point x="827" y="905"/>
      <point x="843" y="968"/>
      <point x="843" y="1040" type="curve" smooth="yes"/>
      <point x="843" y="1112"/>
      <point x="827" y="1175"/>
      <point x="791" y="1232" type="curve" smooth="yes"/>
      <point x="756" y="1289"/>
      <point x="712" y="1336"/>
      <point x="652" y="1369" type="curve" smooth="yes"/>
      <point x="592" y="1404"/>
      <point x="528" y="1420"/>
      <point x="455" y="1420" type="curve" smooth="yes"/>
      <point x="382" y="1420"/>
      <point x="319" y="1404"/>
      <point x="259" y="1369" type="curve" smooth="yes"/>
      <point x="199" y="1336"/>
      <point x="154" y="1289"/>
      <point x="118" y="1232" type="curve" smooth="yes"/>
      <point x="83" y="1175"/>
      <point x="65" y="1112"/>
      <point x="65" y="1040" type="curve" smooth="yes"/>
      <point x="65" y="968"/>
      <point x="83" y="907"/>
      <point x="118" y="847" type="curve" smooth="yes"/>
      <point x="153" y="787"/>
      <point x="199" y="744"/>
      <point x="259" y="709" type="curve" smooth="yes"/>
      <point x="319" y="676"/>
      <point x="382" y="658"/>
    </contour>
    <contour>
      <point x="455" y="829" type="curve" smooth="yes"/>
      <point x="391" y="829"/>
      <point x="343" y="848"/>
      <point x="304" y="888" type="curve" smooth="yes"/>
      <point x="264" y="928"/>
      <point x="244" y="979"/>
      <point x="244" y="1040" type="curve" smooth="yes"/>
      <point x="244" y="1124"/>
      <point x="282" y="1187"/>
      <point x="346" y="1223" type="curve" smooth="yes"/>
      <point x="377" y="1240"/>
      <point x="414" y="1249"/>
      <point x="455" y="1249" type="curve" smooth="yes"/>
      <point x="519" y="1249"/>
      <point x="568" y="1231"/>
      <point x="608" y="1192" type="curve"/>
      <point x="645" y="1153"/>
      <point x="665" y="1104"/>
      <point x="665" y="1040" type="curve" smooth="yes"/>
      <point x="665" y="956"/>
      <point x="629" y="892"/>
      <point x="565" y="857" type="curve"/>
      <point x="533" y="838"/>
      <point x="496" y="829"/>
    </contour>
    <contour>
      <point x="1618" y="-20" type="curve" smooth="yes"/>
      <point x="1763" y="-20"/>
      <point x="1885" y="53"/>
      <point x="1954" y="170" type="curve"/>
      <point x="1990" y="227"/>
      <point x="2006" y="290"/>
      <point x="2006" y="362" type="curve" smooth="yes"/>
      <point x="2006" y="434"/>
      <point x="1990" y="497"/>
      <point x="1954" y="554" type="curve" smooth="yes"/>
      <point x="1919" y="611"/>
      <point x="1875" y="658"/>
      <point x="1815" y="691" type="curve" smooth="yes"/>
      <point x="1755" y="726"/>
      <point x="1691" y="742"/>
      <point x="1618" y="742" type="curve" smooth="yes"/>
      <point x="1545" y="742"/>
      <point x="1482" y="726"/>
      <point x="1422" y="691" type="curve" smooth="yes"/>
      <point x="1362" y="658"/>
      <point x="1317" y="611"/>
      <point x="1281" y="554" type="curve" smooth="yes"/>
      <point x="1246" y="497"/>
      <point x="1228" y="434"/>
      <point x="1228" y="362" type="curve" smooth="yes"/>
      <point x="1228" y="290"/>
      <point x="1246" y="227"/>
      <point x="1281" y="170" type="curve" smooth="yes"/>
      <point x="1316" y="110"/>
      <point x="1362" y="65"/>
      <point x="1422" y="32" type="curve" smooth="yes"/>
      <point x="1482" y="-3"/>
      <point x="1545" y="-20"/>
    </contour>
    <contour>
      <point x="1618" y="151" type="curve" smooth="yes"/>
      <point x="1554" y="151"/>
      <point x="1506" y="171"/>
      <point x="1466" y="210" type="curve"/>
      <point x="1427" y="250"/>
      <point x="1407" y="301"/>
      <point x="1407" y="362" type="curve" smooth="yes"/>
      <point x="1407" y="446"/>
      <point x="1445" y="509"/>
      <point x="1509" y="545" type="curve" smooth="yes"/>
      <point x="1540" y="562"/>
      <point x="1577" y="571"/>
      <point x="1618" y="571" type="curve" smooth="yes"/>
      <point x="1682" y="571"/>
      <point x="1731" y="553"/>
      <point x="1771" y="514" type="curve"/>
      <point x="1808" y="475"/>
      <point x="1828" y="426"/>
      <point x="1828" y="362" type="curve" smooth="yes"/>
      <point x="1828" y="278"/>
      <point x="1792" y="214"/>
      <point x="1728" y="179" type="curve"/>
      <point x="1696" y="160"/>
      <point x="1659" y="151"/>
    </contour>
  </outline>
</glyph>
<glyph name="ampersand" format="2">
  <advance width="1510"/>
  <unicode hex="0026"/>
  <outline>
    <contour>
      <point x="561" y="-30" type="qcurve" smooth="yes"/>
      <point x="428" y="-30"/>
      <point x="222" y="76"/>
      <point x="104" y="259"/>
      <point x="104" y="377" type="qcurve" smooth="yes"/>
      <point x="104" y="462"/>
      <point x="180" y="612"/>
      <point x="321" y="733"/>
      <point x="420" y="773" type="qcurve"/>
      <point x="362" y="833"/>
      <point x="294" y="932"/>
      <point x="264" y="1029"/>
      <point x="264" y="1084" type="qcurve" smooth="yes"/>
      <point x="264" y="1180"/>
      <point x="369" y="1337"/>
      <point x="546" y="1430"/>
      <point x="654" y="1430" type="qcurve" smooth="yes"/>
      <point x="765" y="1430"/>
      <point x="940" y="1345"/>
      <point x="1042" y="1195"/>
      <point x="1042" y="1096" type="qcurve" smooth="yes"/>
      <point x="1042" y="987"/>
      <point x="893" y="810"/>
      <point x="746" y="737" type="qcurve"/>
      <point x="1016" y="459" type="line"/>
      <point x="1073" y="530"/>
      <point x="1166" y="709"/>
      <point x="1207" y="832" type="qcurve"/>
      <point x="1411" y="751" type="line"/>
      <point x="1385" y="675"/>
      <point x="1303" y="515"/>
      <point x="1205" y="366"/>
      <point x="1153" y="307" type="qcurve"/>
      <point x="1439" y="0" type="line"/>
      <point x="1145" y="0" type="line"/>
      <point x="1002" y="150" type="line"/>
      <point x="909" y="65"/>
      <point x="676" y="-30"/>
    </contour>
    <contour>
      <point x="579" y="182" type="qcurve" smooth="yes"/>
      <point x="657" y="182"/>
      <point x="802" y="244"/>
      <point x="863" y="304" type="qcurve"/>
      <point x="552" y="628" type="line"/>
      <point x="452" y="592"/>
      <point x="342" y="464"/>
      <point x="342" y="385" type="qcurve" smooth="yes"/>
      <point x="342" y="293"/>
      <point x="471" y="182"/>
    </contour>
    <contour>
      <point x="618" y="864" type="qcurve"/>
      <point x="721" y="902"/>
      <point x="824" y="1012"/>
      <point x="824" y="1079" type="qcurve" smooth="yes"/>
      <point x="824" y="1149"/>
      <point x="731" y="1237"/>
      <point x="656" y="1237" type="qcurve" smooth="yes"/>
      <point x="583" y="1237"/>
      <point x="486" y="1151"/>
      <point x="486" y="1083" type="qcurve" smooth="yes"/>
      <point x="486" y="1030"/>
      <point x="547" y="930"/>
    </contour>
  </outline>
</glyph>
<glyph name="quotesingle" format="2">
  <advance width="468"/>
  <unicode hex="0027"/>
  <outline>
    <contour>
      <point x="142" y="847" type="line"/>
      <point x="117" y="1400" type="line"/>
      <point x="352" y="1400" type="line"/>
      <point x="327" y="847" type="line"/>
    </contour>
  </outline>
</glyph>
<glyph name="parenleft" format="2">
  <advance width="699"/>
  <unicode hex="0028"/>
  <outline>
    <contour>
      <point x="395" y="-230" type="line"/>
      <point x="311" y="-89"/>
      <point x="250" y="58"/>
      <point x="209" y="217" type="curve" smooth="yes"/>
      <point x="168" y="374"/>
      <point x="147" y="531"/>
      <point x="147" y="692" type="curve" smooth="yes"/>
      <point x="147" y="800"/>
      <point x="156" y="904"/>
      <point x="175" y="1011" type="curve" smooth="yes"/>
      <point x="211" y="1222"/>
      <point x="283" y="1423"/>
      <point x="395" y="1610" type="curve"/>
      <point x="592" y="1533" type="line"/>
      <point x="519" y="1417"/>
      <point x="465" y="1284"/>
      <point x="428" y="1141" type="curve" smooth="yes"/>
      <point x="391" y="997"/>
      <point x="373" y="848"/>
      <point x="373" y="696" type="curve" smooth="yes"/>
      <point x="373" y="544"/>
      <point x="392" y="396"/>
      <point x="429" y="248" type="curve" smooth="yes"/>
      <point x="465" y="100"/>
      <point x="519" y="-32"/>
      <point x="592" y="-153" type="curve"/>
    </contour>
  </outline>
</glyph>
<glyph name="parenright" format="2">
  <advance width="699"/>
  <unicode hex="0029"/>
  <outline>
    <contour>
      <point x="304" y="1610" type="curve"/>
      <point x="107" y="1533" type="line"/>
      <point x="180" y="1412"/>
      <point x="234" y="1281"/>
      <point x="271" y="1132" type="curve" smooth="yes"/>
      <point x="308" y="983"/>
      <point x="326" y="837"/>
      <point x="326" y="684" type="curve" smooth="yes"/>
      <point x="326" y="531"/>
      <point x="308" y="384"/>
      <point x="271" y="240" type="curve" smooth="yes"/>
      <point x="235" y="95"/>
      <point x="183" y="-36"/>
      <point x="107" y="-153" type="curve"/>
      <point x="304" y="-230" type="line"/>
      <point x="417" y="-41"/>
      <point x="488" y="157"/>
      <point x="524" y="370" type="curve" smooth="yes"/>
      <point x="543" y="475"/>
      <point x="552" y="580"/>
      <point x="552" y="688" type="curve" smooth="yes"/>
      <point x="552" y="849"/>
      <point x="531" y="1006"/>
      <point x="490" y="1163" type="curve" smooth="yes"/>
      <point x="449" y="1323"/>
      <point x="388" y="1469"/>
    </contour>
  </outline>
</glyph>
<glyph name="asterisk" format="2">
  <advance width="1090"/>
  <unicode hex="002A"/>
  <outline>
    <contour>
      <point x="384" y="603" type="line"/>
      <point x="229" y="714" type="line"/>
      <point x="418" y="945" type="line"/>
      <point x="127" y="1024" type="line"/>
      <point x="188" y="1208" type="line"/>
      <point x="468" y="1099" type="line"/>
      <point x="449" y="1400" type="line"/>
      <point x="642" y="1400" type="line"/>
      <point x="626" y="1101" type="line"/>
      <point x="906" y="1209" type="line"/>
      <point x="967" y="1025" type="line"/>
      <point x="675" y="948" type="line"/>
      <point x="867" y="714" type="line"/>
      <point x="708" y="604" type="line"/>
      <point x="547" y="857" type="line"/>
    </contour>
  </outline>
</glyph>
<glyph name="plus" format="2">
  <advance width="1296"/>
  <unicode hex="002B"/>
  <outline>
    <contour>
      <point x="553" y="165" type="line"/>
      <point x="553" y="576" type="line"/>
      <point x="124" y="576" type="line"/>
      <point x="124" y="758" type="line"/>
      <point x="553" y="758" type="line"/>
      <point x="553" y="1169" type="line"/>
      <point x="743" y="1169" type="line"/>
      <point x="743" y="758" type="line"/>
      <point x="1172" y="758" type="line"/>
      <point x="1172" y="576" type="line"/>
      <point x="743" y="576" type="line"/>
      <point x="743" y="165" type="line"/>
    </contour>
  </outline>
</glyph>
<glyph name="comma" format="2">
  <advance width="550"/>
  <unicode hex="002C"/>
  <outline>
    <contour>
      <point x="61" y="-208" type="line"/>
      <point x="114" y="-183"/>
      <point x="160" y="-154"/>
      <point x="201" y="-119" type="curve" smooth="yes"/>
      <point x="242" y="-84"/>
      <point x="270" y="-49"/>
      <point x="286" y="-14" type="curve"/>
      <point x="253" y="-16"/>
      <point x="222" y="-11"/>
      <point x="195" y="1" type="curve" smooth="yes"/>
      <point x="140" y="25"/>
      <point x="105" y="73"/>
      <point x="105" y="136" type="curve" smooth="yes"/>
      <point x="105" y="184"/>
      <point x="121" y="223"/>
      <point x="152" y="253" type="curve" smooth="yes"/>
      <point x="183" y="282"/>
      <point x="222" y="297"/>
      <point x="271" y="297" type="curve" smooth="yes"/>
      <point x="326" y="297"/>
      <point x="370" y="279"/>
      <point x="404" y="243" type="curve" smooth="yes"/>
      <point x="438" y="206"/>
      <point x="455" y="157"/>
      <point x="455" y="94" type="curve" smooth="yes"/>
      <point x="455" y="45"/>
      <point x="444" y="-3"/>
      <point x="421" y="-52" type="curve" smooth="yes"/>
      <point x="375" y="-148"/>
      <point x="282" y="-241"/>
      <point x="145" y="-321" type="curve"/>
    </contour>
  </outline>
</glyph>
<glyph name="period" format="2">
  <advance width="550"/>
  <unicode hex="002E"/>
  <outline>
    <contour>
      <point x="275" y="-30" type="qcurve" smooth="yes"/>
      <point x="240" y="-30"/>
      <point x="180" y="-7"/>
      <point x="154" y="15" type="qcurve" smooth="yes"/>
      <point x="129" y="37"/>
      <point x="103" y="95"/>
      <point x="103" y="133" type="qcurve" smooth="yes"/>
      <point x="103" y="158"/>
      <point x="115" y="202"/>
      <point x="127" y="220" type="qcurve"/>
      <point x="150" y="257"/>
      <point x="228" y="297"/>
      <point x="275" y="297" type="qcurve" smooth="yes"/>
      <point x="311" y="297"/>
      <point x="372" y="275"/>
      <point x="397" y="253" type="qcurve" smooth="yes"/>
      <point x="423" y="231"/>
      <point x="447" y="171"/>
      <point x="447" y="133" type="qcurve" smooth="yes"/>
      <point x="447" y="108"/>
      <point x="436" y="65"/>
      <point x="424" y="47" type="qcurve" smooth="yes"/>
      <point x="400" y="10"/>
      <point x="322" y="-30"/>
    </contour>
  </outline>
</glyph>
<glyph name="slash" format="2">
  <advance width="920"/>
  <unicode hex="002F"/>
  <outline>
    <contour>
      <point x="206" y="-230" type="line"/>
      <point x="925" y="1527" type="line"/>
      <point x="714" y="1610" type="line"/>
      <point x="-5" y="-147" type="line"/>
    </contour>
  </outline>
</glyph>
<glyph name="zero" format="2">
  <advance width="1362"/>
  <unicode hex="0030"/>
  <outline>
    <contour>
      <point x="681" y="-30" type="qcurve" smooth="yes"/>
      <point x="544" y="-30"/>
      <point x="328" y="84"/>
      <point x="179" y="286"/>
      <point x="100" y="550"/>
      <point x="100" y="700" type="qcurve" smooth="yes"/>
      <point x="100" y="851"/>
      <point x="179" y="1115"/>
      <point x="328" y="1316"/>
      <point x="544" y="1430"/>
      <point x="681" y="1430" type="qcurve" smooth="yes"/>
      <point x="818" y="1430"/>
      <point x="1033" y="1316"/>
      <point x="1183" y="1115"/>
      <point x="1262" y="851"/>
      <point x="1262" y="700" type="qcurve" smooth="yes"/>
      <point x="1262" y="550"/>
      <point x="1183" y="286"/>
      <point x="1033" y="84"/>
      <point x="818" y="-30"/>
    </contour>
    <contour>
      <point x="681" y="197" type="qcurve" smooth="yes"/>
      <point x="756" y="197"/>
      <point x="877" y="265"/>
      <point x="964" y="395"/>
      <point x="1011" y="581"/>
      <point x="1011" y="700" type="qcurve" smooth="yes"/>
      <point x="1011" y="859"/>
      <point x="929" y="1084"/>
      <point x="780" y="1203"/>
      <point x="681" y="1203" type="qcurve" smooth="yes"/>
      <point x="607" y="1203"/>
      <point x="486" y="1135"/>
      <point x="398" y="1006"/>
      <point x="351" y="819"/>
      <point x="351" y="700" type="qcurve" smooth="yes"/>
      <point x="351" y="542"/>
      <point x="434" y="317"/>
      <point x="582" y="197"/>
    </contour>
  </outline>
</glyph>
<glyph name="zero.tnum" format="2">
  <advance width="1200"/>
  <unicode hex="0030"/>
  <outline>
    <contour>
      <point x="600" y="-30" type="curve" smooth="yes"/>
      <point x="969" y="-30"/>
      <point x="1138" y="344"/>
      <point x="1138" y="700" type="curve" smooth="yes"/>
      <point x="1138" y="1057"/>
      <point x="970" y="1430"/>
      <point x="600" y="1430" type="curve" smooth="yes"/>
      <point x="230" y="1430"/>
      <point x="62" y="1057"/>
      <point x="62" y="700" type="curve" smooth="yes"/>
      <point x="62" y="344"/>
      <point x="231" y="-30"/>
    </contour>
    <contour>
      <point x="600" y="197" type="curve" smooth="yes"/>
      <point x="364" y="197"/>
      <point x="300" y="495"/>
      <point x="300" y="700" type="curve" smooth="yes"/>
      <point x="300" y="888"/>
      <point x="355" y="1203"/>
      <point x="600" y="1203" type="curve" smooth="yes"/>
      <point x="803" y="1203"/>
      <point x="903" y="952"/>
      <point x="903" y="700" type="curve" smooth="yes"/>
      <point x="903" y="449"/>
      <point x="801" y="197"/>
    </contour>
  </outline>
</glyph>
<glyph name="one" format="2">
  <advance width="886"/>
  <unicode hex="0031"/>
  <outline>
    <contour>
      <point x="428" y="0" type="line"/>
      <point x="428" y="1123" type="line"/>
      <point x="81" y="997" type="line"/>
      <point x="13" y="1199" type="line"/>
      <point x="564" y="1399" type="line"/>
      <point x="668" y="1400" type="line"/>
      <point x="668" y="0" type="line"/>
    </contour>
  </outline>
</glyph>
<glyph name="two.tnum" format="2">
  <advance width="1200"/>
  <unicode hex="0032"/>
  <outline>
    <contour>
      <point x="125" y="1045" type="line"/>
      <point x="215" y="1296"/>
      <point x="348" y="1430"/>
      <point x="589" y="1430" type="curve" smooth="yes"/>
      <point x="879" y="1430"/>
      <point x="1052" y="1269"/>
      <point x="1052" y="1018" type="curve" smooth="yes"/>
      <point x="1052" y="814"/>
      <point x="961" y="618"/>
      <point x="726" y="429" type="curve" smooth="yes"/>
      <point x="473" y="224" type="line"/>
      <point x="1087" y="224" type="line"/>
      <point x="1087" y="0" type="line"/>
      <point x="113" y="0" type="line"/>
      <point x="113" y="183" type="line"/>
      <point x="512" y="518" type="line" smooth="yes"/>
      <point x="710" y="686"/>
      <point x="811" y="844"/>
      <point x="811" y="988" type="curve" smooth="yes"/>
      <point x="811" y="1123"/>
      <point x="736" y="1204"/>
      <point x="590" y="1204" type="curve" smooth="yes"/>
      <point x="455" y="1204"/>
      <point x="372" y="1103"/>
      <point x="338" y="969" type="curve"/>
    </contour>
  </outline>
</glyph>
<glyph name="three" format="2">
  <advance width="1166"/>
  <unicode hex="0033"/>
  <outline>
    <contour>
      <point x="527" y="-30" type="qcurve" smooth="yes"/>
      <point x="482" y="-30"/>
      <point x="396" y="-21"/>
      <point x="352" y="-11" type="qcurve" smooth="yes"/>
      <point x="266" y="8"/>
      <point x="123" y="73"/>
      <point x="79" y="115" type="qcurve"/>
      <point x="162" y="325" type="line"/>
      <point x="193" y="295"/>
      <point x="271" y="247"/>
      <point x="319" y="229" type="qcurve" smooth="yes"/>
      <point x="368" y="211"/>
      <point x="463" y="193"/>
      <point x="511" y="193" type="qcurve" smooth="yes"/>
      <point x="555" y="193"/>
      <point x="631" y="208"/>
      <point x="664" y="223" type="qcurve" smooth="yes"/>
      <point x="729" y="252"/>
      <point x="800" y="358"/>
      <point x="800" y="429" type="qcurve" smooth="yes"/>
      <point x="800" y="485"/>
      <point x="760" y="570"/>
      <point x="720" y="601" type="qcurve" smooth="yes"/>
      <point x="680" y="632"/>
      <point x="574" y="662"/>
      <point x="507" y="662" type="qcurve" smooth="yes"/>
      <point x="469" y="662"/>
      <point x="386" y="652"/>
      <point x="342" y="641" type="qcurve"/>
      <point x="269" y="808" type="line"/>
      <point x="683" y="1185" type="line"/>
      <point x="92" y="1185" type="line"/>
      <point x="92" y="1400" type="line"/>
      <point x="985" y="1400" type="line"/>
      <point x="985" y="1202" type="line"/>
      <point x="594" y="823" type="line"/>
      <point x="653" y="823"/>
      <point x="763" y="799"/>
      <point x="815" y="777" type="qcurve" smooth="yes"/>
      <point x="867" y="754"/>
      <point x="951" y="686"/>
      <point x="983" y="640" type="qcurve" smooth="yes"/>
      <point x="1015" y="594"/>
      <point x="1047" y="482"/>
      <point x="1047" y="413" type="qcurve" smooth="yes"/>
      <point x="1047" y="347"/>
      <point x="1015" y="233"/>
      <point x="981" y="183" type="qcurve" smooth="yes"/>
      <point x="914" y="82"/>
      <point x="681" y="-30"/>
    </contour>
  </outline>
</glyph>
<glyph name="three.tnum" format="2">
  <advance width="1200"/>
  <unicode hex="0033"/>
  <outline>
    <contour>
      <point x="560" y="-30" type="curve" smooth="yes"/>
      <point x="826" y="-30"/>
      <point x="1071" y="120"/>
      <point x="1071" y="413" type="curve" smooth="yes"/>
      <point x="1071" y="662"/>
      <point x="859" y="822"/>
      <point x="629" y="823" type="curve" smooth="yes"/>
      <point x="627" y="823"/>
      <point x="624" y="823"/>
      <point x="622" y="823" type="curve"/>
      <point x="1009" y="1201" type="line"/>
      <point x="1009" y="1400" type="line"/>
      <point x="134" y="1400" type="line"/>
      <point x="134" y="1185" type="line"/>
      <point x="720" y="1185" type="line"/>
      <point x="308" y="809" type="line"/>
      <point x="382" y="642" type="line"/>
      <point x="437" y="655"/>
      <point x="489" y="662"/>
      <point x="541" y="662" type="curve" smooth="yes"/>
      <point x="696" y="662"/>
      <point x="839" y="597"/>
      <point x="839" y="429" type="curve" smooth="yes"/>
      <point x="839" y="263"/>
      <point x="696" y="193"/>
      <point x="545" y="193" type="curve" smooth="yes"/>
      <point x="414" y="193"/>
      <point x="281" y="237"/>
      <point x="200" y="318" type="curve"/>
      <point x="120" y="114" type="line"/>
      <point x="226" y="16"/>
      <point x="419" y="-30"/>
    </contour>
  </outline>
</glyph>
<glyph name="four.tnum" format="2">
  <advance width="1200"/>
  <unicode hex="0034"/>
  <outline>
    <contour>
      <point x="735" y="0" type="line"/>
      <point x="943" y="0" type="line"/>
      <point x="943" y="279" type="line"/>
      <point x="1142" y="279" type="line"/>
      <point x="1142" y="492" type="line"/>
      <point x="943" y="492" type="line"/>
      <point x="943" y="790" type="line"/>
      <point x="735" y="790" type="line"/>
      <point x="735" y="492" type="line"/>
      <point x="335" y="492" type="line"/>
      <point x="787" y="1400" type="line"/>
      <point x="541" y="1400" type="line"/>
      <point x="79" y="470" type="line"/>
      <point x="79" y="279" type="line"/>
      <point x="735" y="279" type="line"/>
    </contour>
  </outline>
</glyph>
<glyph name="five" format="2">
  <advance width="1172"/>
  <unicode hex="0035"/>
  <outline>
    <contour>
      <point x="528" y="-30" type="curve" smooth="yes"/>
      <point x="440" y="-30"/>
      <point x="358" y="-17"/>
      <point x="277" y="8" type="curve" smooth="yes"/>
      <point x="197" y="33"/>
      <point x="132" y="66"/>
      <point x="79" y="110" type="curve"/>
      <point x="159" y="317" type="line"/>
      <point x="204" y="276"/>
      <point x="258" y="245"/>
      <point x="322" y="224" type="curve" smooth="yes"/>
      <point x="386" y="204"/>
      <point x="449" y="193"/>
      <point x="514" y="193" type="curve" smooth="yes"/>
      <point x="575" y="193"/>
      <point x="628" y="203"/>
      <point x="673" y="223" type="curve" smooth="yes"/>
      <point x="762" y="260"/>
      <point x="811" y="336"/>
      <point x="811" y="443" type="curve" smooth="yes"/>
      <point x="811" y="492"/>
      <point x="799" y="533"/>
      <point x="774" y="568" type="curve" smooth="yes"/>
      <point x="723" y="639"/>
      <point x="631" y="676"/>
      <point x="514" y="676" type="curve" smooth="yes"/>
      <point x="441" y="676"/>
      <point x="359" y="659"/>
      <point x="275" y="622" type="curve"/>
      <point x="168" y="738" type="line"/>
      <point x="241" y="1398" type="line"/>
      <point x="1024" y="1398" type="line"/>
      <point x="1024" y="1173" type="line"/>
      <point x="423" y="1173" type="line"/>
      <point x="384" y="848" type="line"/>
      <point x="448" y="868"/>
      <point x="510" y="878"/>
      <point x="571" y="878" type="curve" smooth="yes"/>
      <point x="666" y="878"/>
      <point x="747" y="861"/>
      <point x="822" y="825" type="curve" smooth="yes"/>
      <point x="970" y="754"/>
      <point x="1058" y="621"/>
      <point x="1058" y="433" type="curve" smooth="yes"/>
      <point x="1058" y="338"/>
      <point x="1036" y="258"/>
      <point x="992" y="189" type="curve" smooth="yes"/>
      <point x="901" y="49"/>
      <point x="740" y="-30"/>
    </contour>
  </outline>
</glyph>
<glyph name="five.tnum" format="2">
  <advance width="1200"/>
  <unicode hex="0035"/>
  <outline>
    <contour>
      <point x="555" y="-30" type="curve" smooth="yes"/>
      <point x="832" y="-30"/>
      <point x="1061" y="127"/>
      <point x="1061" y="433" type="curve" smooth="yes"/>
      <point x="1061" y="727"/>
      <point x="853" y="878"/>
      <point x="596" y="878" type="curve" smooth="yes"/>
      <point x="540" y="878"/>
      <point x="482" y="868"/>
      <point x="423" y="850" type="curve"/>
      <point x="416" y="850" type="line"/>
      <point x="453" y="1173" type="line"/>
      <point x="1028" y="1173" type="line"/>
      <point x="1028" y="1398" type="line"/>
      <point x="282" y="1398" type="line"/>
      <point x="212" y="738" type="line"/>
      <point x="313" y="622" type="line"/>
      <point x="393" y="660"/>
      <point x="472" y="676"/>
      <point x="542" y="676" type="curve" smooth="yes"/>
      <point x="689" y="676"/>
      <point x="828" y="609"/>
      <point x="828" y="443" type="curve" smooth="yes"/>
      <point x="828" y="264"/>
      <point x="697" y="193"/>
      <point x="542" y="193" type="curve" smooth="yes"/>
      <point x="415" y="193"/>
      <point x="290" y="231"/>
      <point x="203" y="316" type="curve"/>
      <point x="126" y="110" type="line"/>
      <point x="241" y="13"/>
      <point x="412" y="-30"/>
    </contour>
  </outline>
</glyph>
<glyph name="seven" format="2">
  <advance width="1103"/>
  <unicode hex="0037"/>
  <outline>
    <contour>
      <point x="179" y="0" type="line"/>
      <point x="777" y="1214" type="line"/>
      <point x="100" y="1214" type="line"/>
      <point x="100" y="1400" type="line"/>
      <point x="1007" y="1400" type="line"/>
      <point x="1007" y="1244" type="line"/>
      <point x="401" y="0" type="line"/>
    </contour>
  </outline>
</glyph>
<glyph name="eight" format="2">
  <advance width="1230"/>
  <unicode hex="0038"/>
  <outline>
    <contour>
      <point x="610" y="-30" type="qcurve" smooth="yes"/>
      <point x="531" y="-30"/>
      <point x="395" y="-2"/>
      <point x="338" y="26" type="qcurve" smooth="yes"/>
      <point x="223" y="82"/>
      <point x="100" y="271"/>
      <point x="100" y="390" type="qcurve" smooth="yes"/>
      <point x="100" y="433"/>
      <point x="115" y="508"/>
      <point x="131" y="541" type="qcurve"/>
      <point x="161" y="608"/>
      <point x="274" y="707"/>
      <point x="354" y="738" type="qcurve"/>
      <point x="314" y="755"/>
      <point x="243" y="810"/>
      <point x="212" y="849" type="qcurve" smooth="yes"/>
      <point x="181" y="888"/>
      <point x="149" y="985"/>
      <point x="149" y="1045" type="qcurve" smooth="yes"/>
      <point x="149" y="1101"/>
      <point x="179" y="1200"/>
      <point x="209" y="1244" type="qcurve" smooth="yes"/>
      <point x="270" y="1331"/>
      <point x="479" y="1430"/>
      <point x="615" y="1430" type="qcurve" smooth="yes"/>
      <point x="684" y="1430"/>
      <point x="805" y="1406"/>
      <point x="859" y="1380" type="qcurve" smooth="yes"/>
      <point x="966" y="1330"/>
      <point x="1085" y="1156"/>
      <point x="1085" y="1045" type="qcurve" smooth="yes"/>
      <point x="1085" y="1005"/>
      <point x="1071" y="935"/>
      <point x="1056" y="905" type="qcurve" smooth="yes"/>
      <point x="1027" y="843"/>
      <point x="933" y="760"/>
      <point x="880" y="738" type="qcurve"/>
      <point x="936" y="715"/>
      <point x="1027" y="648"/>
      <point x="1061" y="603" type="qcurve" smooth="yes"/>
      <point x="1096" y="559"/>
      <point x="1130" y="453"/>
      <point x="1130" y="390" type="qcurve" smooth="yes"/>
      <point x="1130" y="331"/>
      <point x="1097" y="225"/>
      <point x="1065" y="177" type="qcurve" smooth="yes"/>
      <point x="1032" y="129"/>
      <point x="941" y="54"/>
      <point x="882" y="26" type="qcurve" smooth="yes"/>
      <point x="824" y="-2"/>
      <point x="688" y="-30"/>
    </contour>
    <contour>
      <point x="615" y="179" type="qcurve" smooth="yes"/>
      <point x="651" y="179"/>
      <point x="716" y="192"/>
      <point x="747" y="206" type="qcurve"/>
      <point x="809" y="232"/>
      <point x="884" y="334"/>
      <point x="884" y="409" type="qcurve" smooth="yes"/>
      <point x="884" y="447"/>
      <point x="866" y="510"/>
      <point x="848" y="536" type="qcurve" smooth="yes"/>
      <point x="812" y="587"/>
      <point x="690" y="639"/>
      <point x="615" y="639" type="qcurve" smooth="yes"/>
      <point x="558" y="639"/>
      <point x="462" y="609"/>
      <point x="424" y="580" type="qcurve" smooth="yes"/>
      <point x="385" y="551"/>
      <point x="346" y="465"/>
      <point x="346" y="409" type="qcurve" smooth="yes"/>
      <point x="346" y="372"/>
      <point x="365" y="309"/>
      <point x="384" y="283" type="qcurve" smooth="yes"/>
      <point x="421" y="232"/>
      <point x="542" y="179"/>
    </contour>
    <contour>
      <point x="617" y="842" type="qcurve" smooth="yes"/>
      <point x="652" y="842"/>
      <point x="713" y="854"/>
      <point x="740" y="867" type="qcurve"/>
      <point x="794" y="891"/>
      <point x="854" y="979"/>
      <point x="854" y="1038" type="qcurve" smooth="yes"/>
      <point x="854" y="1082"/>
      <point x="822" y="1155"/>
      <point x="789" y="1185" type="qcurve"/>
      <point x="755" y="1214"/>
      <point x="670" y="1243"/>
      <point x="617" y="1243" type="qcurve" smooth="yes"/>
      <point x="582" y="1243"/>
      <point x="520" y="1230"/>
      <point x="494" y="1216" type="qcurve"/>
      <point x="440" y="1189"/>
      <point x="380" y="1096"/>
      <point x="380" y="1038" type="qcurve" smooth="yes"/>
      <point x="380" y="993"/>
      <point x="414" y="923"/>
      <point x="448" y="896" type="qcurve" smooth="yes"/>
      <point x="481" y="869"/>
      <point x="565" y="842"/>
    </contour>
  </outline>
</glyph>
<glyph name="eight.tnum" format="2">
  <advance width="1200"/>
  <unicode hex="0038"/>
  <outline>
    <contour>
      <point x="596" y="-30" type="curve" smooth="yes"/>
      <point x="850" y="-30"/>
      <point x="1092" y="118"/>
      <point x="1092" y="390" type="curve" smooth="yes"/>
      <point x="1092" y="557"/>
      <point x="995" y="679"/>
      <point x="854" y="738" type="curve"/>
      <point x="976" y="791"/>
      <point x="1048" y="904"/>
      <point x="1048" y="1045" type="curve" smooth="yes"/>
      <point x="1048" y="1294"/>
      <point x="833" y="1430"/>
      <point x="600" y="1430" type="curve" smooth="yes"/>
      <point x="378" y="1430"/>
      <point x="156" y="1301"/>
      <point x="156" y="1045" type="curve" smooth="yes"/>
      <point x="156" y="906"/>
      <point x="231" y="790"/>
      <point x="350" y="738" type="curve"/>
      <point x="202" y="678"/>
      <point x="109" y="561"/>
      <point x="109" y="390" type="curve" smooth="yes"/>
      <point x="109" y="116"/>
      <point x="339" y="-30"/>
    </contour>
    <contour>
      <point x="600" y="179" type="curve" smooth="yes"/>
      <point x="462" y="179"/>
      <point x="341" y="260"/>
      <point x="341" y="409" type="curve" smooth="yes"/>
      <point x="341" y="564"/>
      <point x="460" y="639"/>
      <point x="600" y="639" type="curve" smooth="yes"/>
      <point x="742" y="639"/>
      <point x="859" y="562"/>
      <point x="859" y="409" type="curve" smooth="yes"/>
      <point x="859" y="257"/>
      <point x="735" y="179"/>
    </contour>
    <contour>
      <point x="602" y="842" type="curve" smooth="yes"/>
      <point x="486" y="842"/>
      <point x="374" y="908"/>
      <point x="374" y="1038" type="curve" smooth="yes"/>
      <point x="374" y="1170"/>
      <point x="484" y="1243"/>
      <point x="602" y="1243" type="curve" smooth="yes"/>
      <point x="724" y="1243"/>
      <point x="830" y="1171"/>
      <point x="830" y="1038" type="curve" smooth="yes"/>
      <point x="830" y="904"/>
      <point x="719" y="842"/>
    </contour>
  </outline>
</glyph>
<glyph name="colon" format="2">
  <advance width="597"/>
  <unicode hex="003A"/>
  <outline>
    <contour>
      <point x="299" y="713" type="qcurve" smooth="yes"/>
      <point x="263" y="713"/>
      <point x="200" y="736"/>
      <point x="154" y="779"/>
      <point x="127" y="839"/>
      <point x="127" y="876" type="qcurve" smooth="yes"/>
      <point x="127" y="914"/>
      <point x="154" y="974"/>
      <point x="201" y="1017"/>
      <point x="264" y="1040"/>
      <point x="298" y="1040" type="qcurve"/>
      <point x="336" y="1041"/>
      <point x="398" y="1017"/>
      <point x="444" y="974"/>
      <point x="471" y="913"/>
      <point x="471" y="876" type="qcurve" smooth="yes"/>
      <point x="471" y="839"/>
      <point x="443" y="778"/>
      <point x="396" y="736"/>
      <point x="334" y="713"/>
    </contour>
    <contour>
      <point x="299" y="-30" type="qcurve" smooth="yes"/>
      <point x="263" y="-30"/>
      <point x="200" y="-7"/>
      <point x="154" y="36"/>
      <point x="127" y="96"/>
      <point x="127" y="133" type="qcurve" smooth="yes"/>
      <point x="127" y="171"/>
      <point x="154" y="231"/>
      <point x="201" y="274"/>
      <point x="264" y="297"/>
      <point x="298" y="297" type="qcurve"/>
      <point x="336" y="298"/>
      <point x="398" y="274"/>
      <point x="444" y="231"/>
      <point x="471" y="170"/>
      <point x="471" y="133" type="qcurve" smooth="yes"/>
      <point x="471" y="96"/>
      <point x="443" y="35"/>
      <point x="396" y="-7"/>
      <point x="334" y="-30"/>
    </contour>
  </outline>
</glyph>
<glyph name="semicolon" format="2">
  <advance width="597"/>
  <unicode hex="003B"/>
  <outline>
    <contour>
      <point x="299" y="713" type="qcurve" smooth="yes"/>
      <point x="263" y="713"/>
      <point x="203" y="736"/>
      <point x="178" y="758" type="qcurve" smooth="yes"/>
      <point x="152" y="780"/>
      <point x="127" y="838"/>
      <point x="127" y="876" type="qcurve" smooth="yes"/>
      <point x="127" y="901"/>
      <point x="138" y="945"/>
      <point x="150" y="963" type="qcurve"/>
      <point x="173" y="1000"/>
      <point x="252" y="1040"/>
      <point x="298" y="1040" type="qcurve" smooth="yes"/>
      <point x="334" y="1040"/>
      <point x="395" y="1018"/>
      <point x="421" y="996" type="qcurve" smooth="yes"/>
      <point x="446" y="974"/>
      <point x="471" y="914"/>
      <point x="471" y="876" type="qcurve" smooth="yes"/>
      <point x="471" y="851"/>
      <point x="459" y="808"/>
      <point x="448" y="790" type="qcurve"/>
      <point x="424" y="753"/>
      <point x="346" y="713"/>
    </contour>
    <contour>
      <point x="84" y="-207" type="line"/>
      <point x="124" y="-189"/>
      <point x="194" y="-145"/>
      <point x="225" y="-118" type="qcurve" smooth="yes"/>
      <point x="255" y="-92"/>
      <point x="298" y="-40"/>
      <point x="310" y="-14" type="qcurve"/>
      <point x="284" y="-15"/>
      <point x="240" y="-8"/>
      <point x="219" y="1" type="qcurve" smooth="yes"/>
      <point x="177" y="19"/>
      <point x="128" y="88"/>
      <point x="128" y="136" type="qcurve" smooth="yes"/>
      <point x="128" y="172"/>
      <point x="152" y="230"/>
      <point x="175" y="253" type="qcurve" smooth="yes"/>
      <point x="198" y="275"/>
      <point x="257" y="297"/>
      <point x="294" y="297" type="qcurve" smooth="yes"/>
      <point x="336" y="297"/>
      <point x="402" y="270"/>
      <point x="427" y="243" type="qcurve" smooth="yes"/>
      <point x="453" y="215"/>
      <point x="478" y="141"/>
      <point x="478" y="94" type="qcurve" smooth="yes"/>
      <point x="478" y="58"/>
      <point x="461" y="-15"/>
      <point x="444" y="-51" type="qcurve" smooth="yes"/>
      <point x="409" y="-124"/>
      <point x="272" y="-260"/>
      <point x="168" y="-321" type="qcurve"/>
    </contour>
  </outline>
</glyph>
<glyph name="less" format="2">
  <advance width="1296"/>
  <unicode hex="003C"/>
  <outline>
    <contour>
      <point x="1110" y="1135" type="line"/>
      <point x="124" y="739" type="line"/>
      <point x="124" y="558" type="line"/>
      <point x="1111" y="160" type="line"/>
      <point x="1182" y="339" type="line"/>
      <point x="411" y="649" type="line"/>
      <point x="1182" y="956" type="line"/>
    </contour>
  </outline>
</glyph>
<glyph name="equal" format="2">
  <advance width="1296"/>
  <unicode hex="003D"/>
  <outline>
    <contour>
      <point x="124" y="778" type="line"/>
      <point x="1172" y="778" type="line"/>
      <point x="1172" y="960" type="line"/>
      <point x="124" y="960" type="line"/>
    </contour>
    <contour>
      <point x="124" y="370" type="line"/>
      <point x="1172" y="370" type="line"/>
      <point x="1172" y="552" type="line"/>
      <point x="124" y="552" type="line"/>
    </contour>
  </outline>
</glyph>
<glyph name="greater" format="2">
  <advance width="1296"/>
  <unicode hex="003E"/>
  <outline>
    <contour>
      <point x="195" y="193" type="line"/>
      <point x="134" y="343" type="line"/>
      <point x="914" y="653" type="line"/>
      <point x="134" y="966" type="line"/>
      <point x="194" y="1116" type="line"/>
      <point x="1151" y="727" type="line"/>
      <point x="1151" y="579" type="line"/>
    </contour>
  </outline>
</glyph>
<glyph name="question" format="2">
  <advance width="1001"/>
  <unicode hex="003F"/>
  <outline>
    <contour>
      <point x="426" y="421" type="line"/>
      <point x="375" y="475"/>
      <point x="343" y="529"/>
      <point x="332" y="582" type="curve" smooth="yes"/>
      <point x="320" y="635"/>
      <point x="327" y="683"/>
      <point x="353" y="726" type="curve" smooth="yes"/>
      <point x="378" y="769"/>
      <point x="414" y="806"/>
      <point x="459" y="835" type="curve" smooth="yes"/>
      <point x="523" y="876"/>
      <point x="566" y="911"/>
      <point x="587" y="939" type="curve" smooth="yes"/>
      <point x="608" y="967"/>
      <point x="619" y="998"/>
      <point x="619" y="1032" type="curve" smooth="yes"/>
      <point x="619" y="1139"/>
      <point x="541" y="1191"/>
      <point x="400" y="1191" type="curve" smooth="yes"/>
      <point x="303" y="1191"/>
      <point x="216" y="1162"/>
      <point x="136" y="1107" type="curve"/>
      <point x="75" y="1318" type="line"/>
      <point x="163" y="1398"/>
      <point x="339" y="1430"/>
      <point x="457" y="1430" type="curve" smooth="yes"/>
      <point x="674" y="1430"/>
      <point x="912" y="1329"/>
      <point x="912" y="1083" type="curve" smooth="yes"/>
      <point x="912" y="1042"/>
      <point x="905" y="1004"/>
      <point x="890" y="969" type="curve" smooth="yes"/>
      <point x="861" y="898"/>
      <point x="794" y="832"/>
      <point x="677" y="753" type="curve" smooth="yes"/>
      <point x="636" y="726"/>
      <point x="609" y="698"/>
      <point x="595" y="668" type="curve"/>
      <point x="580" y="638"/>
      <point x="578" y="616"/>
      <point x="587" y="602" type="curve"/>
      <point x="596" y="587"/>
      <point x="611" y="567"/>
      <point x="632" y="540" type="curve"/>
    </contour>
    <contour>
      <point x="453" y="-30" type="curve" smooth="yes"/>
      <point x="406" y="-30"/>
      <point x="366" y="-15"/>
      <point x="332" y="15" type="curve" smooth="yes"/>
      <point x="298" y="44"/>
      <point x="281" y="84"/>
      <point x="281" y="133" type="curve" smooth="yes"/>
      <point x="281" y="166"/>
      <point x="289" y="195"/>
      <point x="305" y="220" type="curve" smooth="yes"/>
      <point x="336" y="269"/>
      <point x="390" y="297"/>
      <point x="453" y="297" type="curve" smooth="yes"/>
      <point x="500" y="297"/>
      <point x="541" y="282"/>
      <point x="575" y="253" type="curve"/>
      <point x="608" y="223"/>
      <point x="625" y="183"/>
      <point x="625" y="133" type="curve" smooth="yes"/>
      <point x="625" y="100"/>
      <point x="617" y="72"/>
      <point x="602" y="47" type="curve"/>
      <point x="570" y="-2"/>
      <point x="516" y="-30"/>
    </contour>
  </outline>
</glyph>
<glyph name="at" format="2">
  <advance width="1707"/>
  <unicode hex="0040"/>
  <outline>
    <contour>
      <point x="859" y="-234" type="qcurve" smooth="yes"/>
      <point x="745" y="-234"/>
      <point x="545" y="-189"/>
      <point x="458" y="-143" type="qcurve" smooth="yes"/>
      <point x="371" y="-98"/>
      <point x="238" y="29"/>
      <point x="188" y="110" type="qcurve" smooth="yes"/>
      <point x="139" y="191"/>
      <point x="91" y="378"/>
      <point x="91" y="485" type="qcurve" smooth="yes"/>
      <point x="91" y="649"/>
      <point x="209" y="924"/>
      <point x="316" y="1027" type="qcurve" smooth="yes"/>
      <point x="423" y="1130"/>
      <point x="710" y="1242"/>
      <point x="880" y="1242" type="qcurve" smooth="yes"/>
      <point x="990" y="1242"/>
      <point x="1180" y="1200"/>
      <point x="1263" y="1158" type="qcurve" smooth="yes"/>
      <point x="1346" y="1115"/>
      <point x="1475" y="998"/>
      <point x="1523" y="923" type="qcurve" smooth="yes"/>
      <point x="1570" y="847"/>
      <point x="1616" y="674"/>
      <point x="1616" y="575" type="qcurve" smooth="yes"/>
      <point x="1616" y="514"/>
      <point x="1592" y="405"/>
      <point x="1568" y="355" type="qcurve" smooth="yes"/>
      <point x="1544" y="306"/>
      <point x="1479" y="229"/>
      <point x="1438" y="200" type="qcurve" smooth="yes"/>
      <point x="1397" y="171"/>
      <point x="1308" y="143"/>
      <point x="1258" y="143" type="qcurve" smooth="yes"/>
      <point x="1174" y="143"/>
      <point x="1066" y="212"/>
      <point x="1044" y="273" type="qcurve"/>
      <point x="997" y="209"/>
      <point x="865" y="143"/>
      <point x="780" y="143" type="qcurve" smooth="yes"/>
      <point x="733" y="143"/>
      <point x="652" y="166"/>
      <point x="615" y="188" type="qcurve"/>
      <point x="543" y="234"/>
      <point x="460" y="389"/>
      <point x="460" y="490" type="qcurve" smooth="yes"/>
      <point x="460" y="545"/>
      <point x="484" y="644"/>
      <point x="508" y="688" type="qcurve" smooth="yes"/>
      <point x="531" y="732"/>
      <point x="594" y="801"/>
      <point x="635" y="827" type="qcurve" smooth="yes"/>
      <point x="676" y="853"/>
      <point x="766" y="878"/>
      <point x="817" y="878" type="qcurve" smooth="yes"/>
      <point x="884" y="878"/>
      <point x="995" y="830"/>
      <point x="1043" y="780" type="qcurve"/>
      <point x="1046" y="852" type="line"/>
      <point x="1189" y="852" type="line"/>
      <point x="1166" y="422" type="line" smooth="yes"/>
      <point x="1164" y="385"/>
      <point x="1175" y="332"/>
      <point x="1187" y="315" type="qcurve" smooth="yes"/>
      <point x="1200" y="297"/>
      <point x="1243" y="280"/>
      <point x="1275" y="280" type="qcurve" smooth="yes"/>
      <point x="1303" y="280"/>
      <point x="1352" y="298"/>
      <point x="1374" y="317" type="qcurve"/>
      <point x="1417" y="352"/>
      <point x="1465" y="484"/>
      <point x="1465" y="574" type="qcurve" smooth="yes"/>
      <point x="1465" y="654"/>
      <point x="1428" y="791"/>
      <point x="1391" y="851" type="qcurve" smooth="yes"/>
      <point x="1353" y="911"/>
      <point x="1250" y="1004"/>
      <point x="1184" y="1038" type="qcurve" smooth="yes"/>
      <point x="1117" y="1072"/>
      <point x="965" y="1105"/>
      <point x="877" y="1105" type="qcurve" smooth="yes"/>
      <point x="740" y="1105"/>
      <point x="511" y="1013"/>
      <point x="424" y="928" type="qcurve" smooth="yes"/>
      <point x="337" y="844"/>
      <point x="242" y="619"/>
      <point x="242" y="485" type="qcurve" smooth="yes"/>
      <point x="242" y="398"/>
      <point x="281" y="248"/>
      <point x="321" y="183" type="qcurve" smooth="yes"/>
      <point x="360" y="117"/>
      <point x="468" y="16"/>
      <point x="539" y="-21" type="qcurve" smooth="yes"/>
      <point x="610" y="-57"/>
      <point x="772" y="-94"/>
      <point x="865" y="-94" type="qcurve" smooth="yes"/>
      <point x="912" y="-94"/>
      <point x="1002" y="-85"/>
      <point x="1048" y="-75" type="qcurve" smooth="yes"/>
      <point x="1138" y="-57"/>
      <point x="1295" y="11"/>
      <point x="1355" y="59" type="qcurve"/>
      <point x="1415" y="-71" type="line"/>
      <point x="1380" y="-96"/>
      <point x="1301" y="-140"/>
      <point x="1256" y="-158" type="qcurve" smooth="yes"/>
      <point x="1165" y="-195"/>
      <point x="964" y="-234"/>
    </contour>
    <contour>
      <point x="803" y="297" type="qcurve" smooth="yes"/>
      <point x="849" y="297"/>
      <point x="922" y="329"/>
      <point x="949" y="361" type="qcurve" smooth="yes"/>
      <point x="975" y="393"/>
      <point x="1001" y="479"/>
      <point x="1001" y="535" type="qcurve" smooth="yes"/>
      <point x="1001" y="627"/>
      <point x="915" y="723"/>
      <point x="834" y="723" type="qcurve" smooth="yes"/>
      <point x="788" y="723"/>
      <point x="716" y="692"/>
      <point x="690" y="660" type="qcurve" smooth="yes"/>
      <point x="663" y="628"/>
      <point x="636" y="542"/>
      <point x="636" y="487" type="qcurve" smooth="yes"/>
      <point x="636" y="396"/>
      <point x="723" y="297"/>
    </contour>
  </outline>
</glyph>
<glyph name="A" format="2">
  <advance width="1411"/>
  <unicode hex="0041"/>
  <outline>
    <contour>
      <point x="18" y="0" type="line"/>
      <point x="555" y="1400" type="line"/>
      <point x="845" y="1400" type="line"/>
      <point x="1393" y="0" type="line"/>
      <point x="1100" y="0" type="line"/>
      <point x="981" y="317" type="line"/>
      <point x="418" y="317" type="line"/>
      <point x="303" y="0" type="line"/>
    </contour>
    <contour>
      <point x="482" y="538" type="line"/>
      <point x="915" y="538" type="line"/>
      <point x="695" y="1106" type="line"/>
    </contour>
  </outline>
</glyph>
<glyph name="B" format="2">
  <advance width="1287"/>
  <unicode hex="0042"/>
  <outline>
    <contour>
      <point x="178" y="0" type="line"/>
      <point x="178" y="1400" type="line"/>
      <point x="679" y="1400" type="line" smooth="yes"/>
      <point x="885" y="1400"/>
      <point x="1135" y="1221"/>
      <point x="1135" y="1046" type="qcurve" smooth="yes"/>
      <point x="1135" y="981"/>
      <point x="1076" y="865"/>
      <point x="980" y="778"/>
      <point x="925" y="755" type="qcurve"/>
      <point x="1039" y="719"/>
      <point x="1187" y="533"/>
      <point x="1187" y="399" type="qcurve" smooth="yes"/>
      <point x="1187" y="281"/>
      <point x="1068" y="101"/>
      <point x="849" y="0"/>
      <point x="698" y="0" type="qcurve" smooth="yes"/>
    </contour>
    <contour>
      <point x="438" y="199" type="line"/>
      <point x="657" y="199" type="line" smooth="yes"/>
      <point x="789" y="199"/>
      <point x="918" y="304"/>
      <point x="918" y="409" type="qcurve" smooth="yes"/>
      <point x="918" y="512"/>
      <point x="790" y="622"/>
      <point x="658" y="622" type="qcurve" smooth="yes"/>
      <point x="438" y="622" type="line"/>
    </contour>
    <contour>
      <point x="438" y="810" type="line"/>
      <point x="641" y="810" type="line" smooth="yes"/>
      <point x="715" y="810"/>
      <point x="823" y="858"/>
      <point x="882" y="949"/>
      <point x="882" y="1012" type="qcurve" smooth="yes"/>
      <point x="882" y="1104"/>
      <point x="755" y="1201"/>
      <point x="637" y="1201" type="qcurve" smooth="yes"/>
      <point x="438" y="1201" type="line"/>
    </contour>
  </outline>
</glyph>
<glyph name="C" format="2">
  <advance width="1399"/>
  <unicode hex="0043"/>
  <outline>
    <contour>
      <point x="819" y="-30" type="curve" smooth="yes"/>
      <point x="674" y="-30"/>
      <point x="549" y="0"/>
      <point x="438" y="60" type="curve" smooth="yes"/>
      <point x="327" y="121"/>
      <point x="244" y="203"/>
      <point x="183" y="314" type="curve"/>
      <point x="120" y="423"/>
      <point x="91" y="550"/>
      <point x="91" y="698" type="curve" smooth="yes"/>
      <point x="91" y="914"/>
      <point x="165" y="1092"/>
      <point x="297" y="1225" type="curve" smooth="yes"/>
      <point x="429" y="1357"/>
      <point x="609" y="1430"/>
      <point x="822" y="1430" type="curve" smooth="yes"/>
      <point x="933" y="1430"/>
      <point x="1026" y="1416"/>
      <point x="1105" y="1389" type="curve"/>
      <point x="1182" y="1361"/>
      <point x="1252" y="1322"/>
      <point x="1312" y="1271" type="curve"/>
      <point x="1179" y="1058" type="line"/>
      <point x="1095" y="1141"/>
      <point x="980" y="1178"/>
      <point x="840" y="1178" type="curve" smooth="yes"/>
      <point x="692" y="1178"/>
      <point x="575" y="1134"/>
      <point x="492" y="1050" type="curve" smooth="yes"/>
      <point x="408" y="966"/>
      <point x="363" y="849"/>
      <point x="363" y="701" type="curve" smooth="yes"/>
      <point x="363" y="600"/>
      <point x="383" y="515"/>
      <point x="422" y="444" type="curve" smooth="yes"/>
      <point x="501" y="300"/>
      <point x="649" y="223"/>
      <point x="849" y="223" type="curve" smooth="yes"/>
      <point x="986" y="223"/>
      <point x="1114" y="262"/>
      <point x="1229" y="353" type="curve"/>
      <point x="1349" y="134" type="line"/>
      <point x="1281" y="82"/>
      <point x="1206" y="42"/>
      <point x="1118" y="13" type="curve" smooth="yes"/>
      <point x="1030" y="-15"/>
      <point x="932" y="-30"/>
    </contour>
  </outline>
</glyph>
<glyph name="D" format="2">
  <advance width="1438"/>
  <unicode hex="0044"/>
  <outline>
    <contour>
      <point x="178" y="0" type="line"/>
      <point x="178" y="1400" type="line"/>
      <point x="630" y="1400" type="line" smooth="yes"/>
      <point x="771" y="1400"/>
      <point x="895" y="1371"/>
      <point x="1004" y="1311" type="curve" smooth="yes"/>
      <point x="1112" y="1251"/>
      <point x="1195" y="1169"/>
      <point x="1256" y="1064" type="curve" smooth="yes"/>
      <point x="1317" y="959"/>
      <point x="1347" y="838"/>
      <point x="1347" y="699" type="curve" smooth="yes"/>
      <point x="1347" y="492"/>
      <point x="1276" y="320"/>
      <point x="1148" y="196" type="curve" smooth="yes"/>
      <point x="1019" y="71"/>
      <point x="843" y="0"/>
      <point x="630" y="0" type="curve" smooth="yes"/>
    </contour>
    <contour>
      <point x="438" y="242" type="line"/>
      <point x="606" y="242" type="line" smooth="yes"/>
      <point x="749" y="242"/>
      <point x="862" y="284"/>
      <point x="946" y="363" type="curve" smooth="yes"/>
      <point x="1030" y="443"/>
      <point x="1075" y="555"/>
      <point x="1075" y="699" type="curve" smooth="yes"/>
      <point x="1075" y="796"/>
      <point x="1056" y="878"/>
      <point x="1017" y="947" type="curve" smooth="yes"/>
      <point x="938" y="1084"/>
      <point x="795" y="1158"/>
      <point x="606" y="1158" type="curve" smooth="yes"/>
      <point x="438" y="1158" type="line"/>
    </contour>
  </outline>
</glyph>
<glyph name="E" format="2">
  <advance width="1243"/>
  <unicode hex="0045"/>
  <outline>
    <contour>
      <point x="178" y="0" type="line"/>
      <point x="178" y="1400" type="line"/>
      <point x="1109" y="1400" type="line"/>
      <point x="1109" y="1172" type="line"/>
      <point x="438" y="1172" type="line"/>
      <point x="438" y="833" type="line"/>
      <point x="1012" y="833" type="line"/>
      <point x="1012" y="620" type="line"/>
      <point x="438" y="620" type="line"/>
      <point x="438" y="230" type="line"/>
      <point x="1116" y="230" type="line"/>
      <point x="1116" y="0" type="line"/>
    </contour>
  </outline>
</glyph>
<glyph name="F" format="2">
  <advance width="1174"/>
  <unicode hex="0046"/>
  <outline>
    <contour>
      <point x="178" y="0" type="line"/>
      <point x="178" y="1400" type="line"/>
      <point x="1062" y="1400" type="line"/>
      <point x="1062" y="1162" type="line"/>
      <point x="438" y="1162" type="line"/>
      <point x="438" y="797" type="line"/>
      <point x="1001" y="797" type="line"/>
      <point x="1001" y="567" type="line"/>
      <point x="438" y="567" type="line"/>
      <point x="438" y="0" type="line"/>
    </contour>
  </outline>
</glyph>
<glyph name="G" format="2">
  <advance width="1506"/>
  <unicode hex="0047"/>
  <outline>
    <contour>
      <point x="875" y="-30" type="curve" smooth="yes"/>
      <point x="654" y="-30"/>
      <point x="462" y="39"/>
      <point x="319" y="167" type="curve" smooth="yes"/>
      <point x="175" y="294"/>
      <point x="91" y="474"/>
      <point x="91" y="698" type="curve" smooth="yes"/>
      <point x="91" y="922"/>
      <point x="171" y="1102"/>
      <point x="311" y="1231" type="curve" smooth="yes"/>
      <point x="450" y="1360"/>
      <point x="636" y="1430"/>
      <point x="855" y="1430" type="curve" smooth="yes"/>
      <point x="906" y="1430"/>
      <point x="956" y="1426"/>
      <point x="1009" y="1418" type="curve" smooth="yes"/>
      <point x="1116" y="1402"/>
      <point x="1221" y="1368"/>
      <point x="1317" y="1301" type="curve"/>
      <point x="1206" y="1098" type="line"/>
      <point x="1106" y="1162"/>
      <point x="991" y="1193"/>
      <point x="866" y="1193" type="curve" smooth="yes"/>
      <point x="710" y="1193"/>
      <point x="584" y="1147"/>
      <point x="496" y="1060" type="curve" smooth="yes"/>
      <point x="408" y="975"/>
      <point x="359" y="853"/>
      <point x="359" y="698" type="curve" smooth="yes"/>
      <point x="359" y="590"/>
      <point x="381" y="500"/>
      <point x="428" y="425" type="curve" smooth="yes"/>
      <point x="520" y="276"/>
      <point x="684" y="198"/>
      <point x="889" y="198" type="curve" smooth="yes"/>
      <point x="985" y="198"/>
      <point x="1066" y="219"/>
      <point x="1117" y="242" type="curve"/>
      <point x="1117" y="550" type="line"/>
      <point x="780" y="550" type="line"/>
      <point x="780" y="762" type="line"/>
      <point x="1348" y="762" type="line"/>
      <point x="1348" y="88" type="line"/>
      <point x="1311" y="64"/>
      <point x="1263" y="44"/>
      <point x="1207" y="25" type="curve"/>
      <point x="1151" y="8"/>
      <point x="1094" y="-7"/>
      <point x="1035" y="-16" type="curve" smooth="yes"/>
      <point x="975" y="-25"/>
      <point x="923" y="-30"/>
    </contour>
  </outline>
</glyph>
<glyph name="H" format="2">
  <advance width="1512"/>
  <unicode hex="0048"/>
  <outline>
    <contour>
      <point x="178" y="0" type="line"/>
      <point x="438" y="0" type="line"/>
      <point x="438" y="618" type="line"/>
      <point x="1074" y="618" type="line"/>
      <point x="1074" y="0" type="line"/>
      <point x="1334" y="0" type="line"/>
      <point x="1334" y="1400" type="line"/>
      <point x="1074" y="1400" type="line"/>
      <point x="1074" y="856" type="line"/>
      <point x="438" y="856" type="line"/>
      <point x="438" y="1400" type="line"/>
      <point x="178" y="1400" type="line"/>
    </contour>
  </outline>
</glyph>
<glyph name="J" format="2">
  <advance width="1025"/>
  <unicode hex="004A"/>
  <outline>
    <contour>
      <point x="380" y="-30" type="curve" smooth="yes"/>
      <point x="583" y="-30"/>
      <point x="722" y="44"/>
      <point x="795" y="177" type="curve" smooth="yes"/>
      <point x="831" y="242"/>
      <point x="849" y="317"/>
      <point x="849" y="405" type="curve" smooth="yes"/>
      <point x="849" y="1400" type="line"/>
      <point x="589" y="1400" type="line"/>
      <point x="589" y="452" type="line" smooth="yes"/>
      <point x="589" y="281"/>
      <point x="502" y="208"/>
      <point x="346" y="208" type="curve" smooth="yes"/>
      <point x="266" y="208"/>
      <point x="191" y="234"/>
      <point x="107" y="281" type="curve"/>
      <point x="26" y="69" type="line"/>
      <point x="126" y="5"/>
      <point x="243" y="-30"/>
    </contour>
  </outline>
</glyph>
<glyph name="K" format="2">
  <advance width="1379"/>
  <unicode hex="004B"/>
  <anchor x="723" y="0" name="bottom"/>
  <outline>
    <contour>
      <point x="186" y="0" type="line"/>
      <point x="186" y="1400" type="line"/>
      <point x="392" y="1400" type="line"/>
      <point x="392" y="663" type="line"/>
      <point x="988" y="1400" type="line"/>
      <point x="1241" y="1400" type="line"/>
      <point x="730" y="768" type="line"/>
      <point x="1320" y="0" type="line"/>
      <point x="1054" y="0" type="line"/>
      <point x="595" y="610" type="line"/>
      <point x="392" y="368" type="line"/>
      <point x="392" y="0" type="line"/>
    </contour>
  </outline>
</glyph>
<glyph name="L" format="2">
  <advance width="1102"/>
  <unicode hex="004C"/>
  <anchor x="308" y="1400" name="top"/>
  <anchor x="438" y="1440" name="Anchor_2"/>
  <anchor x="606" y="0" name="bottom"/>
  <outline>
    <contour>
      <point x="178" y="0" type="line"/>
      <point x="178" y="1400" type="line"/>
      <point x="438" y="1400" type="line"/>
      <point x="438" y="238" type="line"/>
      <point x="1032" y="238" type="line"/>
      <point x="1032" y="0" type="line"/>
    </contour>
  </outline>
</glyph>
<glyph name="M" format="2">
  <advance width="1823"/>
  <unicode hex="004D"/>
  <outline>
    <contour>
      <point x="186" y="0" type="line"/>
      <point x="186" y="1400" type="line"/>
      <point x="386" y="1400" type="line"/>
      <point x="963" y="463" type="line"/>
      <point x="884" y="462" type="line"/>
      <point x="1441" y="1400" type="line"/>
      <point x="1637" y="1400" type="line"/>
      <point x="1637" y="0" type="line"/>
      <point x="1435" y="0" type="line"/>
      <point x="1437" y="1123" type="line"/>
      <point x="1477" y="1109" type="line"/>
      <point x="989" y="308" type="line"/>
      <point x="835" y="308" type="line"/>
      <point x="339" y="1109" type="line"/>
      <point x="372" y="1123" type="line"/>
      <point x="375" y="0" type="line"/>
    </contour>
  </outline>
</glyph>
<glyph name="N" format="2">
  <advance width="1497"/>
  <unicode hex="004E"/>
  <anchor x="749" y="1400" name="top"/>
  <anchor x="749" y="0" name="bottom"/>
  <outline>
    <contour>
      <point x="186" y="0" type="line"/>
      <point x="186" y="1400" type="line"/>
      <point x="381" y="1400" type="line"/>
      <point x="1109" y="357" type="line"/>
      <point x="1109" y="1400" type="line"/>
      <point x="1311" y="1400" type="line"/>
      <point x="1311" y="0" type="line"/>
      <point x="1116" y="0" type="line"/>
      <point x="388" y="1056" type="line"/>
      <point x="388" y="0" type="line"/>
    </contour>
  </outline>
</glyph>
<glyph name="O" format="2">
  <advance width="1662"/>
  <unicode hex="004F"/>
  <anchor x="831" y="1400" name="top"/>
  <anchor x="1234" y="1400" name="horn"/>
  <anchor x="831" y="-0" name="bottom"/>
  <outline>
    <contour>
      <point x="831" y="-30" type="qcurve" smooth="yes"/>
      <point x="672" y="-30"/>
      <point x="402" y="81"/>
      <point x="202" y="279"/>
      <point x="91" y="545"/>
      <point x="91" y="700" type="qcurve" smooth="yes"/>
      <point x="91" y="856"/>
      <point x="202" y="1122"/>
      <point x="402" y="1320"/>
      <point x="672" y="1430"/>
      <point x="831" y="1430" type="qcurve" smooth="yes"/>
      <point x="990" y="1430"/>
      <point x="1259" y="1318"/>
      <point x="1460" y="1118"/>
      <point x="1571" y="853"/>
      <point x="1571" y="700" type="qcurve" smooth="yes"/>
      <point x="1571" y="545"/>
      <point x="1460" y="279"/>
      <point x="1259" y="81"/>
      <point x="990" y="-30"/>
    </contour>
    <contour>
      <point x="831" y="215" type="qcurve" smooth="yes"/>
      <point x="931" y="215"/>
      <point x="1101" y="284"/>
      <point x="1228" y="411"/>
      <point x="1299" y="590"/>
      <point x="1299" y="700" type="qcurve" smooth="yes"/>
      <point x="1299" y="847"/>
      <point x="1176" y="1065"/>
      <point x="964" y="1185"/>
      <point x="831" y="1185" type="qcurve" smooth="yes"/>
      <point x="732" y="1185"/>
      <point x="561" y="1117"/>
      <point x="434" y="989"/>
      <point x="363" y="811"/>
      <point x="363" y="700" type="qcurve" smooth="yes"/>
      <point x="363" y="553"/>
      <point x="487" y="335"/>
      <point x="699" y="215"/>
    </contour>
  </outline>
</glyph>
<glyph name="P" format="2">
  <advance width="1286"/>
  <unicode hex="0050"/>
  <outline>
    <contour>
      <point x="178" y="0" type="line"/>
      <point x="438" y="0" type="line"/>
      <point x="438" y="518" type="line"/>
      <point x="697" y="518" type="line" smooth="yes"/>
      <point x="922" y="518"/>
      <point x="1076" y="586"/>
      <point x="1160" y="719" type="curve" smooth="yes"/>
      <point x="1201" y="784"/>
      <point x="1221" y="862"/>
      <point x="1221" y="958" type="curve" smooth="yes"/>
      <point x="1221" y="1146"/>
      <point x="1129" y="1276"/>
      <point x="972" y="1348" type="curve"/>
      <point x="892" y="1383"/>
      <point x="807" y="1400"/>
      <point x="703" y="1400" type="curve" smooth="yes"/>
      <point x="178" y="1400" type="line"/>
    </contour>
    <contour>
      <point x="438" y="739" type="line"/>
      <point x="438" y="1174" type="line"/>
      <point x="698" y="1174" type="line" smooth="yes"/>
      <point x="778" y="1174"/>
      <point x="842" y="1156"/>
      <point x="890" y="1119" type="curve" smooth="yes"/>
      <point x="938" y="1080"/>
      <point x="961" y="1026"/>
      <point x="961" y="953" type="curve" smooth="yes"/>
      <point x="961" y="806"/>
      <point x="864" y="739"/>
      <point x="696" y="739" type="curve" smooth="yes"/>
    </contour>
  </outline>
</glyph>
<glyph name="Q" format="2">
  <advance width="1662"/>
  <unicode hex="0051"/>
  <anchor x="831" y="1400" name="top"/>
  <anchor x="1234" y="1400" name="horn"/>
  <anchor x="831" y="0" name="bottom"/>
  <outline>
    <contour>
      <point x="831" y="-30" type="curve" smooth="yes"/>
      <point x="619" y="-30"/>
      <point x="435" y="48"/>
      <point x="302" y="180" type="curve" smooth="yes"/>
      <point x="168" y="312"/>
      <point x="91" y="493"/>
      <point x="91" y="700" type="curve" smooth="yes"/>
      <point x="91" y="908"/>
      <point x="168" y="1089"/>
      <point x="302" y="1221" type="curve" smooth="yes"/>
      <point x="435" y="1353"/>
      <point x="619" y="1430"/>
      <point x="831" y="1430" type="curve" smooth="yes"/>
      <point x="1043" y="1430"/>
      <point x="1226" y="1351"/>
      <point x="1360" y="1218" type="curve" smooth="yes"/>
      <point x="1493" y="1085"/>
      <point x="1571" y="904"/>
      <point x="1571" y="700" type="curve" smooth="yes"/>
      <point x="1571" y="493"/>
      <point x="1493" y="312"/>
      <point x="1360" y="180" type="curve" smooth="yes"/>
      <point x="1226" y="48"/>
      <point x="1043" y="-30"/>
    </contour>
    <contour>
      <point x="831" y="215" type="curve" smooth="yes"/>
      <point x="964" y="215"/>
      <point x="1080" y="263"/>
      <point x="1165" y="348" type="curve" smooth="yes"/>
      <point x="1250" y="432"/>
      <point x="1299" y="554"/>
      <point x="1299" y="700" type="curve" smooth="yes"/>
      <point x="1299" y="798"/>
      <point x="1279" y="883"/>
      <point x="1238" y="956" type="curve" smooth="yes"/>
      <point x="1196" y="1029"/>
      <point x="1140" y="1085"/>
      <point x="1070" y="1125" type="curve" smooth="yes"/>
      <point x="999" y="1165"/>
      <point x="920" y="1185"/>
      <point x="831" y="1185" type="curve" smooth="yes"/>
      <point x="699" y="1185"/>
      <point x="583" y="1138"/>
      <point x="498" y="1053" type="curve" smooth="yes"/>
      <point x="413" y="968"/>
      <point x="363" y="848"/>
      <point x="363" y="700" type="curve" smooth="yes"/>
      <point x="363" y="602"/>
      <point x="384" y="517"/>
      <point x="425" y="444" type="curve" smooth="yes"/>
      <point x="466" y="371"/>
      <point x="522" y="315"/>
      <point x="593" y="275" type="curve" smooth="yes"/>
      <point x="663" y="235"/>
      <point x="743" y="215"/>
    </contour>
    <contour>
      <point x="683" y="-166" type="curve" smooth="yes" name=".hr01"/>
      <point x="600" y="-166"/>
      <point x="507" y="-195"/>
      <point x="447" y="-252" type="curve"/>
      <point x="391" y="-147" type="line"/>
      <point x="499" y="-24"/>
      <point x="657" y="19"/>
      <point x="816" y="19" type="curve" smooth="yes"/>
      <point x="991" y="19"/>
      <point x="1145" y="-78"/>
      <point x="1307" y="-78" type="curve" smooth="yes"/>
      <point x="1381" y="-78"/>
      <point x="1468" y="-41"/>
      <point x="1519" y="16" type="curve"/>
      <point x="1586" y="-179" type="line" name=".hr01"/>
      <point x="1514" y="-260"/>
      <point x="1402" y="-323"/>
      <point x="1286" y="-323" type="curve" smooth="yes"/>
      <point x="1070" y="-323"/>
      <point x="901" y="-166"/>
    </contour>
  </outline>
</glyph>
<glyph name="R" format="2">
  <advance width="1347"/>
  <unicode hex="0052"/>
  <anchor x="643" y="1400" name="top"/>
  <anchor x="709" y="0" name="bottom"/>
  <outline>
    <contour>
      <point x="178" y="0" type="line"/>
      <point x="178" y="1400" type="line"/>
      <point x="720" y="1400" type="line" smooth="yes"/>
      <point x="869" y="1400"/>
      <point x="1089" y="1299"/>
      <point x="1209" y="1111"/>
      <point x="1209" y="981" type="qcurve" smooth="yes"/>
      <point x="1209" y="877"/>
      <point x="1124" y="719"/>
      <point x="972" y="615"/>
      <point x="873" y="594" type="qcurve"/>
      <point x="1280" y="0" type="line"/>
      <point x="968" y="0" type="line"/>
      <point x="606" y="548" type="line"/>
      <point x="438" y="548" type="line"/>
      <point x="438" y="0" type="line"/>
    </contour>
    <contour>
      <point x="438" y="761" type="line"/>
      <point x="682" y="761" type="line" smooth="yes"/>
      <point x="807" y="761"/>
      <point x="947" y="866"/>
      <point x="947" y="967" type="qcurve" smooth="yes"/>
      <point x="947" y="1072"/>
      <point x="820" y="1182"/>
      <point x="695" y="1182" type="qcurve" smooth="yes"/>
      <point x="438" y="1182" type="line"/>
    </contour>
  </outline>
</glyph>
<glyph name="S" format="2">
  <advance width="1266"/>
  <unicode hex="0053"/>
  <anchor x="666" y="1400" name="top"/>
  <anchor x="645" y="-0" name="bottom"/>
  <outline>
    <contour>
      <point x="645" y="-30" type="qcurve" smooth="yes"/>
      <point x="495" y="-30"/>
      <point x="211" y="57"/>
      <point x="113" y="138" type="qcurve"/>
      <point x="238" y="335" type="line"/>
      <point x="286" y="291"/>
      <point x="420" y="227"/>
      <point x="572" y="192"/>
      <point x="646" y="192" type="qcurve" smooth="yes"/>
      <point x="772" y="192"/>
      <point x="927" y="285"/>
      <point x="927" y="373" type="qcurve" smooth="yes"/>
      <point x="927" y="442"/>
      <point x="820" y="535"/>
      <point x="674" y="576" type="qcurve" smooth="yes"/>
      <point x="538" y="615" type="line" smooth="yes"/>
      <point x="334" y="673"/>
      <point x="150" y="868"/>
      <point x="150" y="1010" type="qcurve" smooth="yes"/>
      <point x="150" y="1103"/>
      <point x="227" y="1257"/>
      <point x="366" y="1369"/>
      <point x="555" y="1429"/>
      <point x="667" y="1429" type="qcurve" smooth="yes"/>
      <point x="814" y="1429"/>
      <point x="1067" y="1344"/>
      <point x="1147" y="1271" type="qcurve"/>
      <point x="1017" y="1080" type="line"/>
      <point x="976" y="1119"/>
      <point x="862" y="1177"/>
      <point x="730" y="1208"/>
      <point x="662" y="1208" type="qcurve" smooth="yes"/>
      <point x="584" y="1208"/>
      <point x="465" y="1164"/>
      <point x="399" y="1082"/>
      <point x="399" y="1023" type="qcurve" smooth="yes"/>
      <point x="399" y="980"/>
      <point x="445" y="916"/>
      <point x="555" y="863"/>
      <point x="651" y="834" type="qcurve" smooth="yes"/>
      <point x="793" y="792" type="line" smooth="yes"/>
      <point x="994" y="733"/>
      <point x="1178" y="548"/>
      <point x="1178" y="400" type="qcurve" smooth="yes"/>
      <point x="1178" y="273"/>
      <point x="1051" y="79"/>
      <point x="812" y="-30"/>
    </contour>
  </outline>
</glyph>
<glyph name="T" format="2">
  <advance width="1135"/>
  <unicode hex="0054"/>
  <anchor x="567" y="1400" name="top"/>
  <anchor x="567" y="0" name="bottom"/>
  <anchor x="568" y="683" name="strokeshort"/>
  <outline>
    <contour>
      <point x="437" y="0" type="line"/>
      <point x="437" y="1162" type="line"/>
      <point x="50" y="1162" type="line"/>
      <point x="50" y="1400" type="line"/>
      <point x="1085" y="1400" type="line"/>
      <point x="1085" y="1162" type="line"/>
      <point x="698" y="1162" type="line"/>
      <point x="698" y="0" type="line"/>
    </contour>
  </outline>
</glyph>
<glyph name="U" format="2">
  <advance width="1493"/>
  <unicode hex="0055"/>
  <anchor x="747" y="1400" name="top"/>
  <anchor x="1324" y="1400" name="horn"/>
  <anchor x="747" y="-0" name="bottom"/>
  <outline>
    <contour>
      <point x="747" y="-30" type="qcurve" smooth="yes"/>
      <point x="556" y="-30"/>
      <point x="300" y="124"/>
      <point x="170" y="389"/>
      <point x="170" y="556" type="qcurve" smooth="yes"/>
      <point x="170" y="1400" type="line"/>
      <point x="430" y="1400" type="line"/>
      <point x="430" y="553" type="line" smooth="yes"/>
      <point x="430" y="383"/>
      <point x="600" y="215"/>
      <point x="747" y="215" type="qcurve" smooth="yes"/>
      <point x="893" y="215"/>
      <point x="1063" y="383"/>
      <point x="1063" y="553" type="qcurve" smooth="yes"/>
      <point x="1063" y="1400" type="line"/>
      <point x="1324" y="1400" type="line"/>
      <point x="1324" y="556" type="line" smooth="yes"/>
      <point x="1324" y="389"/>
      <point x="1194" y="124"/>
      <point x="937" y="-30"/>
    </contour>
  </outline>
</glyph>
<glyph name="V" format="2">
  <advance width="1314"/>
  <unicode hex="0056"/>
  <outline>
    <contour>
      <point x="557" y="0" type="line"/>
      <point x="15" y="1400" type="line"/>
      <point x="247" y="1400" type="line"/>
      <point x="668" y="279" type="line"/>
      <point x="1072" y="1400" type="line"/>
      <point x="1299" y="1400" type="line"/>
      <point x="773" y="0" type="line"/>
    </contour>
  </outline>
</glyph>
<glyph name="W" format="2">
  <advance width="2052"/>
  <unicode hex="0057"/>
  <anchor x="1027" y="1400" name="top"/>
  <outline>
    <contour>
      <point x="465" y="0" type="line"/>
      <point x="42" y="1400" type="line"/>
      <point x="313" y="1400" type="line"/>
      <point x="597" y="372" type="line"/>
      <point x="897" y="1400" type="line"/>
      <point x="1163" y="1400" type="line"/>
      <point x="1462" y="373" type="line"/>
      <point x="1746" y="1400" type="line"/>
      <point x="2010" y="1400" type="line"/>
      <point x="1588" y="0" type="line"/>
      <point x="1321" y="0" type="line"/>
      <point x="1027" y="1012" type="line"/>
      <point x="730" y="0" type="line"/>
    </contour>
  </outline>
</glyph>
<glyph name="Y" format="2">
  <advance width="1261"/>
  <unicode hex="0059"/>
  <outline>
    <contour>
      <point x="500" y="0" type="line"/>
      <point x="500" y="598" type="line"/>
      <point x="7" y="1400" type="line"/>
      <point x="302" y="1400" type="line"/>
      <point x="636" y="848" type="line"/>
      <point x="967" y="1400" type="line"/>
      <point x="1254" y="1400" type="line"/>
      <point x="761" y="596" type="line"/>
      <point x="761" y="0" type="line"/>
    </contour>
  </outline>
</glyph>
<glyph name="Z" format="2">
  <advance width="1173"/>
  <unicode hex="005A"/>
  <anchor x="592" y="1400" name="top"/>
  <outline>
    <contour>
      <point x="88" y="0" type="line"/>
      <point x="88" y="217" type="line"/>
      <point x="773" y="1162" type="line"/>
      <point x="111" y="1162" type="line"/>
      <point x="111" y="1400" type="line"/>
      <point x="1087" y="1400" type="line"/>
      <point x="1087" y="1184" type="line"/>
      <point x="405" y="238" type="line"/>
      <point x="1093" y="238" type="line"/>
      <point x="1093" y="0" type="line"/>
    </contour>
  </outline>
</glyph>
<glyph name="bracketleft" format="2">
  <advance width="687"/>
  <unicode hex="005B"/>
  <outline>
    <contour>
      <point x="201" y="-220" type="line"/>
      <point x="201" y="1600" type="line"/>
      <point x="574" y="1600" type="line"/>
      <point x="574" y="1451" type="line"/>
      <point x="368" y="1451" type="line"/>
      <point x="368" y="-71" type="line"/>
      <point x="574" y="-71" type="line"/>
      <point x="574" y="-220" type="line"/>
    </contour>
  </outline>
</glyph>
<glyph name="backslash" format="2">
  <advance width="910"/>
  <unicode hex="005C"/>
  <outline>
    <contour>
      <point x="736" y="-230" type="line"/>
      <point x="4" y="1543" type="line"/>
      <point x="174" y="1610" type="line"/>
      <point x="905" y="-163" type="line"/>
    </contour>
  </outline>
</glyph>
<glyph name="bracketright" format="2">
  <advance width="699"/>
  <unicode hex="005D"/>
  <outline>
    <contour>
      <point x="512" y="-220" type="line"/>
      <point x="512" y="1600" type="line"/>
      <point x="100" y="1600" type="line"/>
      <point x="100" y="1419" type="line"/>
      <point x="304" y="1419" type="line"/>
      <point x="304" y="-39" type="line"/>
      <point x="100" y="-39" type="line"/>
      <point x="100" y="-220" type="line"/>
    </contour>
  </outline>
</glyph>
<glyph name="asciicircum" format="2">
  <advance width="1296"/>
  <unicode hex="005E"/>
  <outline>
    <contour>
      <point x="192" y="829" type="line"/>
      <point x="547" y="1400" type="line"/>
      <point x="749" y="1400" type="line"/>
      <point x="1104" y="829" type="line"/>
      <point x="913" y="829" type="line"/>
      <point x="648" y="1255" type="line"/>
      <point x="383" y="829" type="line"/>
    </contour>
  </outline>
</glyph>
<glyph name="underscore" format="2">
  <advance width="1100"/>
  <unicode hex="005F"/>
  <outline>
    <contour>
      <point x="25" y="-345" type="line"/>
      <point x="1075" y="-345" type="line"/>
      <point x="1075" y="-141" type="line"/>
      <point x="25" y="-141" type="line"/>
    </contour>
  </outline>
</glyph>
<glyph name="a" format="2">
  <advance width="1126"/>
  <unicode hex="0061"/>
  <outline>
    <contour>
      <point x="428" y="-30" type="qcurve" smooth="yes"/>
      <point x="376" y="-30"/>
      <point x="286" y="-11"/>
      <point x="246" y="9" type="qcurve" smooth="yes"/>
      <point x="167" y="48"/>
      <point x="78" y="190"/>
      <point x="78" y="289" type="qcurve" smooth="yes"/>
      <point x="78" y="374"/>
      <point x="161" y="505"/>
      <point x="249" y="549" type="qcurve" smooth="yes"/>
      <point x="336" y="592"/>
      <point x="606" y="622"/>
      <point x="793" y="603" type="qcurve"/>
      <point x="797" y="434" type="line"/>
      <point x="674" y="453"/>
      <point x="493" y="449"/>
      <point x="433" y="430" type="qcurve" smooth="yes"/>
      <point x="373" y="411"/>
      <point x="315" y="345"/>
      <point x="315" y="301" type="qcurve" smooth="yes"/>
      <point x="315" y="234"/>
      <point x="410" y="164"/>
      <point x="493" y="164" type="qcurve" smooth="yes"/>
      <point x="529" y="164"/>
      <point x="592" y="177"/>
      <point x="621" y="190" type="qcurve" smooth="yes"/>
      <point x="678" y="216"/>
      <point x="744" y="310"/>
      <point x="744" y="376" type="qcurve" smooth="yes"/>
      <point x="744" y="629" type="line" smooth="yes"/>
      <point x="744" y="660"/>
      <point x="731" y="715"/>
      <point x="717" y="739" type="qcurve" smooth="yes"/>
      <point x="691" y="786"/>
      <point x="583" y="836"/>
      <point x="498" y="836" type="qcurve" smooth="yes"/>
      <point x="419" y="836"/>
      <point x="267" y="790"/>
      <point x="200" y="740" type="qcurve"/>
      <point x="130" y="923" type="line"/>
      <point x="225" y="986"/>
      <point x="435" y="1040"/>
      <point x="534" y="1040" type="qcurve" smooth="yes"/>
      <point x="604" y="1040"/>
      <point x="724" y="1018"/>
      <point x="776" y="996" type="qcurve" smooth="yes"/>
      <point x="878" y="952"/>
      <point x="990" y="771"/>
      <point x="990" y="632" type="qcurve" smooth="yes"/>
      <point x="990" y="0" type="line"/>
      <point x="764" y="0" type="line"/>
      <point x="764" y="114" type="line"/>
      <point x="714" y="45"/>
      <point x="539" y="-30"/>
    </contour>
  </outline>
</glyph>
<glyph name="b" format="2">
  <advance width="1309"/>
  <unicode hex="0062"/>
  <outline>
    <contour>
      <point x="744" y="-30" type="qcurve" smooth="yes"/>
      <point x="647" y="-30"/>
      <point x="488" y="28"/>
      <point x="373" y="130"/>
      <point x="339" y="197" type="qcurve"/>
      <point x="375" y="254" type="line"/>
      <point x="375" y="0" type="line"/>
      <point x="149" y="0" type="line"/>
      <point x="149" y="1440" type="line"/>
      <point x="404" y="1440" type="line"/>
      <point x="404" y="771" type="line"/>
      <point x="349" y="829" type="line"/>
      <point x="417" y="923"/>
      <point x="611" y="1030"/>
      <point x="740" y="1030" type="qcurve" smooth="yes"/>
      <point x="889" y="1030"/>
      <point x="1116" y="889"/>
      <point x="1244" y="648"/>
      <point x="1244" y="500" type="qcurve" smooth="yes"/>
      <point x="1244" y="385"/>
      <point x="1170" y="190"/>
      <point x="1036" y="48"/>
      <point x="854" y="-30"/>
    </contour>
    <contour>
      <point x="697" y="194" type="qcurve" smooth="yes"/>
      <point x="782" y="194"/>
      <point x="914" y="269"/>
      <point x="990" y="406"/>
      <point x="990" y="500" type="qcurve" smooth="yes"/>
      <point x="990" y="594"/>
      <point x="915" y="732"/>
      <point x="782" y="806"/>
      <point x="697" y="806" type="qcurve" smooth="yes"/>
      <point x="612" y="806"/>
      <point x="480" y="732"/>
      <point x="404" y="594"/>
      <point x="404" y="500" type="qcurve" smooth="yes"/>
      <point x="404" y="406"/>
      <point x="480" y="269"/>
      <point x="613" y="194"/>
    </contour>
  </outline>
</glyph>
<glyph name="c" format="2">
  <advance width="1048"/>
  <unicode hex="0063"/>
  <anchor x="585" y="1000" name="top"/>
  <anchor x="573" y="0" name="bottom"/>
  <outline>
    <contour>
      <point x="613" y="-30" type="qcurve" smooth="yes"/>
      <point x="455" y="-30"/>
      <point x="207" y="109"/>
      <point x="65" y="348"/>
      <point x="65" y="500" type="qcurve" smooth="yes"/>
      <point x="65" y="615"/>
      <point x="149" y="808"/>
      <point x="302" y="951"/>
      <point x="507" y="1030"/>
      <point x="627" y="1030" type="qcurve" smooth="yes"/>
      <point x="733" y="1030"/>
      <point x="913" y="974"/>
      <point x="987" y="916" type="qcurve"/>
      <point x="868" y="723" type="line"/>
      <point x="821" y="765"/>
      <point x="703" y="806"/>
      <point x="637" y="806" type="qcurve" smooth="yes"/>
      <point x="540" y="806"/>
      <point x="399" y="734"/>
      <point x="322" y="598"/>
      <point x="322" y="501" type="qcurve" smooth="yes"/>
      <point x="322" y="357"/>
      <point x="491" y="194"/>
      <point x="637" y="194" type="qcurve" smooth="yes"/>
      <point x="711" y="194"/>
      <point x="841" y="248"/>
      <point x="888" y="295" type="qcurve"/>
      <point x="1002" y="101" type="line"/>
      <point x="921" y="40"/>
      <point x="718" y="-30"/>
    </contour>
  </outline>
</glyph>
<glyph name="d" format="2">
  <advance width="1288"/>
  <unicode hex="0064"/>
  <anchor x="1132" y="1440" name="Anchor_2"/>
  <anchor x="980" y="1210" name="strokeshort"/>
  <outline>
    <contour>
      <point x="565" y="-30" type="qcurve" smooth="yes"/>
      <point x="420" y="-30"/>
      <point x="197" y="107"/>
      <point x="71" y="344"/>
      <point x="71" y="493" type="qcurve" smooth="yes"/>
      <point x="71" y="601"/>
      <point x="143" y="791"/>
      <point x="275" y="934"/>
      <point x="457" y="1015"/>
      <point x="568" y="1015" type="qcurve" smooth="yes"/>
      <point x="706" y="1015"/>
      <point x="905" y="904"/>
      <point x="971" y="808" type="qcurve"/>
      <point x="930" y="763" type="line"/>
      <point x="930" y="1440" type="line"/>
      <point x="1132" y="1440" type="line"/>
      <point x="1132" y="0" type="line"/>
      <point x="948" y="0" type="line"/>
      <point x="948" y="234" type="line"/>
      <point x="978" y="188" type="line"/>
      <point x="922" y="94"/>
      <point x="722" y="-30"/>
    </contour>
    <contour>
      <point x="602" y="151" type="qcurve" smooth="yes"/>
      <point x="697" y="151"/>
      <point x="846" y="235"/>
      <point x="930" y="388"/>
      <point x="930" y="493" type="qcurve" smooth="yes"/>
      <point x="930" y="597"/>
      <point x="846" y="751"/>
      <point x="698" y="835"/>
      <point x="602" y="835" type="qcurve" smooth="yes"/>
      <point x="507" y="835"/>
      <point x="359" y="751"/>
      <point x="274" y="597"/>
      <point x="274" y="493" type="qcurve" smooth="yes"/>
      <point x="274" y="388"/>
      <point x="359" y="235"/>
      <point x="507" y="151"/>
    </contour>
  </outline>
</glyph>
<glyph name="e" format="2">
  <advance width="1162"/>
  <unicode hex="0065"/>
  <outline>
    <contour>
      <point x="611" y="-30" type="qcurve" smooth="yes"/>
      <point x="530" y="-30"/>
      <point x="388" y="3"/>
      <point x="326" y="37" type="qcurve" smooth="yes"/>
      <point x="202" y="103"/>
      <point x="65" y="340"/>
      <point x="65" y="499" type="qcurve" smooth="yes"/>
      <point x="65" y="615"/>
      <point x="145" y="809"/>
      <point x="217" y="881" type="qcurve" smooth="yes"/>
      <point x="290" y="952"/>
      <point x="483" y="1030"/>
      <point x="600" y="1030" type="qcurve" smooth="yes"/>
      <point x="728" y="1030"/>
      <point x="925" y="942"/>
      <point x="990" y="861" type="qcurve" smooth="yes"/>
      <point x="1056" y="779"/>
      <point x="1108" y="566"/>
      <point x="1088" y="438" type="qcurve"/>
      <point x="306" y="438" type="line"/>
      <point x="306" y="399"/>
      <point x="325" y="330"/>
      <point x="344" y="300" type="qcurve" smooth="yes"/>
      <point x="383" y="241"/>
      <point x="525" y="174"/>
      <point x="622" y="174" type="qcurve" smooth="yes"/>
      <point x="709" y="174"/>
      <point x="867" y="224"/>
      <point x="934" y="273" type="qcurve"/>
      <point x="1025" y="94" type="line"/>
      <point x="1001" y="76"/>
      <point x="943" y="42"/>
      <point x="907" y="28" type="qcurve" smooth="yes"/>
      <point x="837" y="0"/>
      <point x="683" y="-30"/>
    </contour>
    <contour>
      <point x="840" y="620" type="line"/>
      <point x="839" y="671"/>
      <point x="806" y="749"/>
      <point x="773" y="779" type="qcurve" smooth="yes"/>
      <point x="741" y="808"/>
      <point x="652" y="836"/>
      <point x="594" y="836" type="qcurve" smooth="yes"/>
      <point x="537" y="836"/>
      <point x="444" y="808"/>
      <point x="407" y="779" type="qcurve" smooth="yes"/>
      <point x="369" y="749"/>
      <point x="326" y="671"/>
      <point x="321" y="620" type="qcurve"/>
    </contour>
  </outline>
</glyph>
<glyph name="f" format="2">
  <advance width="799"/>
  <unicode hex="0066"/>
  <outline>
    <contour>
      <point x="242" y="0" type="line"/>
      <point x="242" y="1139" type="line" smooth="yes"/>
      <point x="242" y="1241"/>
      <point x="272" y="1322"/>
      <point x="332" y="1381" type="curve" smooth="yes"/>
      <point x="392" y="1441"/>
      <point x="475" y="1470"/>
      <point x="582" y="1470" type="curve" smooth="yes"/>
      <point x="657" y="1470"/>
      <point x="721" y="1454"/>
      <point x="779" y="1424" type="curve"/>
      <point x="736" y="1225" type="line"/>
      <point x="698" y="1247"/>
      <point x="662" y="1253"/>
      <point x="628" y="1253" type="curve" smooth="yes"/>
      <point x="589" y="1253"/>
      <point x="557" y="1244"/>
      <point x="534" y="1224" type="curve"/>
      <point x="509" y="1205"/>
      <point x="497" y="1172"/>
      <point x="497" y="1127" type="curve" smooth="yes"/>
      <point x="497" y="1000" type="line"/>
      <point x="753" y="1000" type="line"/>
      <point x="753" y="792" type="line"/>
      <point x="497" y="792" type="line"/>
      <point x="497" y="0" type="line"/>
    </contour>
    <contour>
      <point x="50" y="792" type="line"/>
      <point x="50" y="1000" type="line"/>
      <point x="271" y="1000" type="line"/>
      <point x="271" y="792" type="line"/>
    </contour>
  </outline>
</glyph>
<glyph name="g" format="2">
  <advance width="1209"/>
  <unicode hex="0067"/>
  <outline>
    <contour>
      <point x="541" y="-450" type="qcurve" smooth="yes"/>
      <point x="428" y="-450"/>
      <point x="250" y="-411"/>
      <point x="186" y="-374" type="qcurve" smooth="yes"/>
      <point x="123" y="-337"/>
      <point x="55" y="-234"/>
      <point x="55" y="-170" type="qcurve" smooth="yes"/>
      <point x="55" y="-144"/>
      <point x="69" y="-97"/>
      <point x="83" y="-74" type="qcurve" smooth="yes"/>
      <point x="111" y="-29"/>
      <point x="218" y="35"/>
      <point x="295" y="51" type="qcurve"/>
      <point x="237" y="82"/>
      <point x="180" y="160"/>
      <point x="180" y="210" type="qcurve" smooth="yes"/>
      <point x="180" y="255"/>
      <point x="232" y="332"/>
      <point x="279" y="363" type="qcurve" smooth="yes"/>
      <point x="327" y="394"/>
      <point x="453" y="432"/>
      <point x="529" y="434" type="qcurve"/>
      <point x="581" y="329" type="line"/>
      <point x="551" y="330"/>
      <point x="501" y="325"/>
      <point x="480" y="321" type="qcurve"/>
      <point x="439" y="311"/>
      <point x="396" y="277"/>
      <point x="396" y="253" type="qcurve" smooth="yes"/>
      <point x="396" y="238"/>
      <point x="414" y="216"/>
      <point x="432" y="208" type="qcurve"/>
      <point x="450" y="201"/>
      <point x="502" y="190"/>
      <point x="538" y="187" type="qcurve" smooth="yes"/>
      <point x="709" y="173" type="line" smooth="yes"/>
      <point x="773" y="168"/>
      <point x="880" y="148"/>
      <point x="925" y="132" type="qcurve" smooth="yes"/>
      <point x="1016" y="101"/>
      <point x="1112" y="-12"/>
      <point x="1112" y="-101" type="qcurve" smooth="yes"/>
      <point x="1112" y="-175"/>
      <point x="1031" y="-303"/>
      <point x="955" y="-351" type="qcurve" smooth="yes"/>
      <point x="879" y="-398"/>
      <point x="670" y="-450"/>
    </contour>
    <contour>
      <point x="572" y="-280" type="qcurve" smooth="yes"/>
      <point x="642" y="-280"/>
      <point x="752" y="-260"/>
      <point x="792" y="-240" type="qcurve" smooth="yes"/>
      <point x="832" y="-220"/>
      <point x="871" y="-168"/>
      <point x="871" y="-136" type="qcurve" smooth="yes"/>
      <point x="871" y="-86"/>
      <point x="769" y="-33"/>
      <point x="660" y="-25" type="qcurve" smooth="yes"/>
      <point x="474" y="-11" type="line"/>
      <point x="444" y="-13"/>
      <point x="394" y="-25"/>
      <point x="373" y="-33" type="qcurve" smooth="yes"/>
      <point x="330" y="-50"/>
      <point x="286" y="-104"/>
      <point x="286" y="-139" type="qcurve" smooth="yes"/>
      <point x="286" y="-160"/>
      <point x="304" y="-197"/>
      <point x="321" y="-213" type="qcurve" smooth="yes"/>
      <point x="356" y="-245"/>
      <point x="483" y="-280"/>
    </contour>
    <contour>
      <point x="562" y="315" type="qcurve" smooth="yes"/>
      <point x="498" y="315"/>
      <point x="385" y="339"/>
      <point x="334" y="363" type="qcurve" smooth="yes"/>
      <point x="233" y="411"/>
      <point x="119" y="571"/>
      <point x="119" y="673" type="qcurve" smooth="yes"/>
      <point x="119" y="723"/>
      <point x="148" y="813"/>
      <point x="178" y="854" type="qcurve" smooth="yes"/>
      <point x="236" y="935"/>
      <point x="435" y="1030"/>
      <point x="562" y="1030" type="qcurve" smooth="yes"/>
      <point x="626" y="1030"/>
      <point x="738" y="1007"/>
      <point x="788" y="983" type="qcurve" smooth="yes"/>
      <point x="889" y="935"/>
      <point x="1004" y="774"/>
      <point x="1004" y="673" type="qcurve" smooth="yes"/>
      <point x="1004" y="623"/>
      <point x="976" y="533"/>
      <point x="947" y="493" type="qcurve" smooth="yes"/>
      <point x="889" y="411"/>
      <point x="691" y="315"/>
    </contour>
    <contour>
      <point x="562" y="499" type="qcurve" smooth="yes"/>
      <point x="594" y="499"/>
      <point x="650" y="510"/>
      <point x="674" y="521" type="qcurve" smooth="yes"/>
      <point x="723" y="543"/>
      <point x="779" y="622"/>
      <point x="779" y="673" type="qcurve" smooth="yes"/>
      <point x="779" y="712"/>
      <point x="749" y="775"/>
      <point x="718" y="799" type="qcurve" smooth="yes"/>
      <point x="688" y="823"/>
      <point x="610" y="847"/>
      <point x="562" y="847" type="qcurve" smooth="yes"/>
      <point x="530" y="847"/>
      <point x="474" y="836"/>
      <point x="450" y="825" type="qcurve" smooth="yes"/>
      <point x="401" y="803"/>
      <point x="345" y="725"/>
      <point x="345" y="673" type="qcurve" smooth="yes"/>
      <point x="345" y="634"/>
      <point x="376" y="572"/>
      <point x="407" y="548" type="qcurve" smooth="yes"/>
      <point x="437" y="524"/>
      <point x="514" y="499"/>
    </contour>
    <contour>
      <point x="716" y="802" type="line"/>
      <point x="620" y="975" type="line"/>
      <point x="1175" y="1000" type="line"/>
      <point x="1174" y="792" type="line"/>
    </contour>
  </outline>
</glyph>
<glyph name="h" format="2">
  <advance width="1260"/>
  <unicode hex="0068"/>
  <outline>
    <contour>
      <point x="149" y="0" type="line"/>
      <point x="149" y="1440" type="line"/>
      <point x="405" y="1440" type="line"/>
      <point x="405" y="789" type="line"/>
      <point x="352" y="849" type="line"/>
      <point x="385" y="894"/>
      <point x="464" y="961"/>
      <point x="511" y="984" type="qcurve" smooth="yes"/>
      <point x="557" y="1008"/>
      <point x="655" y="1030"/>
      <point x="708" y="1030" type="qcurve" smooth="yes"/>
      <point x="777" y="1030"/>
      <point x="892" y="1003"/>
      <point x="938" y="975" type="qcurve" smooth="yes"/>
      <point x="984" y="948"/>
      <point x="1052" y="876"/>
      <point x="1076" y="832" type="qcurve" smooth="yes"/>
      <point x="1099" y="788"/>
      <point x="1121" y="695"/>
      <point x="1121" y="646" type="qcurve" smooth="yes"/>
      <point x="1121" y="0" type="line"/>
      <point x="865" y="0" type="line"/>
      <point x="865" y="573" type="line" smooth="yes"/>
      <point x="865" y="623"/>
      <point x="835" y="703"/>
      <point x="805" y="734" type="qcurve" smooth="yes"/>
      <point x="774" y="765"/>
      <point x="692" y="796"/>
      <point x="639" y="796" type="qcurve"/>
      <point x="604" y="797"/>
      <point x="543" y="782"/>
      <point x="517" y="766" type="qcurve"/>
      <point x="464" y="737"/>
      <point x="405" y="627"/>
      <point x="405" y="552" type="qcurve" smooth="yes"/>
      <point x="405" y="0" type="line"/>
    </contour>
  </outline>
</glyph>
<glyph name="k" format="2">
  <advance width="1149"/>
  <unicode hex="006B"/>
  <outline>
    <contour>
      <point x="149" y="0" type="line"/>
      <point x="149" y="1440" type="line"/>
      <point x="405" y="1440" type="line"/>
      <point x="405" y="619" type="line"/>
      <point x="767" y="1000" type="line"/>
      <point x="1067" y="1000" type="line"/>
      <point x="715" y="610" type="line"/>
      <point x="1112" y="0" type="line"/>
      <point x="807" y="0" type="line"/>
      <point x="529" y="443" type="line"/>
      <point x="405" y="316" type="line"/>
      <point x="405" y="0" type="line"/>
    </contour>
  </outline>
</glyph>
<glyph name="l" format="2">
  <advance width="678"/>
  <unicode hex="006C"/>
  <outline>
    <contour>
      <point x="448" y="-28" type="curve" smooth="yes"/>
      <point x="508" y="-28"/>
      <point x="574" y="-14"/>
      <point x="642" y="7" type="curve"/>
      <point x="602" y="214" type="line"/>
      <point x="569" y="202"/>
      <point x="537" y="193"/>
      <point x="509" y="193" type="curve" smooth="yes"/>
      <point x="473" y="193"/>
      <point x="447" y="203"/>
      <point x="430" y="226" type="curve"/>
      <point x="414" y="249"/>
      <point x="405" y="285"/>
      <point x="405" y="341" type="curve" smooth="yes"/>
      <point x="405" y="1440" type="line"/>
      <point x="149" y="1440" type="line"/>
      <point x="149" y="282" type="line" smooth="yes"/>
      <point x="149" y="137"/>
      <point x="201" y="49"/>
      <point x="293" y="5" type="curve"/>
      <point x="337" y="-18"/>
      <point x="388" y="-28"/>
    </contour>
  </outline>
</glyph>
<glyph name="m" format="2">
  <advance width="1922"/>
  <unicode hex="006D"/>
  <outline>
    <contour>
      <point x="149" y="0" type="line"/>
      <point x="149" y="1000" type="line"/>
      <point x="405" y="1000" type="line"/>
      <point x="405" y="867" type="line"/>
      <point x="444" y="923"/>
      <point x="547" y="995"/>
      <point x="662" y="1030"/>
      <point x="721" y="1030" type="qcurve" smooth="yes"/>
      <point x="839" y="1030"/>
      <point x="1001" y="926"/>
      <point x="1033" y="842" type="qcurve"/>
      <point x="1102" y="946"/>
      <point x="1300" y="1030"/>
      <point x="1404" y="1030" type="qcurve" smooth="yes"/>
      <point x="1545" y="1030"/>
      <point x="1711" y="920"/>
      <point x="1783" y="748"/>
      <point x="1783" y="654" type="qcurve" smooth="yes"/>
      <point x="1783" y="0" type="line"/>
      <point x="1527" y="0" type="line"/>
      <point x="1527" y="580" type="line" smooth="yes"/>
      <point x="1527" y="677"/>
      <point x="1422" y="796"/>
      <point x="1321" y="796" type="qcurve" smooth="yes"/>
      <point x="1256" y="796"/>
      <point x="1153" y="740"/>
      <point x="1094" y="641"/>
      <point x="1094" y="578" type="qcurve" smooth="yes"/>
      <point x="1094" y="0" type="line"/>
      <point x="838" y="0" type="line"/>
      <point x="838" y="580" type="line" smooth="yes"/>
      <point x="838" y="677"/>
      <point x="733" y="796"/>
      <point x="632" y="796" type="qcurve" smooth="yes"/>
      <point x="567" y="796"/>
      <point x="464" y="740"/>
      <point x="405" y="641"/>
      <point x="405" y="578" type="qcurve" smooth="yes"/>
      <point x="405" y="0" type="line"/>
    </contour>
  </outline>
</glyph>
<glyph name="n" format="2">
  <advance width="1260"/>
  <unicode hex="006E"/>
  <outline>
    <contour>
      <point x="149" y="0" type="line"/>
      <point x="405" y="0" type="line"/>
      <point x="405" y="553" type="line" smooth="yes"/>
      <point x="405" y="650"/>
      <point x="447" y="725"/>
      <point x="519" y="766" type="curve" smooth="yes"/>
      <point x="555" y="786"/>
      <point x="596" y="796"/>
      <point x="641" y="796" type="curve" smooth="yes"/>
      <point x="713" y="796"/>
      <point x="767" y="777"/>
      <point x="807" y="736" type="curve" smooth="yes"/>
      <point x="846" y="696"/>
      <point x="865" y="642"/>
      <point x="865" y="574" type="curve" smooth="yes"/>
      <point x="865" y="0" type="line"/>
      <point x="1121" y="0" type="line"/>
      <point x="1121" y="654" type="line" smooth="yes"/>
      <point x="1121" y="718"/>
      <point x="1107" y="777"/>
      <point x="1078" y="834" type="curve" smooth="yes"/>
      <point x="1047" y="894"/>
      <point x="1004" y="939"/>
      <point x="943" y="975" type="curve"/>
      <point x="883" y="1012"/>
      <point x="807" y="1030"/>
      <point x="714" y="1030" type="curve" smooth="yes"/>
      <point x="655" y="1030"/>
      <point x="601" y="1018"/>
      <point x="546" y="995" type="curve" smooth="yes"/>
      <point x="491" y="971"/>
      <point x="445" y="933"/>
      <point x="405" y="880" type="curve"/>
      <point x="405" y="1000" type="line"/>
      <point x="149" y="1000" type="line"/>
    </contour>
  </outline>
</glyph>
<glyph name="o" format="2">
  <advance width="1224"/>
  <unicode hex="006F"/>
  <outline>
    <contour>
      <point x="612" y="-30" type="curve" smooth="yes"/>
      <point x="773" y="-30"/>
      <point x="906" y="29"/>
      <point x="1006" y="129" type="curve" smooth="yes"/>
      <point x="1103" y="229"/>
      <point x="1159" y="356"/>
      <point x="1159" y="500" type="curve" smooth="yes"/>
      <point x="1159" y="597"/>
      <point x="1136" y="685"/>
      <point x="1089" y="765" type="curve" smooth="yes"/>
      <point x="1042" y="846"/>
      <point x="977" y="910"/>
      <point x="896" y="958" type="curve" smooth="yes"/>
      <point x="812" y="1007"/>
      <point x="720" y="1030"/>
      <point x="612" y="1030" type="curve" smooth="yes"/>
      <point x="451" y="1030"/>
      <point x="317" y="972"/>
      <point x="220" y="872" type="curve" smooth="yes"/>
      <point x="120" y="772"/>
      <point x="65" y="644"/>
      <point x="65" y="500" type="curve" smooth="yes"/>
      <point x="65" y="404"/>
      <point x="88" y="316"/>
      <point x="136" y="235" type="curve" smooth="yes"/>
      <point x="183" y="155"/>
      <point x="246" y="91"/>
      <point x="330" y="43" type="curve"/>
      <point x="411" y="-6"/>
      <point x="504" y="-30"/>
    </contour>
    <contour>
      <point x="612" y="194" type="curve" smooth="yes"/>
      <point x="499" y="194"/>
      <point x="409" y="245"/>
      <point x="358" y="338" type="curve"/>
      <point x="331" y="383"/>
      <point x="319" y="436"/>
      <point x="319" y="500" type="curve" smooth="yes"/>
      <point x="319" y="628"/>
      <point x="372" y="720"/>
      <point x="461" y="769" type="curve" smooth="yes"/>
      <point x="506" y="794"/>
      <point x="555" y="806"/>
      <point x="612" y="806" type="curve" smooth="yes"/>
      <point x="728" y="806"/>
      <point x="817" y="756"/>
      <point x="868" y="663" type="curve" smooth="yes"/>
      <point x="893" y="618"/>
      <point x="905" y="564"/>
      <point x="905" y="500" type="curve" smooth="yes"/>
      <point x="905" y="372"/>
      <point x="852" y="283"/>
      <point x="763" y="232" type="curve" smooth="yes"/>
      <point x="719" y="207"/>
      <point x="669" y="194"/>
    </contour>
  </outline>
</glyph>
<glyph name="p" format="2">
  <advance width="1288"/>
  <unicode hex="0070"/>
  <outline>
    <contour>
      <point x="157" y="-420" type="line"/>
      <point x="157" y="985" type="line"/>
      <point x="340" y="985" type="line"/>
      <point x="340" y="842" type="line"/>
      <point x="400" y="918"/>
      <point x="585" y="1015"/>
      <point x="723" y="1015" type="qcurve" smooth="yes"/>
      <point x="868" y="1015"/>
      <point x="1092" y="878"/>
      <point x="1218" y="641"/>
      <point x="1218" y="493" type="qcurve" smooth="yes"/>
      <point x="1218" y="384"/>
      <point x="1146" y="194"/>
      <point x="1013" y="51"/>
      <point x="831" y="-30"/>
      <point x="721" y="-30" type="qcurve" smooth="yes"/>
      <point x="600" y="-30"/>
      <point x="420" y="58"/>
      <point x="358" y="132" type="qcurve"/>
      <point x="358" y="-420" type="line"/>
    </contour>
    <contour>
      <point x="686" y="151" type="qcurve" smooth="yes"/>
      <point x="782" y="151"/>
      <point x="930" y="235"/>
      <point x="1014" y="388"/>
      <point x="1014" y="493" type="qcurve" smooth="yes"/>
      <point x="1014" y="597"/>
      <point x="929" y="751"/>
      <point x="781" y="835"/>
      <point x="686" y="835" type="qcurve" smooth="yes"/>
      <point x="591" y="835"/>
      <point x="443" y="751"/>
      <point x="358" y="597"/>
      <point x="358" y="493" type="qcurve" smooth="yes"/>
      <point x="358" y="388"/>
      <point x="443" y="235"/>
      <point x="591" y="151"/>
    </contour>
  </outline>
</glyph>
<glyph name="q" format="2">
  <advance width="1309"/>
  <unicode hex="0071"/>
  <outline>
    <contour>
      <point x="905" y="-420" type="line"/>
      <point x="905" y="225" type="line"/>
      <point x="960" y="167" type="line"/>
      <point x="926" y="120"/>
      <point x="844" y="48"/>
      <point x="796" y="22" type="qcurve" smooth="yes"/>
      <point x="747" y="-4"/>
      <point x="634" y="-30"/>
      <point x="569" y="-30" type="qcurve" smooth="yes"/>
      <point x="495" y="-30"/>
      <point x="365" y="6"/>
      <point x="307" y="41" type="qcurve" smooth="yes"/>
      <point x="250" y="77"/>
      <point x="162" y="172"/>
      <point x="129" y="232" type="qcurve" smooth="yes"/>
      <point x="97" y="293"/>
      <point x="65" y="426"/>
      <point x="65" y="500" type="qcurve" smooth="yes"/>
      <point x="65" y="617"/>
      <point x="139" y="810"/>
      <point x="207" y="882" type="qcurve" smooth="yes"/>
      <point x="274" y="953"/>
      <point x="456" y="1030"/>
      <point x="565" y="1030" type="qcurve" smooth="yes"/>
      <point x="616" y="1030"/>
      <point x="705" y="1017"/>
      <point x="745" y="1003" type="qcurve" smooth="yes"/>
      <point x="824" y="974"/>
      <point x="936" y="875"/>
      <point x="970" y="811" type="qcurve"/>
      <point x="934" y="753" type="line"/>
      <point x="934" y="1000" type="line"/>
      <point x="1160" y="1000" type="line"/>
      <point x="1160" y="-420" type="line"/>
    </contour>
    <contour>
      <point x="612" y="194" type="qcurve" smooth="yes"/>
      <point x="655" y="194"/>
      <point x="730" y="213"/>
      <point x="764" y="232" type="qcurve" smooth="yes"/>
      <point x="830" y="270"/>
      <point x="905" y="405"/>
      <point x="905" y="500" type="qcurve" smooth="yes"/>
      <point x="905" y="547"/>
      <point x="887" y="629"/>
      <point x="868" y="663" type="qcurve" smooth="yes"/>
      <point x="829" y="733"/>
      <point x="698" y="806"/>
      <point x="612" y="806" type="qcurve" smooth="yes"/>
      <point x="570" y="806"/>
      <point x="495" y="788"/>
      <point x="462" y="769" type="qcurve" smooth="yes"/>
      <point x="395" y="732"/>
      <point x="319" y="595"/>
      <point x="319" y="500" type="qcurve" smooth="yes"/>
      <point x="319" y="453"/>
      <point x="338" y="372"/>
      <point x="357" y="338" type="qcurve" smooth="yes"/>
      <point x="395" y="268"/>
      <point x="527" y="194"/>
    </contour>
  </outline>
</glyph>
<glyph name="r" format="2">
  <advance width="846"/>
  <unicode hex="0072"/>
  <outline>
    <contour>
      <point x="149" y="0" type="line"/>
      <point x="149" y="1000" type="line"/>
      <point x="405" y="1000" type="line"/>
      <point x="405" y="869" type="line"/>
      <point x="432" y="913"/>
      <point x="497" y="976"/>
      <point x="536" y="995" type="qcurve"/>
      <point x="576" y="1013"/>
      <point x="659" y="1031"/>
      <point x="706" y="1031" type="qcurve" smooth="yes"/>
      <point x="737" y="1031"/>
      <point x="791" y="1025"/>
      <point x="817" y="1019" type="qcurve"/>
      <point x="784" y="755" type="line"/>
      <point x="753" y="766"/>
      <point x="686" y="777"/>
      <point x="653" y="777" type="qcurve" smooth="yes"/>
      <point x="599" y="777"/>
      <point x="511" y="745"/>
      <point x="475" y="712" type="qcurve" smooth="yes"/>
      <point x="440" y="680"/>
      <point x="405" y="590"/>
      <point x="405" y="532" type="qcurve" smooth="yes"/>
      <point x="405" y="0" type="line"/>
    </contour>
  </outline>
</glyph>
<glyph name="s" format="2">
  <advance width="1010"/>
  <unicode hex="0073"/>
  <outline>
    <contour>
      <point x="499" y="-29" type="curve" smooth="yes"/>
      <point x="670" y="-29"/>
      <point x="795" y="28"/>
      <point x="867" y="125" type="curve" smooth="yes"/>
      <point x="902" y="173"/>
      <point x="919" y="230"/>
      <point x="919" y="295" type="curve" smooth="yes"/>
      <point x="919" y="380"/>
      <point x="891" y="447"/>
      <point x="834" y="494" type="curve"/>
      <point x="774" y="541"/>
      <point x="683" y="580"/>
      <point x="547" y="608" type="curve"/>
      <point x="467" y="627"/>
      <point x="414" y="643"/>
      <point x="385" y="659" type="curve"/>
      <point x="354" y="675"/>
      <point x="339" y="700"/>
      <point x="339" y="735" type="curve" smooth="yes"/>
      <point x="339" y="768"/>
      <point x="356" y="795"/>
      <point x="388" y="814" type="curve" smooth="yes"/>
      <point x="421" y="833"/>
      <point x="462" y="842"/>
      <point x="515" y="842" type="curve" smooth="yes"/>
      <point x="588" y="842"/>
      <point x="663" y="824"/>
      <point x="731" y="792" type="curve" smooth="yes"/>
      <point x="764" y="776"/>
      <point x="794" y="758"/>
      <point x="819" y="735" type="curve"/>
      <point x="904" y="918" type="line"/>
      <point x="855" y="957"/>
      <point x="797" y="988"/>
      <point x="728" y="1009" type="curve" smooth="yes"/>
      <point x="660" y="1029"/>
      <point x="587" y="1040"/>
      <point x="510" y="1040" type="curve" smooth="yes"/>
      <point x="353" y="1040"/>
      <point x="229" y="986"/>
      <point x="160" y="890" type="curve" smooth="yes"/>
      <point x="125" y="842"/>
      <point x="108" y="790"/>
      <point x="108" y="726" type="curve" smooth="yes"/>
      <point x="108" y="638"/>
      <point x="137" y="570"/>
      <point x="197" y="521" type="curve" smooth="yes"/>
      <point x="257" y="470"/>
      <point x="349" y="433"/>
      <point x="478" y="408" type="curve" smooth="yes"/>
      <point x="562" y="391"/>
      <point x="614" y="374"/>
      <point x="645" y="358" type="curve"/>
      <point x="674" y="342"/>
      <point x="688" y="316"/>
      <point x="688" y="283" type="curve" smooth="yes"/>
      <point x="688" y="211"/>
      <point x="622" y="169"/>
      <point x="498" y="169" type="curve" smooth="yes"/>
      <point x="442" y="169"/>
      <point x="385" y="179"/>
      <point x="325" y="200" type="curve" smooth="yes"/>
      <point x="265" y="221"/>
      <point x="210" y="248"/>
      <point x="161" y="284" type="curve"/>
      <point x="72" y="102" type="line"/>
      <point x="124" y="61"/>
      <point x="184" y="30"/>
      <point x="260" y="7" type="curve" smooth="yes"/>
      <point x="336" y="-17"/>
      <point x="411" y="-29"/>
    </contour>
  </outline>
</glyph>
<glyph name="t" format="2">
  <advance width="875"/>
  <unicode hex="0074"/>
  <outline>
    <contour>
      <point x="576" y="-30" type="qcurve" smooth="yes"/>
      <point x="499" y="-30"/>
      <point x="378" y="14"/>
      <point x="333" y="58" type="qcurve" smooth="yes"/>
      <point x="288" y="102"/>
      <point x="242" y="235"/>
      <point x="242" y="324" type="qcurve" smooth="yes"/>
      <point x="242" y="1290" type="line"/>
      <point x="498" y="1290" type="line"/>
      <point x="498" y="1000" type="line"/>
      <point x="761" y="1000" type="line"/>
      <point x="761" y="792" type="line"/>
      <point x="498" y="792" type="line"/>
      <point x="498" y="375" type="line" smooth="yes"/>
      <point x="498" y="327"/>
      <point x="517" y="260"/>
      <point x="537" y="240" type="qcurve" smooth="yes"/>
      <point x="556" y="220"/>
      <point x="608" y="200"/>
      <point x="642" y="200" type="qcurve" smooth="yes"/>
      <point x="675" y="200"/>
      <point x="737" y="216"/>
      <point x="762" y="229" type="qcurve"/>
      <point x="802" y="25" type="line"/>
      <point x="758" y="2"/>
      <point x="641" y="-30"/>
    </contour>
    <contour>
      <point x="31" y="792" type="line"/>
      <point x="31" y="1000" type="line"/>
      <point x="271" y="1000" type="line"/>
      <point x="271" y="792" type="line"/>
    </contour>
  </outline>
</glyph>
<glyph name="u" format="2">
  <advance width="1234"/>
  <unicode hex="0075"/>
  <outline>
    <contour>
      <point x="537" y="-30" type="qcurve" smooth="yes"/>
      <point x="470" y="-30"/>
      <point x="359" y="-3"/>
      <point x="314" y="24" type="qcurve" smooth="yes"/>
      <point x="269" y="51"/>
      <point x="204" y="123"/>
      <point x="183" y="169" type="qcurve"/>
      <point x="161" y="214"/>
      <point x="139" y="315"/>
      <point x="139" y="371" type="qcurve" smooth="yes"/>
      <point x="139" y="1000" type="line"/>
      <point x="395" y="1000" type="line"/>
      <point x="395" y="415" type="line" smooth="yes"/>
      <point x="395" y="367"/>
      <point x="423" y="291"/>
      <point x="450" y="262" type="qcurve" smooth="yes"/>
      <point x="478" y="233"/>
      <point x="555" y="204"/>
      <point x="605" y="204" type="qcurve" smooth="yes"/>
      <point x="638" y="204"/>
      <point x="695" y="219"/>
      <point x="721" y="234" type="qcurve" smooth="yes"/>
      <point x="771" y="263"/>
      <point x="829" y="367"/>
      <point x="829" y="436" type="qcurve" smooth="yes"/>
      <point x="829" y="1000" type="line"/>
      <point x="1085" y="1000" type="line"/>
      <point x="1085" y="0" type="line"/>
      <point x="859" y="0" type="line"/>
      <point x="859" y="114" type="line"/>
      <point x="831" y="82"/>
      <point x="765" y="30"/>
      <point x="726" y="10" type="qcurve" smooth="yes"/>
      <point x="687" y="-10"/>
      <point x="593" y="-30"/>
    </contour>
  </outline>
</glyph>
<glyph name="v" format="2">
  <advance width="1032"/>
  <unicode hex="0076"/>
  <outline>
    <contour>
      <point x="404" y="0" type="line"/>
      <point x="32" y="985" type="line"/>
      <point x="255" y="985" type="line"/>
      <point x="538" y="173" type="line"/>
      <point x="505" y="173" type="line"/>
      <point x="784" y="985" type="line"/>
      <point x="1000" y="985" type="line"/>
      <point x="634" y="0" type="line"/>
    </contour>
  </outline>
</glyph>
<glyph name="w" format="2">
  <advance width="1566"/>
  <unicode hex="0077"/>
  <anchor x="783" y="983" name="top"/>
  <outline>
    <contour>
      <point x="344" y="0" type="line"/>
      <point x="32" y="985" type="line"/>
      <point x="235" y="985" type="line"/>
      <point x="455" y="234" type="line"/>
      <point x="694" y="985" type="line"/>
      <point x="894" y="985" type="line"/>
      <point x="1117" y="234" type="line"/>
      <point x="1342" y="985" type="line"/>
      <point x="1534" y="985" type="line"/>
      <point x="1223" y="0" type="line"/>
      <point x="1012" y="0" type="line"/>
      <point x="788" y="726" type="line"/>
      <point x="554" y="0" type="line"/>
    </contour>
  </outline>
</glyph>
<glyph name="x" format="2">
  <advance width="1127"/>
  <unicode hex="0078"/>
  <outline>
    <contour>
      <point x="29" y="-2" type="line"/>
      <point x="343" y="2" type="line"/>
      <point x="558" y="328" type="line"/>
      <point x="770" y="0" type="line"/>
      <point x="1098" y="0" type="line"/>
      <point x="740" y="505" type="line"/>
      <point x="1071" y="1000" type="line"/>
      <point x="756" y="1000" type="line"/>
      <point x="567" y="679" type="line"/>
      <point x="372" y="1000" type="line"/>
      <point x="49" y="1000" type="line"/>
      <point x="390" y="499" type="line"/>
    </contour>
  </outline>
</glyph>
<glyph name="y" format="2">
  <advance width="1049"/>
  <unicode hex="0079"/>
  <anchor x="525" y="985" name="top"/>
  <anchor x="852" y="0" name="bottom"/>
  <outline>
    <contour>
      <point x="231" y="-449" type="qcurve" smooth="yes"/>
      <point x="180" y="-449"/>
      <point x="80" y="-425"/>
      <point x="31" y="-396" type="qcurve"/>
      <point x="78" y="-223" type="line"/>
      <point x="109" y="-243"/>
      <point x="182" y="-263"/>
      <point x="210" y="-263" type="qcurve" smooth="yes"/>
      <point x="282" y="-263"/>
      <point x="363" y="-194"/>
      <point x="388" y="-122" type="qcurve" smooth="yes"/>
      <point x="423" y="-18" type="line"/>
      <point x="34" y="985" type="line"/>
      <point x="256" y="985" type="line"/>
      <point x="538" y="206" type="line"/>
      <point x="813" y="985" type="line"/>
      <point x="1027" y="985" type="line"/>
      <point x="599" y="-150" type="line"/>
      <point x="553" y="-267"/>
      <point x="443" y="-397"/>
      <point x="310" y="-449"/>
    </contour>
  </outline>
</glyph>
<glyph name="z" format="2">
  <advance width="968"/>
  <unicode hex="007A"/>
  <anchor x="484" y="985" name="top"/>
  <outline>
    <contour>
      <point x="94" y="0" type="line"/>
      <point x="94" y="147" type="line"/>
      <point x="618" y="804" type="line"/>
      <point x="104" y="804" type="line"/>
      <point x="104" y="985" type="line"/>
      <point x="867" y="985" type="line"/>
      <point x="867" y="838" type="line"/>
      <point x="352" y="181" type="line"/>
      <point x="875" y="181" type="line"/>
      <point x="875" y="0" type="line"/>
    </contour>
  </outline>
</glyph>
<glyph name="braceleft" format="2">
  <advance width="687"/>
  <unicode hex="007B"/>
  <outline>
    <contour>
      <point x="574" y="-225" type="line"/>
      <point x="381" y="-248"/>
      <point x="204" y="-100"/>
      <point x="228" y="57" type="qcurve"/>
      <point x="284" y="464" type="line" smooth="yes"/>
      <point x="293" y="526"/>
      <point x="272" y="592"/>
      <point x="193" y="617"/>
      <point x="113" y="617" type="qcurve"/>
      <point x="113" y="766" type="line"/>
      <point x="193" y="766"/>
      <point x="272" y="791"/>
      <point x="293" y="857"/>
      <point x="284" y="918" type="qcurve" smooth="yes"/>
      <point x="229" y="1320" type="line"/>
      <point x="205" y="1479"/>
      <point x="384" y="1628"/>
      <point x="574" y="1605" type="qcurve"/>
      <point x="574" y="1456" type="line"/>
      <point x="471" y="1465"/>
      <point x="395" y="1402"/>
      <point x="405" y="1325" type="qcurve" smooth="yes"/>
      <point x="458" y="926" type="line"/>
      <point x="473" y="821"/>
      <point x="406" y="708"/>
      <point x="320" y="692" type="qcurve"/>
      <point x="320" y="690" type="line"/>
      <point x="409" y="673"/>
      <point x="474" y="560"/>
      <point x="459" y="456" type="qcurve"/>
      <point x="405" y="55" type="line" smooth="yes"/>
      <point x="395" y="-21"/>
      <point x="470" y="-84"/>
      <point x="574" y="-76" type="qcurve"/>
    </contour>
  </outline>
</glyph>
<glyph name="braceright" format="2">
  <advance width="699"/>
  <unicode hex="007D"/>
  <outline>
    <contour>
      <point x="100" y="-44" type="curve"/>
      <point x="100" y="-225" type="line"/>
      <point x="245" y="-240"/>
      <point x="348" y="-222"/>
      <point x="413" y="-166" type="curve" smooth="yes"/>
      <point x="477" y="-110"/>
      <point x="500" y="-27"/>
      <point x="480" y="93" type="curve"/>
      <point x="427" y="456" type="line" smooth="yes"/>
      <point x="416" y="533"/>
      <point x="428" y="573"/>
      <point x="481" y="589" type="curve" smooth="yes"/>
      <point x="508" y="597"/>
      <point x="546" y="601"/>
      <point x="599" y="601" type="curve"/>
      <point x="599" y="782" type="line"/>
      <point x="495" y="782"/>
      <point x="445" y="797"/>
      <point x="430" y="838" type="curve" smooth="yes"/>
      <point x="422" y="859"/>
      <point x="422" y="889"/>
      <point x="427" y="926" type="curve" smooth="yes"/>
      <point x="479" y="1284" type="line"/>
      <point x="499" y="1405"/>
      <point x="477" y="1490"/>
      <point x="412" y="1546" type="curve" smooth="yes"/>
      <point x="347" y="1602"/>
      <point x="245" y="1621"/>
      <point x="100" y="1605" type="curve"/>
      <point x="100" y="1424" type="line"/>
      <point x="235" y="1436"/>
      <point x="280" y="1396"/>
      <point x="265" y="1295" type="curve" smooth="yes"/>
      <point x="213" y="929" type="line" smooth="yes"/>
      <point x="193" y="793"/>
      <point x="240" y="713"/>
      <point x="359" y="692" type="curve"/>
      <point x="359" y="690" type="line"/>
      <point x="298" y="678"/>
      <point x="256" y="653"/>
      <point x="232" y="614" type="curve" smooth="yes"/>
      <point x="208" y="574"/>
      <point x="200" y="520"/>
      <point x="211" y="452" type="curve" smooth="yes"/>
      <point x="265" y="85" type="line" smooth="yes"/>
      <point x="273" y="36"/>
      <point x="265" y="1"/>
      <point x="240" y="-20" type="curve" smooth="yes"/>
      <point x="215" y="-41"/>
      <point x="168" y="-48"/>
    </contour>
  </outline>
</glyph>
<glyph name="asciitilde" format="2">
  <advance width="1296"/>
  <unicode hex="007E"/>
  <outline>
    <contour>
      <point x="878" y="500" type="qcurve" smooth="yes"/>
      <point x="818" y="500"/>
      <point x="693" y="545"/>
      <point x="573" y="603"/>
      <point x="467" y="648"/>
      <point x="424" y="648" type="qcurve" smooth="yes"/>
      <point x="366" y="648"/>
      <point x="255" y="578"/>
      <point x="210" y="513" type="qcurve"/>
      <point x="113" y="656" type="line"/>
      <point x="176" y="745"/>
      <point x="333" y="832"/>
      <point x="418" y="832" type="qcurve" smooth="yes"/>
      <point x="480" y="832"/>
      <point x="604" y="787"/>
      <point x="723" y="729"/>
      <point x="829" y="684"/>
      <point x="872" y="684" type="qcurve" smooth="yes"/>
      <point x="930" y="684"/>
      <point x="1042" y="754"/>
      <point x="1086" y="823" type="qcurve"/>
      <point x="1182" y="675" type="line"/>
      <point x="1120" y="586"/>
      <point x="962" y="500"/>
    </contour>
  </outline>
</glyph>
<glyph name="exclamdown" format="2">
  <advance width="680"/>
  <unicode hex="00A1"/>
  <outline>
    <contour>
      <point x="181" y="-420" type="line"/>
      <point x="222" y="517" type="line"/>
      <point x="448" y="517" type="line"/>
      <point x="489" y="-420" type="line"/>
    </contour>
    <contour>
      <point x="335" y="708" type="qcurve" smooth="yes"/>
      <point x="300" y="708"/>
      <point x="240" y="731"/>
      <point x="214" y="753" type="qcurve" smooth="yes"/>
      <point x="189" y="775"/>
      <point x="163" y="834"/>
      <point x="163" y="872" type="qcurve" smooth="yes"/>
      <point x="163" y="897"/>
      <point x="175" y="940"/>
      <point x="187" y="959" type="qcurve" smooth="yes"/>
      <point x="210" y="995"/>
      <point x="288" y="1035"/>
      <point x="335" y="1035" type="qcurve" smooth="yes"/>
      <point x="371" y="1035"/>
      <point x="432" y="1013"/>
      <point x="457" y="991" type="qcurve" smooth="yes"/>
      <point x="483" y="969"/>
      <point x="507" y="910"/>
      <point x="507" y="872" type="qcurve" smooth="yes"/>
      <point x="507" y="847"/>
      <point x="496" y="804"/>
      <point x="484" y="786" type="qcurve"/>
      <point x="461" y="748"/>
      <point x="382" y="708"/>
    </contour>
  </outline>
</glyph>
<glyph name="cent" format="2">
  <advance width="1296"/>
  <unicode hex="00A2"/>
  <outline>
    <contour>
      <point x="614" y="-160" type="line"/>
      <point x="614" y="8" type="line"/>
      <point x="551" y="17"/>
      <point x="442" y="60"/>
      <point x="394" y="94" type="qcurve" smooth="yes"/>
      <point x="298" y="162"/>
      <point x="192" y="370"/>
      <point x="192" y="500" type="qcurve" smooth="yes"/>
      <point x="192" y="566"/>
      <point x="220" y="681"/>
      <point x="247" y="734" type="qcurve" smooth="yes"/>
      <point x="301" y="837"/>
      <point x="490" y="971"/>
      <point x="614" y="991" type="qcurve"/>
      <point x="614" y="1160" type="line"/>
      <point x="794" y="1160" type="line"/>
      <point x="794" y="995" type="line"/>
      <point x="832" y="992"/>
      <point x="905" y="976"/>
      <point x="939" y="963" type="qcurve" smooth="yes"/>
      <point x="973" y="950"/>
      <point x="1035" y="915"/>
      <point x="1062" y="894" type="qcurve"/>
      <point x="959" y="731" type="line"/>
      <point x="924" y="755"/>
      <point x="838" y="784"/>
      <point x="791" y="787" type="qcurve"/>
      <point x="791" y="215" type="line"/>
      <point x="847" y="221"/>
      <point x="944" y="259"/>
      <point x="980" y="287" type="qcurve"/>
      <point x="1065" y="111" type="line"/>
      <point x="1007" y="66"/>
      <point x="873" y="15"/>
      <point x="794" y="6" type="qcurve"/>
      <point x="794" y="-160" type="line"/>
    </contour>
    <contour>
      <point x="617" y="781" type="line"/>
      <point x="582" y="777"/>
      <point x="524" y="756"/>
      <point x="499" y="738" type="qcurve" smooth="yes"/>
      <point x="449" y="701"/>
      <point x="394" y="581"/>
      <point x="394" y="501" type="qcurve" smooth="yes"/>
      <point x="394" y="441"/>
      <point x="424" y="346"/>
      <point x="455" y="309" type="qcurve" smooth="yes"/>
      <point x="485" y="272"/>
      <point x="566" y="229"/>
      <point x="617" y="221" type="qcurve"/>
    </contour>
  </outline>
</glyph>
<glyph name="sterling" format="2">
  <advance width="1296"/>
  <unicode hex="00A3"/>
  <outline>
    <contour>
      <point x="161" y="0" type="line"/>
      <point x="161" y="195" type="line"/>
      <point x="206" y="206"/>
      <point x="281" y="234"/>
      <point x="310" y="250" type="qcurve" smooth="yes"/>
      <point x="369" y="283"/>
      <point x="426" y="385"/>
      <point x="426" y="464" type="qcurve" smooth="yes"/>
      <point x="426" y="491"/>
      <point x="416" y="553"/>
      <point x="405" y="588" type="qcurve" smooth="yes"/>
      <point x="394" y="622"/>
      <point x="369" y="695"/>
      <point x="355" y="733" type="qcurve"/>
      <point x="340" y="770"/>
      <point x="316" y="846"/>
      <point x="305" y="884" type="qcurve" smooth="yes"/>
      <point x="294" y="922"/>
      <point x="283" y="993"/>
      <point x="283" y="1027" type="qcurve" smooth="yes"/>
      <point x="283" y="1087"/>
      <point x="314" y="1191"/>
      <point x="345" y="1237" type="qcurve" smooth="yes"/>
      <point x="406" y="1329"/>
      <point x="621" y="1430"/>
      <point x="762" y="1430" type="qcurve" smooth="yes"/>
      <point x="802" y="1430"/>
      <point x="879" y="1421"/>
      <point x="917" y="1410" type="qcurve"/>
      <point x="994" y="1390"/>
      <point x="1120" y="1322"/>
      <point x="1160" y="1282" type="qcurve"/>
      <point x="1060" y="1114" type="line"/>
      <point x="989" y="1176"/>
      <point x="843" y="1226"/>
      <point x="764" y="1226" type="qcurve" smooth="yes"/>
      <point x="704" y="1226"/>
      <point x="615" y="1195"/>
      <point x="586" y="1163" type="qcurve" smooth="yes"/>
      <point x="556" y="1130"/>
      <point x="527" y="1050"/>
      <point x="527" y="1001" type="qcurve" smooth="yes"/>
      <point x="527" y="944"/>
      <point x="562" y="807"/>
      <point x="584" y="735" type="qcurve" smooth="yes"/>
      <point x="607" y="662"/>
      <point x="641" y="522"/>
      <point x="641" y="461" type="qcurve" smooth="yes"/>
      <point x="641" y="428"/>
      <point x="629" y="363"/>
      <point x="616" y="329" type="qcurve" smooth="yes"/>
      <point x="603" y="295"/>
      <point x="552" y="231"/>
      <point x="515" y="201" type="qcurve"/>
      <point x="1191" y="201" type="line"/>
      <point x="1191" y="0" type="line"/>
    </contour>
    <contour>
      <point x="140" y="599" type="line"/>
      <point x="140" y="774" type="line"/>
      <point x="1017" y="774" type="line"/>
      <point x="1017" y="599" type="line"/>
    </contour>
  </outline>
</glyph>
<glyph name="currency" format="2">
  <advance width="1200"/>
  <unicode hex="00A4"/>
  <outline>
    <contour>
      <point x="256" y="106" type="line"/>
      <point x="397" y="261" type="line"/>
      <point x="459" y="218"/>
      <point x="526" y="198"/>
      <point x="600" y="198" type="curve" smooth="yes"/>
      <point x="675" y="198"/>
      <point x="741" y="217"/>
      <point x="803" y="261" type="curve"/>
      <point x="944" y="106" type="line"/>
      <point x="1076" y="247" type="line"/>
      <point x="935" y="399" type="line"/>
      <point x="978" y="468"/>
      <point x="999" y="545"/>
      <point x="999" y="620" type="curve" smooth="yes"/>
      <point x="999" y="699"/>
      <point x="978" y="777"/>
      <point x="935" y="843" type="curve"/>
      <point x="1076" y="995" type="line"/>
      <point x="944" y="1137" type="line"/>
      <point x="803" y="982" type="line"/>
      <point x="745" y="1024"/>
      <point x="673" y="1045"/>
      <point x="600" y="1045" type="curve" smooth="yes"/>
      <point x="527" y="1045"/>
      <point x="459" y="1029"/>
      <point x="397" y="982" type="curve"/>
      <point x="256" y="1137" type="line"/>
      <point x="125" y="995" type="line"/>
      <point x="264" y="843" type="line"/>
      <point x="225" y="777"/>
      <point x="203" y="699"/>
      <point x="203" y="620" type="curve" smooth="yes"/>
      <point x="203" y="545"/>
      <point x="224" y="468"/>
      <point x="264" y="399" type="curve"/>
      <point x="125" y="247" type="line"/>
    </contour>
    <contour>
      <point x="600" y="391" type="curve" smooth="yes"/>
      <point x="480" y="391"/>
      <point x="394" y="493"/>
      <point x="394" y="620" type="curve" smooth="yes"/>
      <point x="394" y="754"/>
      <point x="478" y="851"/>
      <point x="600" y="851" type="curve" smooth="yes"/>
      <point x="727" y="851"/>
      <point x="806" y="752"/>
      <point x="806" y="620" type="curve" smooth="yes"/>
      <point x="806" y="487"/>
      <point x="722" y="391"/>
    </contour>
  </outline>
</glyph>
<glyph name="yen" format="2">
  <advance width="1200"/>
  <unicode hex="00A5"/>
  <outline>
    <contour>
      <point x="480" y="0" type="line"/>
      <point x="713" y="0" type="line"/>
      <point x="713" y="282" type="line"/>
      <point x="1059" y="282" type="line"/>
      <point x="1059" y="445" type="line"/>
      <point x="713" y="445" type="line"/>
      <point x="713" y="605" type="line"/>
      <point x="1059" y="605" type="line"/>
      <point x="1059" y="768" type="line"/>
      <point x="791" y="768" type="line"/>
      <point x="1161" y="1400" type="line"/>
      <point x="915" y="1400" type="line"/>
      <point x="598" y="839" type="line"/>
      <point x="295" y="1400" type="line"/>
      <point x="39" y="1400" type="line"/>
      <point x="404" y="768" type="line"/>
      <point x="135" y="768" type="line"/>
      <point x="135" y="605" type="line"/>
      <point x="480" y="605" type="line"/>
      <point x="480" y="445" type="line"/>
      <point x="135" y="445" type="line"/>
      <point x="135" y="282" type="line"/>
      <point x="480" y="282" type="line"/>
    </contour>
  </outline>
</glyph>
<glyph name="brokenbar" format="2">
  <advance width="610"/>
  <unicode hex="00A6"/>
  <outline>
    <contour>
      <point x="200" y="810" type="line"/>
      <point x="200" y="1480" type="line"/>
      <point x="410" y="1480" type="line"/>
      <point x="410" y="810" type="line"/>
    </contour>
    <contour>
      <point x="200" y="-100" type="line"/>
      <point x="200" y="570" type="line"/>
      <point x="410" y="570" type="line"/>
      <point x="410" y="-100" type="line"/>
    </contour>
  </outline>
</glyph>
<glyph name="section" format="2">
  <advance width="1272"/>
  <unicode hex="00A7"/>
  <outline>
    <contour>
      <point x="618" y="-450" type="qcurve" smooth="yes"/>
      <point x="478" y="-450"/>
      <point x="227" y="-361"/>
      <point x="149" y="-294" type="qcurve"/>
      <point x="245" y="-104" type="line"/>
      <point x="321" y="-171"/>
      <point x="526" y="-244"/>
      <point x="626" y="-244" type="qcurve" smooth="yes"/>
      <point x="741" y="-244"/>
      <point x="880" y="-154"/>
      <point x="880" y="-76" type="qcurve" smooth="yes"/>
      <point x="880" y="-27"/>
      <point x="833" y="40"/>
      <point x="716" y="91"/>
      <point x="612" y="117" type="qcurve"/>
      <point x="451" y="155"/>
      <point x="244" y="255"/>
      <point x="143" y="399"/>
      <point x="143" y="504" type="qcurve" smooth="yes"/>
      <point x="143" y="584"/>
      <point x="220" y="716"/>
      <point x="358" y="813"/>
      <point x="540" y="865"/>
      <point x="645" y="863" type="qcurve"/>
      <point x="641" y="715" type="line"/>
      <point x="566" y="716"/>
      <point x="441" y="669"/>
      <point x="367" y="580"/>
      <point x="367" y="518" type="qcurve" smooth="yes"/>
      <point x="367" y="427"/>
      <point x="529" y="334"/>
      <point x="683" y="298" type="qcurve"/>
      <point x="898" y="251"/>
      <point x="1098" y="82"/>
      <point x="1098" y="-74" type="qcurve" smooth="yes"/>
      <point x="1098" y="-189"/>
      <point x="976" y="-358"/>
      <point x="759" y="-450"/>
    </contour>
    <contour>
      <point x="650" y="269" type="line"/>
      <point x="729" y="269"/>
      <point x="858" y="321"/>
      <point x="935" y="419"/>
      <point x="935" y="491" type="qcurve" smooth="yes"/>
      <point x="935" y="546"/>
      <point x="871" y="617"/>
      <point x="731" y="670"/>
      <point x="617" y="697" type="qcurve" smooth="yes"/>
      <point x="401" y="747"/>
      <point x="209" y="918"/>
      <point x="209" y="1068" type="qcurve" smooth="yes"/>
      <point x="209" y="1174"/>
      <point x="326" y="1337"/>
      <point x="531" y="1430"/>
      <point x="665" y="1430" type="qcurve" smooth="yes"/>
      <point x="793" y="1430"/>
      <point x="1025" y="1353"/>
      <point x="1112" y="1280" type="qcurve"/>
      <point x="1020" y="1088" type="line"/>
      <point x="972" y="1132"/>
      <point x="850" y="1193"/>
      <point x="718" y="1225"/>
      <point x="654" y="1225" type="qcurve" smooth="yes"/>
      <point x="550" y="1225"/>
      <point x="422" y="1140"/>
      <point x="422" y="1068" type="qcurve" smooth="yes"/>
      <point x="422" y="1013"/>
      <point x="477" y="947"/>
      <point x="599" y="901"/>
      <point x="698" y="877" type="qcurve"/>
      <point x="929" y="825"/>
      <point x="1164" y="659"/>
      <point x="1164" y="508" type="qcurve" smooth="yes"/>
      <point x="1164" y="392"/>
      <point x="1028" y="219"/>
      <point x="796" y="123"/>
      <point x="651" y="123" type="qcurve"/>
    </contour>
  </outline>
</glyph>
<glyph name="copyright" format="2">
  <advance width="1676"/>
  <unicode hex="00A9"/>
  <outline>
    <contour>
      <point x="838" y="-39" type="qcurve" smooth="yes"/>
      <point x="681" y="-39"/>
      <point x="412" y="72"/>
      <point x="211" y="271"/>
      <point x="100" y="537"/>
      <point x="100" y="691" type="qcurve" smooth="yes"/>
      <point x="100" y="847"/>
      <point x="212" y="1113"/>
      <point x="413" y="1311"/>
      <point x="681" y="1421"/>
      <point x="838" y="1421" type="qcurve" smooth="yes"/>
      <point x="995" y="1421"/>
      <point x="1263" y="1309"/>
      <point x="1464" y="1109"/>
      <point x="1576" y="844"/>
      <point x="1576" y="691" type="qcurve" smooth="yes"/>
      <point x="1576" y="536"/>
      <point x="1464" y="270"/>
      <point x="1263" y="72"/>
      <point x="995" y="-39"/>
    </contour>
    <contour>
      <point x="838" y="84" type="qcurve" smooth="yes"/>
      <point x="960" y="84"/>
      <point x="1177" y="170"/>
      <point x="1345" y="331"/>
      <point x="1440" y="554"/>
      <point x="1440" y="691" type="qcurve" smooth="yes"/>
      <point x="1440" y="829"/>
      <point x="1344" y="1051"/>
      <point x="1177" y="1212"/>
      <point x="960" y="1297"/>
      <point x="838" y="1297" type="qcurve" smooth="yes"/>
      <point x="717" y="1297"/>
      <point x="500" y="1212"/>
      <point x="332" y="1051"/>
      <point x="236" y="829"/>
      <point x="236" y="691" type="qcurve" smooth="yes"/>
      <point x="236" y="554"/>
      <point x="332" y="331"/>
      <point x="499" y="170"/>
      <point x="716" y="84"/>
    </contour>
    <contour>
      <point x="862" y="283" type="qcurve" smooth="yes"/>
      <point x="736" y="283"/>
      <point x="546" y="383"/>
      <point x="439" y="566"/>
      <point x="439" y="690" type="qcurve" smooth="yes"/>
      <point x="439" y="809"/>
      <point x="548" y="994"/>
      <point x="740" y="1099"/>
      <point x="863" y="1099" type="qcurve" smooth="yes"/>
      <point x="959" y="1099"/>
      <point x="1096" y="1053"/>
      <point x="1148" y="1010" type="qcurve"/>
      <point x="1070" y="884" type="line"/>
      <point x="1034" y="918"/>
      <point x="935" y="951"/>
      <point x="874" y="951" type="qcurve" smooth="yes"/>
      <point x="748" y="951"/>
      <point x="599" y="812"/>
      <point x="599" y="691" type="qcurve" smooth="yes"/>
      <point x="599" y="569"/>
      <point x="750" y="431"/>
      <point x="879" y="431" type="qcurve" smooth="yes"/>
      <point x="936" y="431"/>
      <point x="1048" y="465"/>
      <point x="1099" y="503" type="qcurve"/>
      <point x="1169" y="374" type="line"/>
      <point x="1112" y="332"/>
      <point x="961" y="283"/>
    </contour>
  </outline>
</glyph>
<glyph name="ordfeminine" format="2">
  <advance width="814"/>
  <unicode hex="00AA"/>
  <outline>
    <contour>
      <point x="317" y="702" type="qcurve" smooth="yes"/>
      <point x="266" y="702"/>
      <point x="183" y="731"/>
      <point x="149" y="759" type="qcurve" smooth="yes"/>
      <point x="116" y="787"/>
      <point x="82" y="863"/>
      <point x="82" y="912" type="qcurve" smooth="yes"/>
      <point x="82" y="949"/>
      <point x="108" y="1011"/>
      <point x="133" y="1037" type="qcurve" smooth="yes"/>
      <point x="183" y="1089"/>
      <point x="395" y="1134"/>
      <point x="560" y="1119" type="qcurve"/>
      <point x="562" y="1001" type="line"/>
      <point x="512" y="1009"/>
      <point x="426" y="1014"/>
      <point x="391" y="1012" type="qcurve"/>
      <point x="320" y="1006"/>
      <point x="248" y="960"/>
      <point x="248" y="920" type="qcurve" smooth="yes"/>
      <point x="248" y="881"/>
      <point x="312" y="837"/>
      <point x="366" y="837" type="qcurve" smooth="yes"/>
      <point x="400" y="837"/>
      <point x="457" y="855"/>
      <point x="480" y="873" type="qcurve" smooth="yes"/>
      <point x="503" y="891"/>
      <point x="526" y="939"/>
      <point x="526" y="969" type="qcurve" smooth="yes"/>
      <point x="526" y="1130" type="line" smooth="yes"/>
      <point x="526" y="1158"/>
      <point x="508" y="1205"/>
      <point x="490" y="1224" type="qcurve"/>
      <point x="471" y="1242"/>
      <point x="407" y="1260"/>
      <point x="360" y="1260" type="qcurve" smooth="yes"/>
      <point x="310" y="1260"/>
      <point x="209" y="1229"/>
      <point x="165" y="1198" type="qcurve"/>
      <point x="118" y="1322" type="line"/>
      <point x="144" y="1340"/>
      <point x="204" y="1368"/>
      <point x="240" y="1380" type="qcurve" smooth="yes"/>
      <point x="275" y="1392"/>
      <point x="350" y="1403"/>
      <point x="391" y="1403" type="qcurve" smooth="yes"/>
      <point x="465" y="1403"/>
      <point x="579" y="1370"/>
      <point x="620" y="1337" type="qcurve" smooth="yes"/>
      <point x="661" y="1304"/>
      <point x="701" y="1202"/>
      <point x="701" y="1132" type="qcurve" smooth="yes"/>
      <point x="701" y="722" type="line"/>
      <point x="541" y="722" type="line"/>
      <point x="541" y="795" type="line"/>
      <point x="508" y="750"/>
      <point x="389" y="702"/>
    </contour>
  </outline>
</glyph>
<glyph name="guillemotleft" format="2">
  <advance width="1042"/>
  <unicode hex="00AB"/>
  <outline>
    <contour>
      <point x="801" y="94" type="line"/>
      <point x="478" y="507" type="line"/>
      <point x="801" y="921" type="line"/>
      <point x="931" y="830" type="line"/>
      <point x="678" y="507" type="line"/>
      <point x="930" y="185" type="line"/>
    </contour>
    <contour>
      <point x="377" y="94" type="line"/>
      <point x="54" y="507" type="line"/>
      <point x="377" y="921" type="line"/>
      <point x="507" y="830" type="line"/>
      <point x="254" y="507" type="line"/>
      <point x="506" y="185" type="line"/>
    </contour>
  </outline>
</glyph>
<glyph name="logicalnot" format="2">
  <advance width="1296"/>
  <unicode hex="00AC"/>
  <outline>
    <contour>
      <point x="980" y="374" type="line"/>
      <point x="1172" y="374" type="line"/>
      <point x="1172" y="960" type="line"/>
      <point x="124" y="960" type="line"/>
      <point x="124" y="778" type="line"/>
      <point x="980" y="778" type="line"/>
    </contour>
  </outline>
</glyph>
<glyph name="registered" format="2">
  <advance width="1220"/>
  <unicode hex="00AE"/>
  <anchor x="615" y="1145" name="top"/>
  <anchor x="631" y="824" name="bottom"/>
  <outline>
    <contour>
      <point x="610" y="474" type="qcurve" smooth="yes"/>
      <point x="461" y="474"/>
      <point x="224" y="609"/>
      <point x="86" y="841"/>
      <point x="86" y="985" type="qcurve" smooth="yes"/>
      <point x="86" y="1131"/>
      <point x="225" y="1362"/>
      <point x="462" y="1496"/>
      <point x="610" y="1496" type="qcurve" smooth="yes"/>
      <point x="758" y="1496"/>
      <point x="995" y="1359"/>
      <point x="1134" y="1128"/>
      <point x="1134" y="985" type="qcurve" smooth="yes"/>
      <point x="1134" y="841"/>
      <point x="996" y="609"/>
      <point x="758" y="474"/>
    </contour>
    <contour>
      <point x="610" y="555" type="qcurve" smooth="yes"/>
      <point x="727" y="555"/>
      <point x="924" y="663"/>
      <point x="1043" y="856"/>
      <point x="1043" y="985" type="qcurve" smooth="yes"/>
      <point x="1043" y="1114"/>
      <point x="923" y="1307"/>
      <point x="726" y="1414"/>
      <point x="610" y="1414" type="qcurve" smooth="yes"/>
      <point x="494" y="1414"/>
      <point x="297" y="1307"/>
      <point x="177" y="1114"/>
      <point x="177" y="985" type="qcurve" smooth="yes"/>
      <point x="177" y="856"/>
      <point x="297" y="663"/>
      <point x="494" y="555"/>
    </contour>
    <contour>
      <point x="421" y="710" type="line"/>
      <point x="421" y="1259" type="line"/>
      <point x="642" y="1259" type="line" smooth="yes"/>
      <point x="732" y="1259"/>
      <point x="842" y="1172"/>
      <point x="842" y="1094" type="qcurve" smooth="yes"/>
      <point x="842" y="1034"/>
      <point x="763" y="956"/>
      <point x="701" y="943" type="qcurve"/>
      <point x="870" y="710" type="line"/>
      <point x="748" y="710" type="line"/>
      <point x="595" y="925" type="line"/>
      <point x="522" y="925" type="line"/>
      <point x="522" y="710" type="line"/>
    </contour>
    <contour>
      <point x="522" y="1008" type="line"/>
      <point x="626" y="1008" type="line" smooth="yes"/>
      <point x="679" y="1008"/>
      <point x="738" y="1051"/>
      <point x="738" y="1090" type="qcurve" smooth="yes"/>
      <point x="738" y="1130"/>
      <point x="685" y="1175"/>
      <point x="633" y="1175" type="qcurve" smooth="yes"/>
      <point x="522" y="1175" type="line"/>
    </contour>
  </outline>
</glyph>
<glyph name="degree" format="2">
  <advance width="915"/>
  <unicode hex="00B0"/>
  <outline>
    <contour>
      <point x="458" y="678" type="qcurve" smooth="yes"/>
      <point x="353" y="678"/>
      <point x="181" y="777"/>
      <point x="78" y="946"/>
      <point x="78" y="1050" type="qcurve" smooth="yes"/>
      <point x="78" y="1152"/>
      <point x="181" y="1320"/>
      <point x="353" y="1420"/>
      <point x="458" y="1420" type="qcurve" smooth="yes"/>
      <point x="564" y="1420"/>
      <point x="735" y="1320"/>
      <point x="837" y="1152"/>
      <point x="837" y="1050" type="qcurve" smooth="yes"/>
      <point x="837" y="947"/>
      <point x="735" y="778"/>
      <point x="564" y="678"/>
    </contour>
    <contour>
      <point x="458" y="820" type="qcurve" smooth="yes"/>
      <point x="527" y="820"/>
      <point x="630" y="879"/>
      <point x="688" y="982"/>
      <point x="688" y="1050" type="qcurve" smooth="yes"/>
      <point x="688" y="1152"/>
      <point x="562" y="1277"/>
      <point x="458" y="1277" type="qcurve" smooth="yes"/>
      <point x="390" y="1277"/>
      <point x="286" y="1219"/>
      <point x="228" y="1117"/>
      <point x="228" y="1050" type="qcurve" smooth="yes"/>
      <point x="228" y="949"/>
      <point x="356" y="820"/>
    </contour>
  </outline>
</glyph>
<glyph name="twosuperior" format="2">
  <advance width="855"/>
  <unicode hex="00B2"/>
  <outline>
    <contour>
      <point x="414" y="1495" type="curve" smooth="yes"/>
      <point x="499" y="1495"/>
      <point x="553" y="1461"/>
      <point x="553" y="1371" type="curve" smooth="yes"/>
      <point x="553" y="1195"/>
      <point x="228" y="954"/>
      <point x="90" y="858" type="curve"/>
      <point x="90" y="714" type="line"/>
      <point x="731" y="714" type="line"/>
      <point x="731" y="875" type="line"/>
      <point x="375" y="875" type="line"/>
      <point x="524" y="973"/>
      <point x="736" y="1174"/>
      <point x="736" y="1364" type="curve" smooth="yes"/>
      <point x="736" y="1554"/>
      <point x="594" y="1649"/>
      <point x="414" y="1649" type="curve" smooth="yes"/>
      <point x="258" y="1649"/>
      <point x="112" y="1545"/>
      <point x="68" y="1393" type="curve"/>
      <point x="222" y="1321" type="line"/>
      <point x="250" y="1402"/>
      <point x="321" y="1495"/>
    </contour>
  </outline>
</glyph>
<glyph name="threesuperior" format="2">
  <advance width="819"/>
  <unicode hex="00B3"/>
  <outline>
    <contour>
      <point x="373" y="702" type="qcurve" smooth="yes"/>
      <point x="282" y="702"/>
      <point x="119" y="757"/>
      <point x="76" y="796" type="qcurve"/>
      <point x="126" y="921" type="line"/>
      <point x="170" y="882"/>
      <point x="300" y="836"/>
      <point x="364" y="836" type="qcurve" smooth="yes"/>
      <point x="457" y="836"/>
      <point x="570" y="925"/>
      <point x="570" y="999" type="qcurve" smooth="yes"/>
      <point x="570" y="1075"/>
      <point x="454" y="1159"/>
      <point x="358" y="1159" type="qcurve" smooth="yes"/>
      <point x="334" y="1159"/>
      <point x="277" y="1152"/>
      <point x="247" y="1146" type="qcurve"/>
      <point x="202" y="1246" type="line"/>
      <point x="493" y="1503" type="line"/>
      <point x="84" y="1503" type="line"/>
      <point x="84" y="1632" type="line"/>
      <point x="676" y="1632" type="line"/>
      <point x="676" y="1514" type="line"/>
      <point x="399" y="1256" type="line"/>
      <point x="482" y="1257"/>
      <point x="627" y="1198"/>
      <point x="717" y="1079"/>
      <point x="717" y="990" type="qcurve" smooth="yes"/>
      <point x="717" y="905"/>
      <point x="629" y="775"/>
      <point x="474" y="702"/>
    </contour>
  </outline>
</glyph>
<glyph name="paragraph" format="2">
  <advance width="1320"/>
  <unicode hex="00B6"/>
  <outline>
    <contour>
      <point x="524" y="-420" type="line"/>
      <point x="524" y="620" type="line"/>
      <point x="561" y="578" type="line"/>
      <point x="461" y="578"/>
      <point x="375" y="595"/>
      <point x="300" y="630" type="curve" smooth="yes"/>
      <point x="149" y="699"/>
      <point x="65" y="825"/>
      <point x="65" y="989" type="curve" smooth="yes"/>
      <point x="65" y="1072"/>
      <point x="86" y="1143"/>
      <point x="126" y="1204" type="curve" smooth="yes"/>
      <point x="209" y="1329"/>
      <point x="360" y="1400"/>
      <point x="561" y="1400" type="curve" smooth="yes"/>
      <point x="1270" y="1400" type="line"/>
      <point x="1270" y="1243" type="line"/>
      <point x="1057" y="1243" type="line"/>
      <point x="1057" y="-420" type="line"/>
      <point x="875" y="-420" type="line"/>
      <point x="875" y="1243" type="line"/>
      <point x="706" y="1243" type="line"/>
      <point x="706" y="-420" type="line"/>
    </contour>
  </outline>
</glyph>
<glyph name="onesuperior" format="2">
  <advance width="641"/>
  <unicode hex="00B9"/>
  <outline>
    <contour>
      <point x="319" y="722" type="line"/>
      <point x="319" y="1435" type="line"/>
      <point x="90" y="1357" type="line"/>
      <point x="42" y="1499" type="line"/>
      <point x="416" y="1631" type="line"/>
      <point x="488" y="1632" type="line"/>
      <point x="488" y="722" type="line"/>
    </contour>
  </outline>
</glyph>
<glyph name="ordmasculine" format="2">
  <advance width="863"/>
  <unicode hex="00BA"/>
  <outline>
    <contour>
      <point x="431" y="702" type="qcurve" smooth="yes"/>
      <point x="377" y="702"/>
      <point x="283" y="726"/>
      <point x="241" y="750" type="qcurve" smooth="yes"/>
      <point x="157" y="797"/>
      <point x="62" y="955"/>
      <point x="62" y="1049" type="qcurve" smooth="yes"/>
      <point x="62" y="1096"/>
      <point x="86" y="1181"/>
      <point x="110" y="1221" type="qcurve" smooth="yes"/>
      <point x="158" y="1300"/>
      <point x="323" y="1396"/>
      <point x="431" y="1396" type="qcurve" smooth="yes"/>
      <point x="486" y="1396"/>
      <point x="581" y="1373"/>
      <point x="623" y="1349" type="qcurve" smooth="yes"/>
      <point x="707" y="1301"/>
      <point x="801" y="1143"/>
      <point x="801" y="1049" type="qcurve" smooth="yes"/>
      <point x="801" y="1003"/>
      <point x="778" y="918"/>
      <point x="754" y="878" type="qcurve" smooth="yes"/>
      <point x="706" y="799"/>
      <point x="540" y="702"/>
    </contour>
    <contour>
      <point x="431" y="860" type="qcurve" smooth="yes"/>
      <point x="459" y="860"/>
      <point x="507" y="872"/>
      <point x="529" y="884" type="qcurve" smooth="yes"/>
      <point x="572" y="907"/>
      <point x="621" y="991"/>
      <point x="621" y="1049" type="qcurve" smooth="yes"/>
      <point x="621" y="1093"/>
      <point x="595" y="1162"/>
      <point x="568" y="1188" type="qcurve"/>
      <point x="540" y="1213"/>
      <point x="472" y="1238"/>
      <point x="431" y="1238" type="qcurve" smooth="yes"/>
      <point x="404" y="1238"/>
      <point x="355" y="1227"/>
      <point x="334" y="1216" type="qcurve"/>
      <point x="291" y="1192"/>
      <point x="241" y="1108"/>
      <point x="241" y="1049" type="qcurve" smooth="yes"/>
      <point x="241" y="1005"/>
      <point x="269" y="937"/>
      <point x="296" y="912" type="qcurve" smooth="yes"/>
      <point x="323" y="886"/>
      <point x="390" y="860"/>
    </contour>
  </outline>
</glyph>
<glyph name="guillemetright" format="2">
  <advance width="1093"/>
  <unicode hex="00BB"/>
  <outline>
    <contour>
      <point x="731" y="943" type="line"/>
      <point x="1043" y="514" type="line"/>
      <point x="731" y="85" type="line"/>
      <point x="563" y="195" type="line"/>
      <point x="797" y="514" type="line"/>
      <point x="564" y="832" type="line"/>
    </contour>
    <contour>
      <point x="281" y="943" type="line"/>
      <point x="593" y="514" type="line"/>
      <point x="281" y="85" type="line"/>
      <point x="113" y="195" type="line"/>
      <point x="347" y="514" type="line"/>
      <point x="114" y="832" type="line"/>
    </contour>
  </outline>
</glyph>
<glyph name="onequarter" format="2">
  <advance width="1842"/>
  <unicode hex="00BC"/>
  <outline>
    <contour>
      <point x="319" y="490" type="line"/>
      <point x="488" y="490" type="line"/>
      <point x="488" y="1400" type="line"/>
      <point x="417" y="1400" type="line"/>
      <point x="42" y="1267" type="line"/>
      <point x="90" y="1125" type="line"/>
      <point x="319" y="1203" type="line"/>
    </contour>
    <contour>
      <point x="1494" y="0" type="line"/>
      <point x="1649" y="0" type="line"/>
      <point x="1649" y="178" type="line"/>
      <point x="1785" y="178" type="line"/>
      <point x="1785" y="327" type="line"/>
      <point x="1649" y="327" type="line"/>
      <point x="1649" y="516" type="line"/>
      <point x="1494" y="516" type="line"/>
      <point x="1494" y="327" type="line"/>
      <point x="1227" y="327" type="line"/>
      <point x="1538" y="910" type="line"/>
      <point x="1355" y="910" type="line"/>
      <point x="1037" y="312" type="line"/>
      <point x="1037" y="178" type="line"/>
      <point x="1494" y="178" type="line"/>
    </contour>
    <contour>
      <point x="519" y="-35" type="line"/>
      <point x="1296" y="1358" type="line"/>
      <point x="1158" y="1435" type="line"/>
      <point x="381" y="47" type="line"/>
    </contour>
  </outline>
</glyph>
<glyph name="onehalf" format="2">
  <advance width="1870"/>
  <unicode hex="00BD"/>
  <anchor x="743" y="-55" name="top"/>
  <outline>
    <contour>
      <point x="319" y="490" type="line"/>
      <point x="319" y="1203" type="line"/>
      <point x="90" y="1125" type="line"/>
      <point x="42" y="1267" type="line"/>
      <point x="417" y="1400" type="line"/>
      <point x="488" y="1400" type="line"/>
      <point x="488" y="490" type="line"/>
    </contour>
    <contour>
      <point x="519" y="-35" type="line"/>
      <point x="381" y="47" type="line"/>
      <point x="1158" y="1435" type="line"/>
      <point x="1296" y="1358" type="line"/>
    </contour>
    <contour>
      <point x="1122" y="626" type="line"/>
      <point x="1118" y="647"/>
      <point x="1117" y="667"/>
      <point x="1117" y="685" type="curve" smooth="yes"/>
      <point x="1117" y="753"/>
      <point x="1146" y="812"/>
      <point x="1191" y="855" type="curve" smooth="yes"/>
      <point x="1250" y="913"/>
      <point x="1336" y="934"/>
      <point x="1443" y="934" type="curve" smooth="yes"/>
      <point x="1623" y="934"/>
      <point x="1772" y="839"/>
      <point x="1772" y="657" type="curve" smooth="yes"/>
      <point x="1772" y="539"/>
      <point x="1679" y="428"/>
      <point x="1519" y="279" type="curve" smooth="yes"/>
      <point x="1384" y="153" type="line"/>
      <point x="1795" y="153" type="line"/>
      <point x="1795" y="0" type="line"/>
      <point x="1119" y="0" type="line"/>
      <point x="1119" y="124" type="line"/>
      <point x="1331" y="304" type="line" smooth="yes"/>
      <point x="1465" y="417"/>
      <point x="1592" y="531"/>
      <point x="1592" y="639" type="curve" smooth="yes"/>
      <point x="1592" y="726"/>
      <point x="1527" y="780"/>
      <point x="1432" y="780" type="curve" smooth="yes"/>
      <point x="1386" y="780"/>
      <point x="1341" y="768"/>
      <point x="1314" y="738" type="curve" smooth="yes"/>
      <point x="1298" y="721"/>
      <point x="1289" y="697"/>
      <point x="1289" y="667" type="curve" smooth="yes"/>
      <point x="1289" y="652"/>
      <point x="1291" y="635"/>
      <point x="1295" y="614" type="curve"/>
    </contour>
  </outline>
</glyph>
<glyph name="threequarters" format="2">
  <advance width="2022"/>
  <unicode hex="00BE"/>
  <outline>
    <contour>
      <point x="374" y="470" type="qcurve" smooth="yes"/>
      <point x="327" y="470"/>
      <point x="240" y="485"/>
      <point x="198" y="499" type="qcurve" smooth="yes"/>
      <point x="156" y="514"/>
      <point x="93" y="547"/>
      <point x="72" y="568" type="qcurve"/>
      <point x="129" y="714" type="line"/>
      <point x="149" y="694"/>
      <point x="202" y="663"/>
      <point x="235" y="651" type="qcurve" smooth="yes"/>
      <point x="267" y="639"/>
      <point x="330" y="627"/>
      <point x="362" y="627" type="qcurve" smooth="yes"/>
      <point x="404" y="627"/>
      <point x="472" y="647"/>
      <point x="498" y="667" type="qcurve" smooth="yes"/>
      <point x="524" y="686"/>
      <point x="550" y="738"/>
      <point x="550" y="771" type="qcurve" smooth="yes"/>
      <point x="550" y="805"/>
      <point x="525" y="858"/>
      <point x="499" y="877" type="qcurve" smooth="yes"/>
      <point x="472" y="896"/>
      <point x="403" y="914"/>
      <point x="360" y="914" type="qcurve" smooth="yes"/>
      <point x="337" y="914"/>
      <point x="281" y="908"/>
      <point x="250" y="900" type="qcurve"/>
      <point x="199" y="1017" type="line"/>
      <point x="470" y="1249" type="line"/>
      <point x="81" y="1249" type="line"/>
      <point x="81" y="1400" type="line"/>
      <point x="682" y="1400" type="line"/>
      <point x="682" y="1262" type="line"/>
      <point x="427" y="1025" type="line"/>
      <point x="466" y="1024"/>
      <point x="537" y="1009"/>
      <point x="571" y="994" type="qcurve" smooth="yes"/>
      <point x="639" y="963"/>
      <point x="723" y="847"/>
      <point x="723" y="759" type="qcurve" smooth="yes"/>
      <point x="723" y="717"/>
      <point x="701" y="642"/>
      <point x="679" y="609" type="qcurve" smooth="yes"/>
      <point x="634" y="544"/>
      <point x="477" y="470"/>
    </contour>
    <contour>
      <point x="1674" y="0" type="line"/>
      <point x="1674" y="178" type="line"/>
      <point x="1217" y="178" type="line"/>
      <point x="1217" y="312" type="line"/>
      <point x="1535" y="910" type="line"/>
      <point x="1718" y="910" type="line"/>
      <point x="1407" y="327" type="line"/>
      <point x="1674" y="327" type="line"/>
      <point x="1674" y="516" type="line"/>
      <point x="1829" y="516" type="line"/>
      <point x="1829" y="327" type="line"/>
      <point x="1965" y="327" type="line"/>
      <point x="1965" y="178" type="line"/>
      <point x="1829" y="178" type="line"/>
      <point x="1829" y="0" type="line"/>
    </contour>
    <contour>
      <point x="699" y="-35" type="line"/>
      <point x="561" y="47" type="line"/>
      <point x="1338" y="1435" type="line"/>
      <point x="1476" y="1358" type="line"/>
    </contour>
  </outline>
</glyph>
<glyph name="questiondown" format="2">
  <advance width="1001"/>
  <unicode hex="00BF"/>
  <outline>
    <contour>
      <point x="625" y="569" type="line"/>
      <point x="671" y="511"/>
      <point x="693" y="452"/>
      <point x="691" y="393" type="curve" smooth="yes"/>
      <point x="689" y="333"/>
      <point x="675" y="288"/>
      <point x="650" y="257" type="curve" smooth="yes"/>
      <point x="624" y="225"/>
      <point x="588" y="195"/>
      <point x="542" y="165" type="curve" smooth="yes"/>
      <point x="479" y="124"/>
      <point x="436" y="89"/>
      <point x="415" y="62" type="curve" smooth="yes"/>
      <point x="393" y="34"/>
      <point x="382" y="3"/>
      <point x="382" y="-32" type="curve" smooth="yes"/>
      <point x="382" y="-139"/>
      <point x="460" y="-191"/>
      <point x="601" y="-191" type="curve" smooth="yes"/>
      <point x="699" y="-191"/>
      <point x="785" y="-163"/>
      <point x="865" y="-107" type="curve"/>
      <point x="926" y="-318" type="line"/>
      <point x="844" y="-396"/>
      <point x="658" y="-430"/>
      <point x="544" y="-430" type="curve" smooth="yes"/>
      <point x="329" y="-430"/>
      <point x="89" y="-327"/>
      <point x="89" y="-83" type="curve" smooth="yes"/>
      <point x="89" y="-42"/>
      <point x="97" y="-4"/>
      <point x="111" y="32" type="curve"/>
      <point x="141" y="102"/>
      <point x="207" y="168"/>
      <point x="324" y="247" type="curve" smooth="yes"/>
      <point x="365" y="274"/>
      <point x="395" y="300"/>
      <point x="414" y="325" type="curve" smooth="yes"/>
      <point x="433" y="349"/>
      <point x="444" y="372"/>
      <point x="446" y="394" type="curve" smooth="yes"/>
      <point x="448" y="416"/>
      <point x="434" y="450"/>
      <point x="402" y="495" type="curve"/>
    </contour>
    <contour>
      <point x="548" y="1030" type="curve" smooth="yes"/>
      <point x="595" y="1030"/>
      <point x="635" y="1015"/>
      <point x="669" y="986" type="curve" smooth="yes"/>
      <point x="703" y="956"/>
      <point x="720" y="917"/>
      <point x="720" y="867" type="curve" smooth="yes"/>
      <point x="720" y="834"/>
      <point x="712" y="805"/>
      <point x="697" y="781" type="curve" smooth="yes"/>
      <point x="666" y="731"/>
      <point x="611" y="703"/>
      <point x="548" y="703" type="curve" smooth="yes"/>
      <point x="501" y="703"/>
      <point x="461" y="718"/>
      <point x="427" y="748" type="curve" smooth="yes"/>
      <point x="393" y="777"/>
      <point x="376" y="817"/>
      <point x="376" y="867" type="curve" smooth="yes"/>
      <point x="376" y="900"/>
      <point x="384" y="929"/>
      <point x="400" y="954" type="curve" smooth="yes"/>
      <point x="431" y="1003"/>
      <point x="486" y="1030"/>
    </contour>
  </outline>
</glyph>
<glyph name="AE" format="2">
  <advance width="1775"/>
  <unicode hex="00C6"/>
  <anchor x="1146" y="1400" name="top"/>
  <outline>
    <contour>
      <point x="-38" y="0" type="line"/>
      <point x="641" y="1400" type="line"/>
      <point x="1631" y="1400" type="line"/>
      <point x="1631" y="1217" type="line"/>
      <point x="981" y="1217" type="line"/>
      <point x="981" y="819" type="line"/>
      <point x="1559" y="819" type="line"/>
      <point x="1559" y="645" type="line"/>
      <point x="981" y="645" type="line"/>
      <point x="981" y="184" type="line"/>
      <point x="1639" y="184" type="line"/>
      <point x="1639" y="0" type="line"/>
      <point x="775" y="0" type="line"/>
      <point x="775" y="339" type="line"/>
      <point x="342" y="339" type="line"/>
      <point x="182" y="0" type="line"/>
    </contour>
    <contour>
      <point x="414" y="510" type="line"/>
      <point x="775" y="510" type="line"/>
      <point x="775" y="1250" type="line"/>
    </contour>
  </outline>
</glyph>
<glyph name="Eth" format="2">
  <advance width="1478"/>
  <unicode hex="00D0"/>
  <outline>
    <contour>
      <point x="21" y="628" type="line"/>
      <point x="21" y="826" type="line"/>
      <point x="876" y="826" type="line"/>
      <point x="876" y="628" type="line"/>
    </contour>
    <contour>
      <point x="218" y="0" type="line"/>
      <point x="218" y="1400" type="line"/>
      <point x="670" y="1400" type="line" smooth="yes"/>
      <point x="776" y="1400"/>
      <point x="962" y="1356"/>
      <point x="1044" y="1311" type="qcurve" smooth="yes"/>
      <point x="1125" y="1266"/>
      <point x="1250" y="1143"/>
      <point x="1296" y="1064" type="qcurve" smooth="yes"/>
      <point x="1342" y="985"/>
      <point x="1387" y="803"/>
      <point x="1387" y="699" type="qcurve" smooth="yes"/>
      <point x="1387" y="544"/>
      <point x="1284" y="289"/>
      <point x="1188" y="196" type="qcurve" smooth="yes"/>
      <point x="1091" y="102"/>
      <point x="830" y="0"/>
      <point x="670" y="0" type="qcurve" smooth="yes"/>
    </contour>
    <contour>
      <point x="478" y="242" type="line"/>
      <point x="646" y="242" type="line" smooth="yes"/>
      <point x="753" y="242"/>
      <point x="923" y="304"/>
      <point x="986" y="363" type="qcurve" smooth="yes"/>
      <point x="1049" y="423"/>
      <point x="1115" y="591"/>
      <point x="1115" y="699" type="qcurve" smooth="yes"/>
      <point x="1115" y="772"/>
      <point x="1086" y="895"/>
      <point x="1057" y="947" type="qcurve" smooth="yes"/>
      <point x="998" y="1050"/>
      <point x="788" y="1158"/>
      <point x="646" y="1158" type="qcurve" smooth="yes"/>
      <point x="478" y="1158" type="line"/>
    </contour>
  </outline>
</glyph>
<glyph name="multiply" format="2">
  <advance width="1296"/>
  <unicode hex="00D7"/>
  <outline>
    <contour>
      <point x="308" y="201" type="line"/>
      <point x="183" y="326" type="line"/>
      <point x="524" y="667" type="line"/>
      <point x="183" y="1007" type="line"/>
      <point x="308" y="1132" type="line"/>
      <point x="648" y="791" type="line"/>
      <point x="989" y="1132" type="line"/>
      <point x="1113" y="1006" type="line"/>
      <point x="773" y="666" type="line"/>
      <point x="1113" y="325" type="line"/>
      <point x="989" y="201" type="line"/>
      <point x="648" y="541" type="line"/>
    </contour>
  </outline>
</glyph>
<glyph name="Oslash" format="2">
  <advance width="1662"/>
  <unicode hex="00D8"/>
  <outline>
    <contour>
      <point x="305" y="-87" type="line"/>
      <point x="442" y="78" type="line"/>
      <point x="555" y="10"/>
      <point x="686" y="-30"/>
      <point x="831" y="-30" type="curve" smooth="yes"/>
      <point x="1043" y="-30"/>
      <point x="1222" y="47"/>
      <point x="1358" y="180" type="curve" smooth="yes"/>
      <point x="1495" y="313"/>
      <point x="1571" y="491"/>
      <point x="1571" y="700" type="curve" smooth="yes"/>
      <point x="1571" y="899"/>
      <point x="1500" y="1073"/>
      <point x="1375" y="1205" type="curve"/>
      <point x="1501" y="1356" type="line"/>
      <point x="1344" y="1495" type="line"/>
      <point x="1205" y="1327" type="line"/>
      <point x="1101" y="1391"/>
      <point x="976" y="1430"/>
      <point x="831" y="1430" type="curve" smooth="yes"/>
      <point x="619" y="1430"/>
      <point x="440" y="1354"/>
      <point x="304" y="1221" type="curve" smooth="yes"/>
      <point x="167" y="1088"/>
      <point x="91" y="911"/>
      <point x="91" y="700" type="curve" smooth="yes"/>
      <point x="91" y="504"/>
      <point x="159" y="338"/>
      <point x="275" y="206" type="curve"/>
      <point x="148" y="53" type="line"/>
    </contour>
    <contour>
      <point x="1048" y="1132" type="curve"/>
      <point x="454" y="416" type="line"/>
      <point x="394" y="489"/>
      <point x="358" y="584"/>
      <point x="358" y="700" type="curve" smooth="yes"/>
      <point x="358" y="852"/>
      <point x="409" y="970"/>
      <point x="494" y="1058" type="curve" smooth="yes"/>
      <point x="582" y="1146"/>
      <point x="695" y="1192"/>
      <point x="831" y="1192" type="curve" smooth="yes"/>
      <point x="911" y="1192"/>
      <point x="987" y="1172"/>
    </contour>
    <contour>
      <point x="831" y="208" type="curve" smooth="yes"/>
      <point x="743" y="208"/>
      <point x="663" y="232"/>
      <point x="595" y="272" type="curve"/>
      <point x="1203" y="1004" type="line"/>
      <point x="1268" y="927"/>
      <point x="1304" y="824"/>
      <point x="1304" y="700" type="curve" smooth="yes"/>
      <point x="1304" y="551"/>
      <point x="1257" y="429"/>
      <point x="1169" y="344" type="curve"/>
      <point x="1084" y="256"/>
      <point x="968" y="208"/>
    </contour>
  </outline>
</glyph>
<glyph name="Thorn" format="2">
  <advance width="1305"/>
  <unicode hex="00DE"/>
  <outline>
    <contour>
      <point x="178" y="0" type="line"/>
      <point x="438" y="0" type="line"/>
      <point x="438" y="279" type="line"/>
      <point x="716" y="279" type="line" smooth="yes"/>
      <point x="941" y="279"/>
      <point x="1095" y="347"/>
      <point x="1179" y="480" type="curve" smooth="yes"/>
      <point x="1220" y="545"/>
      <point x="1240" y="623"/>
      <point x="1240" y="719" type="curve" smooth="yes"/>
      <point x="1240" y="907"/>
      <point x="1148" y="1037"/>
      <point x="991" y="1109" type="curve"/>
      <point x="911" y="1144"/>
      <point x="826" y="1161"/>
      <point x="722" y="1161" type="curve" smooth="yes"/>
      <point x="438" y="1161" type="line"/>
      <point x="438" y="1400" type="line"/>
      <point x="178" y="1400" type="line"/>
    </contour>
    <contour>
      <point x="438" y="500" type="line"/>
      <point x="438" y="935" type="line"/>
      <point x="717" y="935" type="line" smooth="yes"/>
      <point x="797" y="935"/>
      <point x="861" y="917"/>
      <point x="909" y="880" type="curve" smooth="yes"/>
      <point x="957" y="841"/>
      <point x="980" y="787"/>
      <point x="980" y="714" type="curve" smooth="yes"/>
      <point x="980" y="567"/>
      <point x="883" y="500"/>
      <point x="715" y="500" type="curve" smooth="yes"/>
    </contour>
  </outline>
</glyph>
<glyph name="germandbls" format="2">
  <advance width="1304"/>
  <unicode hex="00DF"/>
  <outline>
    <contour>
      <point x="816" y="-29" type="qcurve" smooth="yes"/>
      <point x="771" y="-29"/>
      <point x="640" y="-10"/>
      <point x="554" y="26" type="qcurve"/>
      <point x="619" y="218" type="line"/>
      <point x="665" y="192"/>
      <point x="744" y="171"/>
      <point x="785" y="171" type="qcurve" smooth="yes"/>
      <point x="873" y="171"/>
      <point x="971" y="245"/>
      <point x="971" y="310" type="qcurve" smooth="yes"/>
      <point x="971" y="342"/>
      <point x="951" y="393"/>
      <point x="931" y="413" type="qcurve" smooth="yes"/>
      <point x="910" y="433"/>
      <point x="863" y="471"/>
      <point x="835" y="490" type="qcurve" smooth="yes"/>
      <point x="815" y="504"/>
      <point x="776" y="535"/>
      <point x="755" y="552" type="qcurve" smooth="yes"/>
      <point x="714" y="585"/>
      <point x="657" y="672"/>
      <point x="657" y="728" type="qcurve" smooth="yes"/>
      <point x="657" y="749"/>
      <point x="666" y="787"/>
      <point x="674" y="805" type="qcurve"/>
      <point x="691" y="840"/>
      <point x="739" y="901"/>
      <point x="761" y="929" type="qcurve"/>
      <point x="774" y="944"/>
      <point x="797" y="972"/>
      <point x="808" y="986" type="qcurve" smooth="yes"/>
      <point x="830" y="1013"/>
      <point x="858" y="1070"/>
      <point x="858" y="1103" type="qcurve" smooth="yes"/>
      <point x="858" y="1139"/>
      <point x="829" y="1193"/>
      <point x="800" y="1214" type="qcurve"/>
      <point x="770" y="1234"/>
      <point x="695" y="1253"/>
      <point x="649" y="1253" type="qcurve" smooth="yes"/>
      <point x="530" y="1253"/>
      <point x="405" y="1117"/>
      <point x="405" y="992" type="qcurve" smooth="yes"/>
      <point x="405" y="0" type="line"/>
      <point x="149" y="0" type="line"/>
      <point x="149" y="1019" type="line" smooth="yes"/>
      <point x="149" y="1087"/>
      <point x="180" y="1205"/>
      <point x="211" y="1257" type="qcurve" smooth="yes"/>
      <point x="272" y="1359"/>
      <point x="497" y="1470"/>
      <point x="653" y="1470" type="qcurve" smooth="yes"/>
      <point x="721" y="1470"/>
      <point x="840" y="1450"/>
      <point x="892" y="1430" type="qcurve" smooth="yes"/>
      <point x="996" y="1389"/>
      <point x="1111" y="1246"/>
      <point x="1111" y="1149" type="qcurve" smooth="yes"/>
      <point x="1111" y="1121"/>
      <point x="1102" y="1072"/>
      <point x="1093" y="1050" type="qcurve" smooth="yes"/>
      <point x="1074" y="1006"/>
      <point x="1018" y="934"/>
      <point x="991" y="899" type="qcurve" smooth="yes"/>
      <point x="977" y="881"/>
      <point x="952" y="848"/>
      <point x="940" y="831" type="qcurve"/>
      <point x="927" y="814"/>
      <point x="915" y="780"/>
      <point x="915" y="762" type="qcurve" smooth="yes"/>
      <point x="915" y="739"/>
      <point x="935" y="699"/>
      <point x="954" y="682" type="qcurve" smooth="yes"/>
      <point x="974" y="665"/>
      <point x="1017" y="631"/>
      <point x="1040" y="614" type="qcurve" smooth="yes"/>
      <point x="1064" y="597"/>
      <point x="1111" y="560"/>
      <point x="1134" y="540" type="qcurve" smooth="yes"/>
      <point x="1180" y="499"/>
      <point x="1239" y="390"/>
      <point x="1239" y="313" type="qcurve" smooth="yes"/>
      <point x="1239" y="262"/>
      <point x="1212" y="174"/>
      <point x="1185" y="135" type="qcurve" smooth="yes"/>
      <point x="1130" y="57"/>
      <point x="940" y="-29"/>
    </contour>
  </outline>
</glyph>
<glyph name="ae" format="2">
  <advance width="1827"/>
  <unicode hex="00E6"/>
  <anchor x="898" y="1000" name="top"/>
  <outline>
    <contour>
      <point x="448" y="-30" type="qcurve" smooth="yes"/>
      <point x="279" y="-30"/>
      <point x="78" y="142"/>
      <point x="78" y="289" type="qcurve" smooth="yes"/>
      <point x="78" y="401"/>
      <point x="228" y="560"/>
      <point x="542" y="628"/>
      <point x="790" y="603" type="qcurve"/>
      <point x="791" y="435" type="line"/>
      <point x="629" y="459"/>
      <point x="418" y="436"/>
      <point x="315" y="358"/>
      <point x="315" y="299" type="qcurve" smooth="yes"/>
      <point x="315" y="235"/>
      <point x="409" y="164"/>
      <point x="492" y="164" type="qcurve" smooth="yes"/>
      <point x="562" y="164"/>
      <point x="676" y="216"/>
      <point x="744" y="319"/>
      <point x="744" y="396" type="qcurve"/>
      <point x="745" y="633" type="line"/>
      <point x="745" y="724"/>
      <point x="624" y="831"/>
      <point x="492" y="831" type="qcurve" smooth="yes"/>
      <point x="422" y="831"/>
      <point x="266" y="784"/>
      <point x="200" y="735" type="qcurve"/>
      <point x="130" y="918" type="line"/>
      <point x="225" y="981"/>
      <point x="436" y="1035"/>
      <point x="534" y="1035" type="qcurve" smooth="yes"/>
      <point x="699" y="1035"/>
      <point x="922" y="909"/>
      <point x="965" y="777" type="qcurve"/>
      <point x="863" y="796" type="line"/>
      <point x="942" y="907"/>
      <point x="1166" y="1030"/>
      <point x="1298" y="1030" type="qcurve" smooth="yes"/>
      <point x="1455" y="1030"/>
      <point x="1677" y="874"/>
      <point x="1778" y="606"/>
      <point x="1754" y="438" type="qcurve"/>
      <point x="1006" y="438" type="line"/>
      <point x="1004" y="320"/>
      <point x="1168" y="174"/>
      <point x="1305" y="174" type="qcurve" smooth="yes"/>
      <point x="1385" y="174"/>
      <point x="1536" y="224"/>
      <point x="1602" y="273" type="qcurve"/>
      <point x="1692" y="94" type="line"/>
      <point x="1648" y="56"/>
      <point x="1520" y="1"/>
      <point x="1373" y="-30"/>
      <point x="1302" y="-30" type="qcurve" smooth="yes"/>
      <point x="1121" y="-30"/>
      <point x="846" y="151"/>
      <point x="790" y="323" type="qcurve"/>
      <point x="887" y="340" type="line"/>
      <point x="879" y="228"/>
      <point x="760" y="62"/>
      <point x="566" y="-30"/>
    </contour>
    <contour>
      <point x="1512" y="620" type="line"/>
      <point x="1508" y="721"/>
      <point x="1388" y="836"/>
      <point x="1281" y="836" type="qcurve" smooth="yes"/>
      <point x="1172" y="836"/>
      <point x="1031" y="721"/>
      <point x="1021" y="620" type="qcurve"/>
    </contour>
  </outline>
</glyph>
<glyph name="eth" format="2">
  <advance width="1204"/>
  <unicode hex="00F0"/>
  <outline>
    <contour>
      <point x="592" y="-30" type="curve" smooth="yes"/>
      <point x="491" y="-30"/>
      <point x="400" y="-8"/>
      <point x="321" y="37" type="curve" smooth="yes"/>
      <point x="242" y="81"/>
      <point x="179" y="140"/>
      <point x="134" y="215" type="curve" smooth="yes"/>
      <point x="88" y="290"/>
      <point x="65" y="373"/>
      <point x="65" y="465" type="curve" smooth="yes"/>
      <point x="65" y="598"/>
      <point x="119" y="719"/>
      <point x="211" y="808" type="curve" smooth="yes"/>
      <point x="302" y="896"/>
      <point x="427" y="950"/>
      <point x="570" y="950" type="curve" smooth="yes"/>
      <point x="603" y="950"/>
      <point x="636" y="947"/>
      <point x="671" y="941" type="curve" smooth="yes"/>
      <point x="739" y="928"/>
      <point x="804" y="899"/>
      <point x="856" y="850" type="curve"/>
      <point x="809" y="848" type="line"/>
      <point x="760" y="937"/>
      <point x="692" y="1024"/>
      <point x="605" y="1105" type="curve" smooth="yes"/>
      <point x="517" y="1186"/>
      <point x="412" y="1263"/>
      <point x="291" y="1331" type="curve"/>
      <point x="487" y="1468" type="line"/>
      <point x="622" y="1387"/>
      <point x="737" y="1296"/>
      <point x="834" y="1196" type="curve" smooth="yes"/>
      <point x="931" y="1095"/>
      <point x="1005" y="988"/>
      <point x="1057" y="875" type="curve" smooth="yes"/>
      <point x="1108" y="761"/>
      <point x="1134" y="643"/>
      <point x="1134" y="521" type="curve" smooth="yes"/>
      <point x="1134" y="368"/>
      <point x="1079" y="230"/>
      <point x="981" y="130" type="curve" smooth="yes"/>
      <point x="883" y="30"/>
      <point x="749" y="-30"/>
    </contour>
    <contour>
      <point x="592" y="189" type="curve" smooth="yes"/>
      <point x="647" y="189"/>
      <point x="695" y="201"/>
      <point x="737" y="225" type="curve" smooth="yes"/>
      <point x="820" y="272"/>
      <point x="870" y="360"/>
      <point x="870" y="475" type="curve" smooth="yes"/>
      <point x="870" y="533"/>
      <point x="858" y="583"/>
      <point x="835" y="626" type="curve" smooth="yes"/>
      <point x="787" y="711"/>
      <point x="701" y="761"/>
      <point x="592" y="761" type="curve" smooth="yes"/>
      <point x="539" y="761"/>
      <point x="492" y="749"/>
      <point x="451" y="726" type="curve" smooth="yes"/>
      <point x="369" y="678"/>
      <point x="319" y="591"/>
      <point x="319" y="475" type="curve" smooth="yes"/>
      <point x="319" y="418"/>
      <point x="331" y="368"/>
      <point x="354" y="325" type="curve" smooth="yes"/>
      <point x="401" y="239"/>
      <point x="485" y="189"/>
    </contour>
    <contour>
      <point x="296" y="1004" type="line"/>
      <point x="296" y="1162" type="line"/>
      <point x="617" y="1308" type="line"/>
      <point x="617" y="1316" type="line"/>
      <point x="929" y="1462" type="line"/>
      <point x="929" y="1304" type="line"/>
      <point x="617" y="1158" type="line"/>
      <point x="617" y="1150" type="line"/>
    </contour>
  </outline>
</glyph>
<glyph name="divide" format="2">
  <advance width="1296"/>
  <unicode hex="00F7"/>
  <outline>
    <contour>
      <point x="145" y="591" type="line"/>
      <point x="145" y="741" type="line"/>
      <point x="1162" y="741" type="line"/>
      <point x="1162" y="591" type="line"/>
    </contour>
    <contour>
      <point x="654" y="166" type="qcurve" smooth="yes"/>
      <point x="602" y="166"/>
      <point x="528" y="237"/>
      <point x="528" y="288" type="qcurve" smooth="yes"/>
      <point x="528" y="322"/>
      <point x="562" y="378"/>
      <point x="619" y="411"/>
      <point x="654" y="411" type="qcurve" smooth="yes"/>
      <point x="707" y="411"/>
      <point x="782" y="340"/>
      <point x="782" y="288" type="qcurve" smooth="yes"/>
      <point x="782" y="254"/>
      <point x="747" y="198"/>
      <point x="689" y="166"/>
    </contour>
    <contour>
      <point x="654" y="918" type="qcurve" smooth="yes"/>
      <point x="602" y="918"/>
      <point x="528" y="989"/>
      <point x="528" y="1040" type="qcurve" smooth="yes"/>
      <point x="528" y="1074"/>
      <point x="562" y="1130"/>
      <point x="619" y="1163"/>
      <point x="654" y="1163" type="qcurve" smooth="yes"/>
      <point x="709" y="1163"/>
      <point x="782" y="1092"/>
      <point x="782" y="1040" type="qcurve" smooth="yes"/>
      <point x="782" y="1006"/>
      <point x="748" y="951"/>
      <point x="690" y="918"/>
    </contour>
  </outline>
</glyph>
<glyph name="oslash" format="2">
  <advance width="1224"/>
  <unicode hex="00F8"/>
  <anchor x="612" y="1000" name="top"/>
  <outline>
    <contour>
      <point x="239" y="-94" type="line"/>
      <point x="106" y="22" type="line"/>
      <point x="204" y="142" type="line"/>
      <point x="118" y="238"/>
      <point x="65" y="363"/>
      <point x="65" y="500" type="curve" smooth="yes"/>
      <point x="65" y="642"/>
      <point x="121" y="773"/>
      <point x="220" y="872" type="curve" smooth="yes"/>
      <point x="317" y="970"/>
      <point x="453" y="1030"/>
      <point x="612" y="1030" type="curve" smooth="yes"/>
      <point x="712" y="1030"/>
      <point x="801" y="1007"/>
      <point x="877" y="964" type="curve"/>
      <point x="984" y="1095" type="line"/>
      <point x="1117" y="979" type="line"/>
      <point x="1019" y="859" type="line"/>
      <point x="1107" y="765"/>
      <point x="1159" y="639"/>
      <point x="1159" y="500" type="curve" smooth="yes"/>
      <point x="1159" y="359"/>
      <point x="1103" y="228"/>
      <point x="1006" y="129" type="curve" smooth="yes"/>
      <point x="907" y="31"/>
      <point x="772" y="-30"/>
      <point x="612" y="-30" type="curve" smooth="yes"/>
      <point x="514" y="-30"/>
      <point x="422" y="-5"/>
      <point x="346" y="36" type="curve"/>
    </contour>
    <contour>
      <point x="743" y="789" type="line"/>
      <point x="709" y="810"/>
      <point x="666" y="820"/>
      <point x="618" y="820" type="curve" smooth="yes"/>
      <point x="558" y="820"/>
      <point x="504" y="807"/>
      <point x="457" y="781" type="curve" smooth="yes"/>
      <point x="363" y="728"/>
      <point x="306" y="628"/>
      <point x="306" y="495" type="curve" smooth="yes"/>
      <point x="306" y="425"/>
      <point x="326" y="365"/>
      <point x="358" y="319" type="curve"/>
    </contour>
    <contour>
      <point x="606" y="180" type="curve" smooth="yes"/>
      <point x="666" y="180"/>
      <point x="720" y="194"/>
      <point x="767" y="220" type="curve" smooth="yes"/>
      <point x="861" y="273"/>
      <point x="918" y="372"/>
      <point x="918" y="505" type="curve" smooth="yes"/>
      <point x="918" y="577"/>
      <point x="900" y="637"/>
      <point x="866" y="683" type="curve"/>
      <point x="479" y="211" type="line"/>
      <point x="515" y="192"/>
      <point x="558" y="180"/>
    </contour>
  </outline>
</glyph>
<glyph name="thorn" format="2">
  <advance width="1309"/>
  <unicode hex="00FE"/>
  <outline>
    <contour>
      <point x="149" y="-420" type="line"/>
      <point x="149" y="1440" type="line"/>
      <point x="404" y="1440" type="line"/>
      <point x="404" y="886" type="line"/>
      <point x="435" y="919"/>
      <point x="507" y="972"/>
      <point x="549" y="991" type="qcurve" smooth="yes"/>
      <point x="592" y="1011"/>
      <point x="686" y="1030"/>
      <point x="740" y="1030" type="qcurve" smooth="yes"/>
      <point x="815" y="1030"/>
      <point x="945" y="995"/>
      <point x="1003" y="960" type="qcurve" smooth="yes"/>
      <point x="1060" y="924"/>
      <point x="1148" y="829"/>
      <point x="1180" y="769" type="qcurve" smooth="yes"/>
      <point x="1213" y="708"/>
      <point x="1244" y="575"/>
      <point x="1244" y="500" type="qcurve" smooth="yes"/>
      <point x="1244" y="389"/>
      <point x="1171" y="198"/>
      <point x="1104" y="125" type="qcurve" smooth="yes"/>
      <point x="1036" y="52"/>
      <point x="852" y="-30"/>
      <point x="740" y="-30" type="qcurve" smooth="yes"/>
      <point x="687" y="-30"/>
      <point x="591" y="-10"/>
      <point x="507" y="26"/>
      <point x="435" y="78"/>
      <point x="404" y="110" type="qcurve"/>
      <point x="404" y="-420" type="line"/>
    </contour>
    <contour>
      <point x="697" y="194" type="qcurve" smooth="yes"/>
      <point x="740" y="194"/>
      <point x="815" y="213"/>
      <point x="849" y="232" type="qcurve" smooth="yes"/>
      <point x="915" y="270"/>
      <point x="990" y="405"/>
      <point x="990" y="500" type="qcurve" smooth="yes"/>
      <point x="990" y="547"/>
      <point x="972" y="629"/>
      <point x="953" y="663" type="qcurve" smooth="yes"/>
      <point x="915" y="733"/>
      <point x="783" y="806"/>
      <point x="697" y="806" type="qcurve" smooth="yes"/>
      <point x="654" y="806"/>
      <point x="580" y="788"/>
      <point x="546" y="769" type="qcurve" smooth="yes"/>
      <point x="479" y="732"/>
      <point x="404" y="595"/>
      <point x="404" y="500" type="qcurve" smooth="yes"/>
      <point x="404" y="453"/>
      <point x="423" y="372"/>
      <point x="442" y="338" type="qcurve" smooth="yes"/>
      <point x="480" y="268"/>
      <point x="612" y="194"/>
    </contour>
  </outline>
</glyph>
<glyph name="aogonek" format="2">
  <advance width="1096"/>
  <unicode hex="0105"/>
  <anchor x="518" y="985" name="top"/>
  <anchor x="518" y="0" name="bottom"/>
  <outline>
    <contour>
      <point x="764" y="-450" type="qcurve" smooth="yes"/>
      <point x="662" y="-450"/>
      <point x="548" y="-330"/>
      <point x="549" y="-244" type="qcurve" smooth="yes"/>
      <point x="550" y="-156"/>
      <point x="650" y="-22"/>
      <point x="816" y="67"/>
      <point x="919" y="83" type="qcurve"/>
      <point x="953" y="0" type="line"/>
      <point x="876" y="-13"/>
      <point x="766" y="-66"/>
      <point x="706" y="-147"/>
      <point x="704" y="-203" type="qcurve"/>
      <point x="704" y="-245"/>
      <point x="747" y="-303"/>
      <point x="796" y="-303" type="qcurve" smooth="yes"/>
      <point x="824" y="-303"/>
      <point x="878" y="-285"/>
      <point x="899" y="-270" type="qcurve"/>
      <point x="956" y="-397" type="line"/>
      <point x="913" y="-422"/>
      <point x="815" y="-450"/>
    </contour>
    <contour>
      <point x="430" y="-30" type="qcurve" smooth="yes"/>
      <point x="326" y="-30"/>
      <point x="171" y="47"/>
      <point x="86" y="187"/>
      <point x="86" y="282" type="qcurve" smooth="yes"/>
      <point x="86" y="362"/>
      <point x="167" y="492"/>
      <point x="339" y="577"/>
      <point x="613" y="606"/>
      <point x="805" y="586" type="qcurve"/>
      <point x="809" y="443" type="line"/>
      <point x="667" y="463"/>
      <point x="463" y="455"/>
      <point x="336" y="410"/>
      <point x="276" y="336"/>
      <point x="276" y="289" type="qcurve" smooth="yes"/>
      <point x="276" y="214"/>
      <point x="383" y="132"/>
      <point x="477" y="132" type="qcurve" smooth="yes"/>
      <point x="556" y="132"/>
      <point x="683" y="191"/>
      <point x="757" y="296"/>
      <point x="757" y="366" type="qcurve" smooth="yes"/>
      <point x="757" y="635" type="line" smooth="yes"/>
      <point x="757" y="703"/>
      <point x="698" y="802"/>
      <point x="583" y="857"/>
      <point x="497" y="857" type="qcurve" smooth="yes"/>
      <point x="419" y="857"/>
      <point x="267" y="810"/>
      <point x="198" y="760" type="qcurve"/>
      <point x="139" y="911" type="line"/>
      <point x="231" y="974"/>
      <point x="429" y="1025"/>
      <point x="520" y="1025" type="qcurve" smooth="yes"/>
      <point x="656" y="1025"/>
      <point x="850" y="939"/>
      <point x="953" y="766"/>
      <point x="953" y="637" type="qcurve" smooth="yes"/>
      <point x="953" y="0" type="line"/>
      <point x="769" y="0" type="line"/>
      <point x="769" y="119" type="line"/>
      <point x="719" y="47"/>
      <point x="540" y="-30"/>
    </contour>
  </outline>
</glyph>
<glyph name="dcroat" format="2">
  <advance width="1309"/>
  <unicode hex="0111"/>
  <outline>
    <contour>
      <point x="580" y="1135" type="line"/>
      <point x="580" y="1293" type="line"/>
      <point x="1290" y="1293" type="line"/>
      <point x="1290" y="1135" type="line"/>
    </contour>
    <contour>
      <point x="565" y="-30" type="qcurve" smooth="yes"/>
      <point x="492" y="-30"/>
      <point x="364" y="4"/>
      <point x="307" y="39" type="qcurve" smooth="yes"/>
      <point x="250" y="73"/>
      <point x="162" y="166"/>
      <point x="130" y="226" type="qcurve" smooth="yes"/>
      <point x="97" y="286"/>
      <point x="65" y="423"/>
      <point x="65" y="500" type="qcurve" smooth="yes"/>
      <point x="65" y="612"/>
      <point x="139" y="804"/>
      <point x="206" y="877" type="qcurve" smooth="yes"/>
      <point x="274" y="950"/>
      <point x="457" y="1030"/>
      <point x="569" y="1030" type="qcurve" smooth="yes"/>
      <point x="634" y="1030"/>
      <point x="747" y="1005"/>
      <point x="796" y="979" type="qcurve" smooth="yes"/>
      <point x="844" y="953"/>
      <point x="926" y="881"/>
      <point x="960" y="833" type="qcurve"/>
      <point x="904" y="775" type="line"/>
      <point x="904" y="1440" type="line"/>
      <point x="1160" y="1440" type="line"/>
      <point x="1160" y="0" type="line"/>
      <point x="934" y="0" type="line"/>
      <point x="934" y="247" type="line"/>
      <point x="970" y="189" type="line"/>
      <point x="945" y="141"/>
      <point x="869" y="63"/>
      <point x="819" y="32" type="qcurve" smooth="yes"/>
      <point x="768" y="1"/>
      <point x="641" y="-30"/>
    </contour>
    <contour>
      <point x="612" y="194" type="qcurve" smooth="yes"/>
      <point x="655" y="194"/>
      <point x="730" y="213"/>
      <point x="763" y="232" type="qcurve" smooth="yes"/>
      <point x="830" y="270"/>
      <point x="905" y="405"/>
      <point x="905" y="500" type="qcurve" smooth="yes"/>
      <point x="905" y="547"/>
      <point x="887" y="629"/>
      <point x="868" y="663" type="qcurve" smooth="yes"/>
      <point x="830" y="733"/>
      <point x="698" y="806"/>
      <point x="612" y="806" type="qcurve" smooth="yes"/>
      <point x="569" y="806"/>
      <point x="495" y="788"/>
      <point x="461" y="769" type="qcurve" smooth="yes"/>
      <point x="394" y="732"/>
      <point x="319" y="595"/>
      <point x="319" y="500" type="qcurve" smooth="yes"/>
      <point x="319" y="453"/>
      <point x="338" y="372"/>
      <point x="358" y="338" type="qcurve"/>
      <point x="396" y="268"/>
      <point x="527" y="194"/>
    </contour>
  </outline>
</glyph>
<glyph name="eogonek" format="2">
  <advance width="1162"/>
  <unicode hex="0119"/>
  <outline>
    <contour>
      <point x="775" y="-450" type="curve" smooth="yes"/>
      <point x="706" y="-450"/>
      <point x="651" y="-429"/>
      <point x="611" y="-389" type="curve" smooth="yes"/>
      <point x="570" y="-348"/>
      <point x="550" y="-297"/>
      <point x="550" y="-237" type="curve" smooth="yes"/>
      <point x="551" y="-176"/>
      <point x="568" y="-124"/>
      <point x="604" y="-79" type="curve"/>
      <point x="673" y="13"/>
      <point x="798" y="75"/>
      <point x="951" y="92" type="curve"/>
      <point x="980" y="0" type="line"/>
      <point x="927" y="-7"/>
      <point x="881" y="-17"/>
      <point x="844" y="-34" type="curve"/>
      <point x="768" y="-66"/>
      <point x="728" y="-116"/>
      <point x="727" y="-187" type="curve" smooth="yes"/>
      <point x="727" y="-214"/>
      <point x="734" y="-237"/>
      <point x="749" y="-254" type="curve"/>
      <point x="764" y="-270"/>
      <point x="787" y="-281"/>
      <point x="816" y="-281" type="curve" smooth="yes"/>
      <point x="853" y="-281"/>
      <point x="891" y="-266"/>
      <point x="919" y="-243" type="curve"/>
      <point x="984" y="-389" type="line"/>
      <point x="923" y="-428"/>
      <point x="850" y="-450"/>
    </contour>
    <contour>
      <point x="611" y="-30" type="curve" smooth="yes"/>
      <point x="503" y="-30"/>
      <point x="409" y="-8"/>
      <point x="326" y="37" type="curve" smooth="yes"/>
      <point x="161" y="125"/>
      <point x="65" y="287"/>
      <point x="65" y="499" type="curve" smooth="yes"/>
      <point x="65" y="654"/>
      <point x="121" y="785"/>
      <point x="217" y="881" type="curve" smooth="yes"/>
      <point x="314" y="976"/>
      <point x="444" y="1030"/>
      <point x="600" y="1030" type="curve" smooth="yes"/>
      <point x="771" y="1030"/>
      <point x="903" y="969"/>
      <point x="990" y="861" type="curve" smooth="yes"/>
      <point x="1078" y="752"/>
      <point x="1115" y="609"/>
      <point x="1088" y="438" type="curve"/>
      <point x="306" y="438" type="line"/>
      <point x="306" y="386"/>
      <point x="319" y="340"/>
      <point x="344" y="300" type="curve" smooth="yes"/>
      <point x="396" y="221"/>
      <point x="493" y="174"/>
      <point x="622" y="174" type="curve" smooth="yes"/>
      <point x="680" y="174"/>
      <point x="735" y="182"/>
      <point x="788" y="199" type="curve" smooth="yes"/>
      <point x="841" y="216"/>
      <point x="889" y="240"/>
      <point x="934" y="273" type="curve"/>
      <point x="1025" y="94" type="line"/>
      <point x="993" y="70"/>
      <point x="955" y="47"/>
      <point x="907" y="28" type="curve" smooth="yes"/>
      <point x="814" y="-9"/>
      <point x="707" y="-30"/>
    </contour>
    <contour>
      <point x="840" y="620" type="line"/>
      <point x="839" y="688"/>
      <point x="817" y="739"/>
      <point x="773" y="779" type="curve" smooth="yes"/>
      <point x="730" y="818"/>
      <point x="671" y="836"/>
      <point x="594" y="836" type="curve" smooth="yes"/>
      <point x="518" y="836"/>
      <point x="456" y="818"/>
      <point x="407" y="779" type="curve" smooth="yes"/>
      <point x="356" y="739"/>
      <point x="328" y="688"/>
      <point x="321" y="620" type="curve"/>
    </contour>
  </outline>
</glyph>
<glyph name="Hbar" format="2">
  <advance width="1552"/>
  <unicode hex="0126"/>
  <outline>
    <contour>
      <point x="1094" y="0" type="line"/>
      <point x="1094" y="1400" type="line"/>
      <point x="1354" y="1400" type="line"/>
      <point x="1354" y="0" type="line"/>
    </contour>
    <contour>
      <point x="198" y="0" type="line"/>
      <point x="198" y="1400" type="line"/>
      <point x="458" y="1400" type="line"/>
      <point x="458" y="0" type="line"/>
    </contour>
    <contour>
      <point x="429" y="558" type="line"/>
      <point x="429" y="796" type="line"/>
      <point x="1124" y="796" type="line"/>
      <point x="1124" y="558" type="line"/>
    </contour>
    <contour>
      <point x="18" y="993" type="line"/>
      <point x="18" y="1191" type="line"/>
      <point x="1534" y="1191" type="line"/>
      <point x="1534" y="993" type="line"/>
    </contour>
  </outline>
</glyph>
<glyph name="dotlessi" format="2">
  <advance width="554"/>
  <unicode hex="0131"/>
  <anchor x="277" y="1000" name="top"/>
  <anchor x="277" y="-0" name="bottom"/>
  <outline>
    <contour>
      <point x="149" y="0" type="line"/>
      <point x="149" y="1000" type="line"/>
      <point x="405" y="1000" type="line"/>
      <point x="405" y="0" type="line"/>
    </contour>
  </outline>
</glyph>
